<?xml version="1.0" encoding="UTF-8"?>
<svg id="logo" xmlns="http://www.w3.org/2000/svg" version="1.1" viewBox="0 0 300 300">
  <defs>
    <style>
      .cls-1 {
        fill: #fff;
        stroke-width: 0px;
      }
    </style>
  </defs>
  <g>
    <path class="cls-1" d="M102.12,164.24c-5.79,0-10.13-4.87-10.13-10.72s4.34-10.72,10.13-10.72,10.13,4.8,10.13,10.72-4.34,10.72-10.13,10.72ZM102.12,170.94c10.06,0,17.42-7.69,17.42-17.42s-7.36-17.42-17.42-17.42-17.42,7.69-17.42,17.42,7.43,17.42,17.42,17.42Z"/>
    <path class="cls-1" d="M123.29,167.2c0,2.04,1.58,3.68,3.62,3.68s3.62-1.64,3.62-3.68v-16.04c0-5.46,3.35-8.35,7.56-8.35s7.56,2.89,7.56,8.35v16.04c0,2.04,1.58,3.68,3.62,3.68s3.62-1.64,3.62-3.68v-15.78c0-9.4-6.51-15.32-14.79-15.32s-14.79,5.92-14.79,15.32v15.78Z"/>
    <path class="cls-1" d="M157.29,136.75c-1.91,0-3.35,1.45-3.35,3.35s1.45,3.35,3.35,3.35h2.37v23.74c0,2.04,1.58,3.68,3.62,3.68s3.62-1.64,3.62-3.68v-23.74h7.69c1.84,0,3.35-1.51,3.35-3.35s-1.51-3.35-3.35-3.35h-7.5c.79-4.21,3.68-6.38,7.5-6.38,1.84,0,3.35-1.51,3.35-3.35s-1.51-3.35-3.35-3.35c-7.76,0-13.81,5-14.79,13.08h-2.5Z"/>
    <path class="cls-1" d="M182.89,143.46h2.37v11.9c0,9.53,6.44,15.52,14.93,15.52,1.84,0,3.35-1.51,3.35-3.42s-1.51-3.35-3.35-3.35c-4.47,0-7.69-2.96-7.69-8.75v-11.9h7.69c1.84,0,3.35-1.51,3.35-3.35s-1.51-3.35-3.35-3.35h-7.69v-4.93c0-2.04-1.58-3.62-3.62-3.62s-3.62,1.58-3.62,3.62v4.93h-2.37c-1.84,0-3.35,1.45-3.35,3.35s1.51,3.35,3.35,3.35Z"/>
    <path class="cls-1" d="M221.36,170.94c5.59,0,10.13-2.43,12.62-5.46.66-.72,1.05-1.64,1.05-2.37,0-2.04-1.51-3.48-3.55-3.48-1.38,0-2.1.79-3.16,1.64-1.58,1.64-3.88,2.96-6.97,2.96-5.72,0-10.13-4.8-10.13-10.72s4.47-10.72,10.13-10.72c1.45,0,3.22.39,4.34,1.18l-7.96,9.34c-.59.59-.79,1.38-.79,2.17,0,1.91,1.45,3.29,3.42,3.29.99,0,1.78-.33,2.5-1.18l10.13-12.03c.79-.92,1.05-1.71,1.05-2.63,0-1.05-.53-2.04-1.32-2.76-2.24-2.04-6.25-4.08-11.38-4.08-9.99,0-17.42,7.69-17.42,17.42s7.5,17.42,17.42,17.42Z"/>
    <path class="cls-1" d="M253.18,170.94c5.59,0,10.13-2.43,12.62-5.46.66-.72,1.05-1.64,1.05-2.37,0-2.04-1.51-3.48-3.55-3.48-1.45,0-2.24.85-3.16,1.64-1.58,1.64-3.95,2.96-6.97,2.96-5.65,0-10.13-4.8-10.13-10.72s4.47-10.72,10.13-10.72c3.16,0,5.39,1.32,7.04,2.96.92.79,1.64,1.51,3.09,1.51,2.04,0,3.55-1.38,3.55-3.35,0-.79-.39-1.71-1.05-2.5-2.5-2.96-7.1-5.33-12.62-5.33-9.99,0-17.42,7.69-17.42,17.42s7.43,17.42,17.42,17.42Z"/>
    <path class="cls-1" d="M270.41,167.2c0,2.04,1.58,3.68,3.62,3.68s3.62-1.64,3.62-3.68v-16.04c0-5.52,3.42-8.35,7.56-8.35s7.56,2.83,7.56,8.35v16.04c0,2.04,1.58,3.68,3.62,3.68s3.62-1.64,3.62-3.68v-15.78c0-9.4-6.18-15.32-14.01-15.32-3.42,0-6.25,1.25-8.35,2.89v-11.7c0-2.04-1.58-3.62-3.62-3.62s-3.62,1.58-3.62,3.62v39.91Z"/>
  </g>
  <g>
    <path class="cls-1" d="M8.4,145.47v-6.15c0-2.52,1.34-4.85,3.53-6.11l18.49-10.68c2.18-1.26,4.87-1.26,7.05,0l18.49,10.68c2.18,1.26,3.53,3.59,3.53,6.11v6.15h8.4v-9.66c0-3.35-1.79-6.44-4.69-8.12l-24.57-14.19c-2.9-1.67-6.47-1.67-9.37,0l-24.57,14.19c-2.9,1.67-4.69,4.77-4.69,8.12v9.66h8.4Z"/>
    <path class="cls-1" d="M59.49,154.53v6.15c0,2.52-1.34,4.85-3.53,6.11l-18.49,10.68c-2.18,1.26-4.87,1.26-7.05,0l-18.49-10.68c-2.18-1.26-3.53-3.59-3.53-6.11v-6.15H0v9.66c0,3.35,1.79,6.44,4.69,8.12l24.57,14.19c2.9,1.67,6.47,1.67,9.37,0l24.57-14.19c2.9-1.67,4.69-4.77,4.69-8.12v-9.66h-8.4Z"/>
  </g>
</svg>