<?xml version="1.0" encoding="UTF-8"?>
<svg id="product" xmlns="http://www.w3.org/2000/svg" version="1.1" xmlns:xlink="http://www.w3.org/1999/xlink" viewBox="0 0 300 300">
  <defs>
    <style>
      .cls-1 {
        fill: url(#linear-gradient);
      }

      .cls-1, .cls-2, .cls-3, .cls-4 {
        stroke-width: 0px;
      }

      .cls-2 {
        fill: #000;
      }

      .cls-3 {
        fill: url(#linear-gradient-2);
      }

      .cls-4 {
        fill: #fff;
      }
    </style>
    <linearGradient id="linear-gradient" x1="121.5" y1="85.36" x2="192.76" y2="156.62" gradientUnits="userSpaceOnUse">
      <stop offset="0" stop-color="#000"/>
      <stop offset="1" stop-color="#00d600"/>
    </linearGradient>
    <linearGradient id="linear-gradient-2" x1="191.19" y1="149.2" x2="236.34" y2="149.2" xlink:href="#linear-gradient"/>
  </defs>
  <g id="posh">
    <rect class="cls-2" width="300" height="300" rx="46.15" ry="46.15"/>
    <g>
      <path class="cls-1" d="M228.98,119.16v-27.94c0-3.82-3.09-6.91-6.91-6.91H76.58c-3.82,0-6.91,3.09-6.91,6.91v45.96c0,.25-.03.5-.09.73,39.3,1.67,70.96,33.33,72.63,72.6.22-.03.47-.06.69-.06h79.16c3.82,0,6.91-3.09,6.91-6.91v-84.37Z"/>
      <path class="cls-4" d="M109.73,215.69c-1.06,0-1.93-.87-1.93-1.93,0-22.85-18.6-41.44-41.47-41.44-1.15-.1-1.93-.94-1.93-1.93,0-.17.03-.34.1-.58.23-.77.88-1.3,1.67-1.35h.18s.17-.07.17-.07c24.81.04,45.15,20.37,45.15,45.37,0,.84-.56,1.59-1.35,1.83-.23.07-.41.1-.58.1Z"/>
      <path class="cls-4" d="M93.12,215.69c-1.06,0-1.93-.87-1.93-1.93,0-13.7-11.16-24.84-24.87-24.84-1.13-.1-1.93-.97-1.93-1.96s.78-1.83,1.78-1.9h.17s.16-.07.16-.07c15.65.04,28.54,12.93,28.54,28.77,0,1.06-.87,1.93-1.93,1.93Z"/>
      <path class="cls-4" d="M126.33,215.69c-1.06,0-1.93-.87-1.93-1.93,0-32.01-26.05-58.04-58.08-58.04-1.15-.1-1.93-.94-1.93-1.93s.78-1.83,1.78-1.9h.17s.16-.07.16-.07c33.97.04,61.75,27.81,61.75,61.94,0,1.06-.87,1.93-1.93,1.93Z"/>
    </g>
    <rect class="cls-3" x="191.19" y="136.49" width="45.15" height="25.43" rx="3.53" ry="3.53"/>
  </g>
</svg>