<?xml version="1.0" encoding="UTF-8"?>
<svg id="product" xmlns="http://www.w3.org/2000/svg" version="1.1" xmlns:xlink="http://www.w3.org/1999/xlink" viewBox="0 0 300 300">
  <defs>
    <style>
      .cls-1 {
        fill: url(#linear-gradient);
      }

      .cls-1, .cls-2, .cls-3, .cls-4, .cls-5 {
        stroke-width: 0px;
      }

      .cls-2 {
        fill: url(#linear-gradient-2);
      }

      .cls-3 {
        fill: url(#linear-gradient-3);
      }

      .cls-4 {
        fill: #fff;
      }

      .cls-5 {
        fill: #0a0a0a;
      }
    </style>
    <linearGradient id="linear-gradient" x1="173.32" y1="144.11" x2="134.56" y2="191.69" gradientUnits="userSpaceOnUse">
      <stop offset="0" stop-color="#5dc95d"/>
      <stop offset=".14" stop-color="#5bc45b"/>
      <stop offset=".28" stop-color="#55b755"/>
      <stop offset=".43" stop-color="#4ca24c"/>
      <stop offset=".58" stop-color="#3f853f"/>
      <stop offset=".73" stop-color="#2e5e2e"/>
      <stop offset=".89" stop-color="#1a301a"/>
      <stop offset="1" stop-color="#0a0a0a"/>
    </linearGradient>
    <linearGradient id="linear-gradient-2" x1="204.47" y1="215.35" x2="157.42" y2="180.77" gradientUnits="userSpaceOnUse">
      <stop offset="0" stop-color="#fff"/>
      <stop offset=".12" stop-color="#fafafa"/>
      <stop offset=".25" stop-color="#ededed"/>
      <stop offset=".38" stop-color="#d8d8d8"/>
      <stop offset=".51" stop-color="#bbb"/>
      <stop offset=".65" stop-color="#949494"/>
      <stop offset=".78" stop-color="#656565"/>
      <stop offset=".92" stop-color="#2f2f2f"/>
      <stop offset="1" stop-color="#0a0a0a"/>
    </linearGradient>
    <linearGradient id="linear-gradient-3" x1="179.53" y1="159.44" x2="211.67" y2="188.88" gradientUnits="userSpaceOnUse">
      <stop offset="0" stop-color="#0a0a0a"/>
      <stop offset=".07" stop-color="#363636"/>
      <stop offset=".16" stop-color="#656565"/>
      <stop offset=".25" stop-color="#8e8e8e"/>
      <stop offset=".34" stop-color="#b1b1b1"/>
      <stop offset=".45" stop-color="#cdcdcd"/>
      <stop offset=".55" stop-color="#e3e3e3"/>
      <stop offset=".67" stop-color="#f3f3f3"/>
      <stop offset=".81" stop-color="#fcfcfc"/>
      <stop offset="1" stop-color="#fff"/>
    </linearGradient>
  </defs>
  <g id="api">
    <rect class="cls-5" width="300" height="300" rx="46.15" ry="46.15"/>
    <path class="cls-1" d="M243.97,201.52c0,6.63-1.36,12.95-3.84,18.68h-94.24s-.05-.05-.09-.07c-.26-.23-.53-.46-.81-.69-.26-.23-.53-.46-.79-.69-.28-.23-.55-.46-.81-.69-.26-.23-.53-.46-.79-.69-.28-.23-.55-.46-.81-.71-.26-.21-.53-.46-.81-.69-.26-.21-.53-.46-.79-.69-.28-.23-.55-.46-.81-.69-.26-.23-.53-.46-.79-.69-.28-.23-.55-.46-.81-.69-.28-.23-.53-.46-.81-.69-.26-.23-.53-.46-.79-.69-.28-.23-.55-.48-.81-.71-.26-.21-.53-.46-.79-.69-.28-.21-.55-.46-.81-.69-.28-.23-.53-.46-.81-.69-.26-.23-.53-.46-.79-.69-.28-.23-.55-.46-.81-.69-.26-.23-.53-.46-.81-.69-.26-.23-.53-.48-.79-.71-.28-.21-.55-.46-.81-.69-.26-.21-.53-.46-.79-.69-.28-.23-.55-.46-.81-.69-.26-.23-.53-.46-.81-.69-.26-.23-.53-.46-.79-.69-.28-.23-.55-.46-.81-.69-.26-.23-.53-.46-.79-.69-.28-.23-.55-.48-.81-.71-.28-.21-.53-.46-.81-.69-.26-.21-.53-.46-.79-.69-.28-.23-.55-.46-.81-.69-.26-.23-.53-.46-.79-.69-.28-.23-.55-.46-.81-.69-.28-.23-.55-.46-.81-.69-.26-.23-.53-.48-.79-.71-.28-.21-.55-.46-.81-.69-.26-.21-.53-.46-.81-.69-.26-.23-.53-.46-.79-.69-.28-.23-.55-.46-.81-.69s-.53-.46-.79-.69c-.28-.23-.55-.46-.81-.69-.26-.23-.53-.46-.81-.71-.26-.21-.53-.46-.79-.69-.28-.21-.55-.46-.81-.69-.26-.21-.53-.46-.79-.69-.28-.23-.55-.46-.81-.69-.28-.23-.53-.46-.81-.69-.26-.23-.53-.46-.79-.69-.28-.23-.55-.46-.81-.69s-.53-.48-.79-.71c-.28-.21-.55-.46-.81-.69-.28-.21-.53-.46-.81-.69-.26-.23-.53-.46-.79-.69-.28-.23-.55-.46-.81-.69-.26-.23-.53-.46-.81-.69-.26-.23-.53-.46-.79-.69-.28-.23-.55-.46-.81-.7-.26-.21-.53-.46-.79-.69-.28-.21-.55-.46-.81-.69-.26-.21-.53-.46-.81-.69-.26-.23-.53-.46-.79-.69-.28-.23-.55-.46-.81-.69-.26-.23-.53-.46-.79-.69-.28-.23-.55-.46-.81-.69-.26-.23-.53-.48-.81-.71-.26-.21-.53-.46-.79-.69-.28-.21-.55-.46-.81-.69-.26-.23-.53-.46-.79-.69-.28-.23-.55-.46-.81-.69-.28-.23-.55-.46-.81-.69-.26-.23-.53-.46-.79-.69-.28-.23-.55-.46-.81-.69-.26-.23-.53-.48-.81-.71-.26-.21-.53-.46-.79-.69-.28-.23-.55-.46-.81-.69-10.56-8.67-17.29-21.82-17.29-36.55,0-26.1,21.17-47.27,47.29-47.27,11.77,0,22.52,4.3,30.79,11.42.28.23.55.46.81.69.26.23.53.46.79.69.28.23.55.46.81.69.26.23.53.46.81.69.26.23.53.48.79.71.28.21.55.46.81.69.26.21.53.46.79.69.28.23.55.46.81.69.28.23.53.46.81.69.26.23.53.46.79.69.28.23.55.46.81.69.26.23.53.48.79.71.28.21.55.46.81.69.28.21.55.46.81.69.26.23.53.46.79.69.28.23.55.46.81.69s.53.46.81.69c.26.23.53.46.79.69.28.23.55.46.81.71.26.21.53.46.79.69.28.21.55.46.81.69.26.21.53.46.81.69.26.23.53.46.79.69.28.23.55.46.81.69.26.23.53.46.79.69.28.23.55.46.81.71.28.21.55.46.81.69.26.21.53.46.79.69.28.21.55.46.81.69.26.23.53.46.81.69.26.23.53.46.79.69.28.23.55.46.81.69.26.23.53.46.79.69.28.23.55.46.81.71.26.21.53.46.81.69.26.21.53.46.79.69.28.23.55.46.81.69.26.23.53.46.79.69.28.23.55.46.81.69.26.23.53.46.81.69.26.23.53.46.79.69.28.23.55.48.81.71.26.21.53.46.81.69.26.21.53.46.79.69.28.23.53.46.81.69.26.23.53.46.79.69.28.23.55.46.81.69.26.23.53.46.79.69.28.23.55.46.81.71.28.21.55.46.81.69.26.21.53.46.79.69.28.23.55.46.81.69.26.23.53.46.81.69.26.23.53.46.79.69.28.23.55.46.81.69.26.23.53.46.79.69.28.23.55.48.81.71.26.21.53.46.81.69.26.21.53.46.79.69.28.23.55.46.81.69s.53.46.79.69c.28.23.55.46.81.69.28.23.53.46.81.69.26.23.53.46.79.71.28.21.55.46.81.69.26.21.53.46.79.69.28.23.55.46.81.69.28.23.55.46.81.69.26.23.53.46.79.69.28.23.55.46.81.69.26.23.53.46.81.69.26.23.53.48.79.71.28.21.55.46.81.69.26.21.53.46.79.69.28.23.55.46.81.69.26.23.53.46.81.69.26.23.53.46.79.69.28.23.55.46.81.69.26.23.53.48.79.71.28.21.55.46.81.69.28.21.53.46.81.69.26.23.53.46.79.69.28.23.55.46.81.69.26.23.53.46.79.69.28.23.55.46.81.69.28.23.55.46.81.7.26.21.53.46.79.69.28.21.55.46.81.69.18.14.35.3.53.46.09.07.18.16.26.23.28.23.55.46.81.69.28.23.55.46.81.69.26.23.53.46.79.69.28.23.55.46.81.69.26.23.53.48.81.7.26.21.53.46.79.69.28.21.55.46.81.69.26.23.53.46.79.69.28.23.55.46.81.69.28.23.53.46.81.69.26.23.53.46.79.69,10.56,8.67,17.29,21.84,17.29,36.55Z"/>
    <path class="cls-5" d="M243.97,201.52c0,6.63-1.36,12.95-3.84,18.68l-14.15,2.82-72.72-2.82c-2.49-5.73-3.84-12.06-3.84-18.68,0-26.12,21.17-47.29,47.29-47.29s47.27,21.17,47.27,47.29Z"/>
    <path class="cls-4" d="M245.41,207.12c-.51,4.56-1.66,8.95-3.38,13.08h-3.84c1.92-4.19,3.21-8.74,3.74-13.48,3-26.82-17.5-49.72-43.51-50.69-.95-.04-1.71-.79-1.71-1.74s.78-1.78,1.74-1.78h.05c6.8.25,13.25,1.89,19.07,4.65,18.21,8.58,30.3,28.06,27.85,49.97Z"/>
    <path class="cls-4" d="M77.66,156.84c-14.46-21.64-7.94-51.68,15.55-64.97,3.25-1.84,6.68-3.24,10.19-4.18.21-.07.45-.13.67-.17h.02c.1-.03.2-.1.29-.17.8-.58.99-1.71.4-2.51-.35-.49-.94-.75-1.5-.74-.05,0-.08,0-.12.03-.13.01-.27.06-.41.1-.05,0-.1.02-.14.04-3.83,1-7.58,2.52-11.11,4.53-19.18,10.85-27.87,32.07-24.15,51.85,1.17,6.34,3.61,12.51,7.4,18.18l.03.04c.57.79,1.68.95,2.47.38s.94-1.62.42-2.41Z"/>
    <path class="cls-2" d="M206.66,202.74l-2.8.33,1.41,11.73h0s-47.51-40.09-47.51-40.09c-.55.78-1.06,1.57-1.57,2.38l47.23,39.88h.03s-.01,0-.01,0h-.02l-12.23.11.14,2.82,17.34-.35-2.01-16.81Z"/>
    <path class="cls-3" d="M190.14,167.57l11.79-.55-.14-2.82-16.9.79,2.01,16.81,2.8-.33-1.41-11.74,31.95,27.05c.32-.35.62-.7.92-1.06.32-.35.62-.72.92-1.09l-31.94-27.07Z"/>
  </g>
</svg>