<?xml version="1.0" encoding="UTF-8"?>
<svg id="product" xmlns="http://www.w3.org/2000/svg" version="1.1" xmlns:xlink="http://www.w3.org/1999/xlink" viewBox="0 0 300 300">
  <defs>
    <style>
      .cls-1 {
        fill: url(#linear-gradient);
      }

      .cls-1, .cls-2, .cls-3, .cls-4 {
        stroke-width: 0px;
      }

      .cls-2 {
        fill: url(#linear-gradient-2);
      }

      .cls-3 {
        fill: #fff;
      }

      .cls-4 {
        fill: #0a0a0a;
      }
    </style>
    <linearGradient id="linear-gradient" x1="154.18" y1="238.93" x2="239.83" y2="153.28" gradientUnits="userSpaceOnUse">
      <stop offset="0" stop-color="#af1450"/>
      <stop offset=".74" stop-color="#0a0a0a"/>
    </linearGradient>
    <linearGradient id="linear-gradient-2" x1="58.82" y1="148.07" x2="147.17" y2="59.72" gradientTransform="translate(-.9 206.89) rotate(-90)" gradientUnits="userSpaceOnUse">
      <stop offset=".26" stop-color="#0a0a0a"/>
      <stop offset="1" stop-color="#af1450"/>
    </linearGradient>
  </defs>
  <g id="gsad">
    <rect class="cls-4" x="0" width="300" height="300" rx="46.15" ry="46.15"/>
    <rect class="cls-1" x="150.8" y="149.9" width="92.4" height="92.4" rx="11.54" ry="11.54"/>
    <rect class="cls-2" x="56.79" y="57.69" width="92.4" height="92.4" rx="6.92" ry="6.92" transform="translate(206.89 .9) rotate(90)"/>
    <g>
      <path class="cls-3" d="M133.18,199.35h-33.22v-93.05c0-1.02.83-1.85,1.85-1.85s1.85.83,1.85,1.85v89.35h29.53c1.02,0,1.85.83,1.85,1.85s-.83,1.85-1.85,1.85Z"/>
      <polygon class="cls-3" points="116.9 118.54 114.2 121.06 101.81 107.72 89.41 121.06 86.71 118.54 101.81 102.3 116.9 118.54"/>
    </g>
    <g>
      <path class="cls-3" d="M197.01,195.35h0c-1.02,0-1.85-.83-1.85-1.85v-89.35s-29.53,0-29.53,0c-1.02,0-1.85-.83-1.85-1.85s.83-1.85,1.85-1.85h33.22v93.05c0,1.02-.83,1.85-1.85,1.85Z"/>
      <polygon class="cls-3" points="181.91 181.27 184.61 178.75 197 192.08 209.4 178.75 212.1 181.27 197 197.51 181.91 181.27"/>
    </g>
  </g>
</svg>