<?xml version="1.0" encoding="UTF-8"?>
<svg id="product" xmlns="http://www.w3.org/2000/svg" version="1.1" xmlns:xlink="http://www.w3.org/1999/xlink" viewBox="0 0 300 300">
  <defs>
    <style>
      .cls-1 {
        fill: url(#linear-gradient);
      }

      .cls-1, .cls-2, .cls-3, .cls-4, .cls-5, .cls-6, .cls-7 {
        stroke-width: 0px;
      }

      .cls-2 {
        fill: url(#linear-gradient-5);
      }

      .cls-3 {
        fill: #f4f4f4;
      }

      .cls-4 {
        fill: url(#linear-gradient-2);
      }

      .cls-5 {
        fill: url(#linear-gradient-3);
      }

      .cls-6 {
        fill: url(#linear-gradient-4);
      }

      .cls-7 {
        fill: #0a0a0a;
      }
    </style>
    <linearGradient id="linear-gradient" x1="34.03" y1="214.76" x2="112.11" y2="136.69" gradientUnits="userSpaceOnUse">
      <stop offset="0" stop-color="#0a0a0a"/>
      <stop offset="1" stop-color="#1243f1"/>
    </linearGradient>
    <linearGradient id="linear-gradient-2" x1="95.75" y1="132.1" x2="153.02" y2="74.83" xlink:href="#linear-gradient"/>
    <linearGradient id="linear-gradient-3" x1="141.76" y1="219.94" x2="209.51" y2="152.19" xlink:href="#linear-gradient"/>
    <linearGradient id="linear-gradient-4" x1="183.34" y1="210.23" x2="270.51" y2="123.07" xlink:href="#linear-gradient"/>
    <linearGradient id="linear-gradient-5" x1="104.36" y1="212.62" x2="143.58" y2="173.39" gradientUnits="userSpaceOnUse">
      <stop offset="0" stop-color="#ff1300"/>
      <stop offset="1" stop-color="#f93e13"/>
    </linearGradient>
  </defs>
  <g id="IAnalytics">
    <g>
      <rect class="cls-7" x="0" width="300" height="300" rx="46.15" ry="46.15"/>
      <path class="cls-1" d="M88.45,115.77v43.85c0,1.94-.88,3.76-2.34,5.04-10.01,8.79-17.2,19.03-20.85,24.83-1.35,2.15-1.35,4.87,0,7.02,3.65,5.79,10.84,16.03,20.85,24.84,1.46,1.28,2.33,3.1,2.33,5.04v9.29c0,3.66-2.97,6.62-6.62,6.62h-17.52c-3.66,0-6.62-2.97-6.62-6.62v-119.91c0-3.66,2.97-6.62,6.62-6.62h17.52c3.66,0,6.62,2.97,6.62,6.62Z"/>
      <path class="cls-4" d="M133.13,57.69h-17.54c-3.66,0-6.62,2.97-6.62,6.62v78.25c0,4.03,3.58,7.21,7.56,6.55,2.42-.4,4.9-.61,7.44-.61,2.78,0,5.49.25,8.13.72,4.01.72,7.66-2.52,7.66-6.6v-78.31c0-3.66-2.97-6.62-6.62-6.62Z"/>
      <rect class="cls-5" x="160.25" y="129.83" width="30.78" height="112.48" rx="6.62" ry="6.62"/>
      <rect class="cls-6" x="211.54" y="90.99" width="30.77" height="151.32" rx="6.62" ry="6.62"/>
      <g>
        <path class="cls-3" d="M172.02,217.27c0,.6-.23,1.2-.67,1.66-.76.81-1.55,1.59-2.33,2.35-.23.23-.48.46-.72.69-.74.72-1.48,1.41-2.24,2.08-1.92,1.73-3.85,3.35-5.82,4.85v-6.18c.88-.72,1.73-1.45,2.56-2.22.81-.72,1.59-1.45,2.35-2.19.78-.74,1.55-1.5,2.24-2.24.16-.16.32-.3.46-.46.9-.95,2.4-1.02,3.37-.12.51.46.78,1.13.78,1.78Z"/>
        <path class="cls-3" d="M187.46,193.04c-1.13.6-2.54.21-3.18-.9-.65-1.08-1.57-2.58-2.72-4.38-.6-.88-1.22-1.82-1.92-2.82-.48-.72-1.02-1.45-1.59-2.22-.21-.3-.44-.62-.67-.92-.46-.65-.97-1.29-1.48-1.94-.44-.6-.95-1.22-1.45-1.87-1.66-2.08-3.51-4.22-5.52-6.37-.44-.46-.88-.92-1.34-1.38-1.45-1.55-3-3.07-4.64-4.55-.88-.78-1.78-1.57-2.7-2.35v-6.32c1.55,1.18,3.02,2.4,4.45,3.65.48.42.95.83,1.41,1.25.72.65,1.43,1.29,2.1,1.94.81.76,1.57,1.52,2.31,2.31.67.65,1.32,1.32,1.89,1.98.46.46.9.95,1.32,1.43.42.44.81.88,1.18,1.32.67.78,1.34,1.55,1.98,2.33,3.53,4.25,6.37,8.26,8.45,11.47.3.44.58.88.83,1.27.44.69.83,1.32,1.18,1.89.44.69.81,1.34,1.11,1.87.67,1.18.23,2.68-.99,3.32Z"/>
      </g>
      <path class="cls-2" d="M139.75,170.19c-4.48-3.12-9.92-4.94-15.78-4.94-5.54,0-10.68,1.62-15,4.43-7.66,4.92-12.74,13.55-12.74,23.33s5.08,18.39,12.74,23.33c4.32,2.79,9.46,4.41,15,4.41,5.86,0,11.31-1.82,15.78-4.94,7.22-5.01,11.95-13.36,11.95-22.8s-4.73-17.82-11.95-22.82ZM123.97,204.23c-6.21,0-11.24-5.03-11.24-11.22s5.03-11.24,11.24-11.24,11.22,5.03,11.22,11.24-5.01,11.22-11.22,11.22Z"/>
      <path class="cls-3" d="M187.46,193.04c-1.13.6-2.54.21-3.18-.9-.65-1.08-1.57-2.58-2.72-4.38-.58-.88-1.2-1.82-1.92-2.82-.48-.72-1.02-1.45-1.59-2.22-.18-.3-.42-.6-.67-.92-.46-.65-.97-1.29-1.48-1.94-.44-.6-.95-1.22-1.45-1.87-1.66-2.08-3.51-4.22-5.52-6.37-.42-.46-.85-.92-1.34-1.38-1.45-1.55-3-3.07-4.64-4.55-.88-.78-1.78-1.57-2.7-2.35-5.93-5.01-12.83-9.39-20.49-12.09-4.94-1.73-10.22-2.75-15.78-2.75-5.26,0-10.27.92-15,2.49-7.66,2.54-14.54,6.81-20.52,11.7-13.94,11.4-22.94,26.17-25.29,30.32,2.35,4.13,11.35,18.9,25.29,30.32,5.98,4.89,12.85,9.14,20.52,11.68,4.73,1.57,9.74,2.49,15,2.49,5.58,0,10.85-1.04,15.78-2.75,7.78-2.72,14.68-7.2,20.49-12.05.88-.72,1.73-1.45,2.56-2.22.81-.72,1.59-1.45,2.35-2.19.78-.74,1.55-1.5,2.24-2.24.16-.16.32-.3.46-.46.9-.95,2.4-1.02,3.37-.12.51.46.78,1.13.78,1.78,0,.6-.23,1.2-.67,1.66-.76.81-1.55,1.59-2.33,2.35-.23.23-.48.46-.72.69-.74.72-1.48,1.41-2.24,2.08-1.92,1.73-3.85,3.35-5.82,4.85-11.61,8.82-23.93,13.41-36.28,13.41-13.78,0-25.71-5.47-35.52-12.74-18.67-13.82-29.49-34.15-30.18-35.45l-.58-1.11.58-1.13c.69-1.29,11.52-21.62,30.18-35.45,6.05-4.48,12.9-8.28,20.52-10.52,4.71-1.41,9.72-2.22,15-2.22,5.56,0,10.85.9,15.78,2.45,7.62,2.38,14.47,6.3,20.49,10.87,1.55,1.18,3.02,2.4,4.45,3.65.48.42.95.83,1.41,1.25.72.65,1.43,1.29,2.1,1.94.81.76,1.57,1.52,2.31,2.31.67.65,1.32,1.32,1.89,1.98.46.46.9.95,1.32,1.43.42.44.81.88,1.18,1.32.67.78,1.34,1.55,1.98,2.33,3.53,4.25,6.37,8.26,8.45,11.47.3.44.58.88.83,1.27.44.69.83,1.32,1.18,1.89.42.72.78,1.34,1.11,1.87.67,1.18.23,2.68-.99,3.32Z"/>
    </g>
  </g>
</svg>