<?xml version="1.0" encoding="UTF-8"?>
<svg id="product" xmlns="http://www.w3.org/2000/svg" version="1.1" xmlns:xlink="http://www.w3.org/1999/xlink" viewBox="0 0 300 300">
  <defs>
    <style>
      .cls-1 {
        fill: url(#linear-gradient);
      }

      .cls-1, .cls-2, .cls-3, .cls-4, .cls-5, .cls-6, .cls-7, .cls-8, .cls-9 {
        stroke-width: 0px;
      }

      .cls-2 {
        fill: url(#linear-gradient-6);
      }

      .cls-3 {
        fill: url(#linear-gradient-5);
      }

      .cls-4 {
        fill: url(#linear-gradient-2);
      }

      .cls-5 {
        fill: url(#linear-gradient-7);
      }

      .cls-6 {
        fill: url(#linear-gradient-3);
      }

      .cls-7 {
        fill: #fff;
      }

      .cls-8 {
        fill: url(#linear-gradient-4);
      }

      .cls-9 {
        fill: #0a0a0a;
      }
    </style>
    <linearGradient id="linear-gradient" x1="60.47" y1="60.47" x2="83.38" y2="83.38" gradientUnits="userSpaceOnUse">
      <stop offset="0" stop-color="#b1d629"/>
      <stop offset="1" stop-color="#0a0a0a"/>
    </linearGradient>
    <linearGradient id="linear-gradient-2" x1="161.45" y1="161.45" x2="138.55" y2="138.55" gradientUnits="userSpaceOnUse">
      <stop offset="0" stop-color="#0a0a0a"/>
      <stop offset="1" stop-color="#b1d629"/>
    </linearGradient>
    <linearGradient id="linear-gradient-3" x1="150" y1="90.08" x2="150" y2="57.69" xlink:href="#linear-gradient-2"/>
    <linearGradient id="linear-gradient-4" x1="216.55" y1="216.55" x2="239.45" y2="239.45" xlink:href="#linear-gradient-2"/>
    <linearGradient id="linear-gradient-5" x1="60.21" y1="239.79" x2="83.11" y2="216.89" xlink:href="#linear-gradient"/>
    <linearGradient id="linear-gradient-6" x1="85.34" y1="161.45" x2="62.44" y2="138.55" xlink:href="#linear-gradient-2"/>
    <linearGradient id="linear-gradient-7" x1="217.28" y1="82.72" x2="240.18" y2="59.82" xlink:href="#linear-gradient-2"/>
  </defs>
  <g id="lgg">
    <rect class="cls-9" width="300" height="300" rx="46.15" ry="46.15"/>
    <circle class="cls-1" cx="73.89" cy="73.89" r="16.19"/>
    <circle class="cls-4" cx="150" cy="150" r="16.19"/>
    <circle class="cls-6" cx="150" cy="73.89" r="16.19"/>
    <circle class="cls-8" cx="226.11" cy="226.11" r="16.19"/>
    <circle class="cls-3" cx="73.89" cy="226.11" r="16.19"/>
    <circle class="cls-2" cx="73.89" cy="150" r="16.19"/>
    <circle class="cls-5" cx="226.11" cy="73.89" r="16.19"/>
    <path class="cls-7" d="M155.73,246.59l-39.2-38.33c-1.19-1.16-1.21-3.06-.05-4.24,1.16-1.19,3.06-1.21,4.24-.05l34.83,34.05,84.57-90.07c1.13-1.21,3.03-1.27,4.24-.13,1.21,1.13,1.27,3.03.13,4.24l-88.76,94.54Z"/>
  </g>
</svg>