<?xml version="1.0" encoding="UTF-8"?>
<svg id="product" xmlns="http://www.w3.org/2000/svg" version="1.1" xmlns:xlink="http://www.w3.org/1999/xlink" viewBox="0 0 300 300">
  <defs>
    <style>
      .cls-1 {
        fill: #921dd6;
      }

      .cls-1, .cls-2, .cls-3, .cls-4, .cls-5 {
        stroke-width: 0px;
      }

      .cls-2 {
        fill: url(#radial-gradient-2);
      }

      .cls-3 {
        fill: url(#radial-gradient);
      }

      .cls-4 {
        fill: #fff;
      }

      .cls-5 {
        fill: #0a0a0a;
      }
    </style>
    <radialGradient id="radial-gradient" cx="149.99" cy="149.98" fx="149.99" fy="149.98" r="64.04" gradientTransform="translate(0 -149.98) scale(1 2)" gradientUnits="userSpaceOnUse">
      <stop offset="0" stop-color="#0a0a0a"/>
      <stop offset=".39" stop-color="#0b0a0b"/>
      <stop offset=".53" stop-color="#0f0a12"/>
      <stop offset=".63" stop-color="#170b1e"/>
      <stop offset=".71" stop-color="#220d2f"/>
      <stop offset=".78" stop-color="#310f45"/>
      <stop offset=".84" stop-color="#431260"/>
      <stop offset=".9" stop-color="#591581"/>
      <stop offset=".95" stop-color="#7218a6"/>
      <stop offset=".99" stop-color="#8d1ccf"/>
      <stop offset="1" stop-color="#921dd6"/>
    </radialGradient>
    <radialGradient id="radial-gradient-2" cx="149.99" cy="149.98" fx="149.99" fy="149.98" r="64.04" gradientUnits="userSpaceOnUse">
      <stop offset=".49" stop-color="#0a0a0a"/>
      <stop offset=".69" stop-color="#0b0a0b"/>
      <stop offset=".76" stop-color="#0f0a12"/>
      <stop offset=".81" stop-color="#170b1e"/>
      <stop offset=".85" stop-color="#220d2f"/>
      <stop offset=".89" stop-color="#310f45"/>
      <stop offset=".92" stop-color="#431260"/>
      <stop offset=".95" stop-color="#591581"/>
      <stop offset=".97" stop-color="#7218a6"/>
      <stop offset="1" stop-color="#8d1ccf"/>
      <stop offset="1" stop-color="#921dd6"/>
    </radialGradient>
  </defs>
  <g id="onfticket">
    <rect class="cls-5" x="0" width="300" height="300" rx="46.15" ry="46.15"/>
    <g>
      <path class="cls-3" d="M137.61,197.98h-.02c-.9-.23-1.8-.48-2.7-.81-15.21-4.82-27.21-16.85-32.08-32.03-.3-.9-.55-1.8-.78-2.7-.28-1.04-.51-2.1-.69-3.16-2.98,5.88-8.65,10.18-15.39,11.22.23.72.46,1.41.72,2.1s.51,1.38.81,2.08c6.81,17.28,20.58,31.04,37.87,37.85.69.3,1.38.55,2.08.78.69.25,1.41.51,2.1.72,1.06-6.74,5.35-12.42,11.26-15.35-1.06-.18-2.12-.42-3.16-.69ZM198.67,159.23c-.18,1.08-.44,2.17-.72,3.23-.23.9-.48,1.8-.76,2.7-4.89,15.18-16.89,27.16-32.08,32.01-.9.3-1.8.58-2.72.81h-.02c-1.04.28-2.1.51-3.16.69,5.91,2.93,10.2,8.61,11.26,15.35.72-.21,1.41-.46,2.1-.72.69-.23,1.38-.48,2.08-.78,17.28-6.81,31.06-20.56,37.87-37.85.3-.69.55-1.38.81-2.08s.48-1.38.72-2.1c-6.76-1.04-12.44-5.35-15.37-11.26ZM213.32,127.43c-.23-.72-.48-1.41-.78-2.1-6.81-17.28-20.58-31.08-37.89-37.89-.69-.3-1.38-.55-2.08-.78-.69-.25-1.38-.51-2.1-.72-1.04,6.74-5.31,12.42-11.17,15.39,1.06.16,2.1.42,3.14.69.92.23,1.85.48,2.75.78,15.16,4.87,27.14,16.87,32.01,32.03.3.9.55,1.82.78,2.75.28,1.04.51,2.1.69,3.16,2.93-5.88,8.63-10.2,15.37-11.24-.21-.69-.44-1.38-.72-2.08ZM129.51,85.94c-.69.21-1.41.46-2.1.72-.69.23-1.38.48-2.08.78-17.31,6.81-31.08,20.61-37.89,37.89-.3.69-.55,1.38-.81,2.1-.25.69-.48,1.38-.69,2.08,4.34.67,8.33,2.7,11.49,5.86,1.59,1.59,2.91,3.39,3.88,5.38.18-1.06.42-2.12.69-3.16.23-.92.51-1.85.81-2.75,4.85-15.18,16.82-27.16,32.01-32.05.9-.28,1.8-.53,2.72-.76,1.04-.28,2.08-.51,3.14-.69-5.86-2.98-10.13-8.65-11.17-15.39Z"/>
      <g>
        <path class="cls-1" d="M172.57,213.3c-1.13-6.42-4.92-11.93-10.18-15.32h-.02c-3.58-2.33-7.82-3.67-12.39-3.67s-8.82,1.34-12.37,3.67h-.02c-5.26,3.39-9.05,8.88-10.18,15.32-.21,1.27-.32,2.58-.32,3.92,0,12.62,10.27,22.89,22.89,22.89s22.92-10.27,22.92-22.89c0-1.34-.12-2.65-.32-3.92ZM150,237.92c-11.45,0-20.72-9.28-20.72-20.72,0-1.08.09-2.15.23-3.18,1.06-6.74,5.35-12.42,11.26-15.35,2.79-1.38,5.91-2.17,9.23-2.17s6.44.78,9.21,2.17c5.91,2.93,10.2,8.61,11.26,15.35.14,1.04.23,2.1.23,3.18,0,11.45-9.28,20.72-20.7,20.72Z"/>
        <path class="cls-4" d="M174.65,212.52c-1.18-6.23-4.66-11.65-9.53-15.35-4.22-3.16-9.44-5.05-15.12-5.05s-10.92,1.89-15.12,5.05c-4.89,3.69-8.38,9.12-9.55,15.35-.28,1.52-.44,3.09-.44,4.68,0,13.87,11.24,25.11,25.11,25.11s25.08-11.24,25.08-25.11c0-1.59-.16-3.16-.44-4.68ZM150,237.92c-11.45,0-20.72-9.28-20.72-20.72,0-1.08.09-2.15.23-3.18,1.06-6.74,5.35-12.42,11.26-15.35,2.79-1.38,5.91-2.17,9.23-2.17s6.44.78,9.21,2.17c5.91,2.93,10.2,8.61,11.26,15.35.14,1.04.23,2.1.23,3.18,0,11.45-9.28,20.72-20.7,20.72Z"/>
      </g>
      <g>
        <path class="cls-1" d="M149.98,59.91c-12.62,0-22.89,10.27-22.89,22.89,0,1.32.12,2.61.32,3.85,1.08,6.44,4.87,11.95,10.13,15.37,3.58,2.35,7.85,3.69,12.44,3.69s8.86-1.36,12.46-3.69c5.26-3.42,9.05-8.93,10.13-15.37.21-1.25.32-2.54.32-3.85,0-12.62-10.27-22.89-22.92-22.89ZM159.3,101.33c-2.79,1.41-5.95,2.19-9.3,2.19s-6.53-.78-9.32-2.19c-5.86-2.98-10.13-8.65-11.17-15.39-.16-1.04-.23-2.08-.23-3.14,0-11.42,9.28-20.72,20.72-20.72s20.7,9.3,20.7,20.72c0,1.06-.07,2.1-.23,3.14-1.04,6.74-5.31,12.42-11.17,15.39Z"/>
        <path class="cls-4" d="M150,57.69c-13.87,0-25.11,11.26-25.11,25.11,0,1.59.14,3.14.44,4.64,1.15,6.25,4.62,11.65,9.48,15.35,4.2,3.21,9.46,5.12,15.18,5.12s10.96-1.92,15.18-5.1c4.85-3.72,8.31-9.12,9.46-15.37.3-1.5.44-3.05.44-4.64,0-13.85-11.24-25.11-25.08-25.11ZM170.47,85.94c-1.04,6.74-5.31,12.42-11.17,15.39-2.79,1.41-5.95,2.19-9.3,2.19s-6.53-.78-9.32-2.19c-5.86-2.98-10.13-8.65-11.17-15.39-.16-1.04-.23-2.08-.23-3.14,0-11.42,9.28-20.72,20.72-20.72s20.7,9.3,20.7,20.72c0,1.06-.07,2.1-.23,3.14Z"/>
      </g>
      <g>
        <path class="cls-1" d="M102,137.58c-3.39-5.26-8.93-9.07-15.37-10.15-1.25-.21-2.54-.32-3.85-.32-12.62,0-22.89,10.27-22.89,22.89s10.27,22.92,22.89,22.92c1.32,0,2.61-.12,3.88-.32,6.44-1.11,11.95-4.89,15.37-10.15,2.33-3.58,3.67-7.85,3.67-12.44s-1.34-8.84-3.69-12.42ZM101.33,159.28c-2.98,5.88-8.65,10.18-15.39,11.22-1.04.14-2.1.23-3.16.23-11.42,0-20.7-9.28-20.7-20.72s9.28-20.72,20.72-20.72c1.06,0,2.1.09,3.14.23,4.34.67,8.33,2.7,11.49,5.86,1.59,1.59,2.91,3.39,3.88,5.38,1.43,2.84,2.19,6,2.19,9.25s-.78,6.48-2.17,9.28Z"/>
        <path class="cls-4" d="M102.81,134.84c-3.72-4.87-9.14-8.35-15.37-9.51-1.5-.3-3.05-.44-4.64-.44-13.87,0-25.11,11.26-25.11,25.11s11.24,25.11,25.08,25.11c1.59,0,3.16-.16,4.68-.44,6.25-1.18,11.65-4.66,15.35-9.53,3.18-4.22,5.08-9.46,5.08-15.14s-1.89-10.94-5.08-15.16ZM82.78,170.72c-11.42,0-20.7-9.28-20.7-20.72s9.28-20.72,20.72-20.72c1.06,0,2.1.09,3.14.23,4.34.67,8.33,2.7,11.49,5.86,1.59,1.59,2.91,3.39,3.88,5.38,1.43,2.84,2.19,6,2.19,9.25s-.78,6.48-2.17,9.28c-2.98,5.88-8.65,10.18-15.39,11.22-1.04.14-2.1.23-3.16.23Z"/>
      </g>
      <g>
        <path class="cls-1" d="M217.18,127.11c-1.32,0-2.61.12-3.85.32-6.44,1.08-11.95,4.89-15.35,10.15-2.35,3.58-3.69,7.85-3.69,12.42s1.27,8.79,3.67,12.46c.85,1.34,1.87,2.61,3.02,3.76,3.42,3.39,7.68,5.58,12.35,6.37,1.27.21,2.56.32,3.85.32,12.65,0,22.92-10.27,22.92-22.92s-10.27-22.89-22.92-22.89ZM217.2,170.72c-1.08,0-2.12-.09-3.16-.23-6.76-1.04-12.44-5.35-15.37-11.26-1.41-2.77-2.19-5.91-2.19-9.23s.78-6.46,2.19-9.25c2.93-5.88,8.63-10.2,15.37-11.24,1.04-.14,2.08-.23,3.16-.23,11.42.02,20.72,9.3,20.72,20.72s-9.3,20.72-20.72,20.72Z"/>
        <path class="cls-4" d="M217.2,124.89c-1.59,0-3.14.14-4.66.44-6.23,1.15-11.65,4.64-15.35,9.51-3.21,4.22-5.1,9.48-5.1,15.16s1.89,10.94,5.1,15.16c3.69,4.87,9.09,8.33,15.32,9.51,1.52.3,3.09.44,4.68.44,13.85,0,25.11-11.24,25.11-25.11s-11.26-25.11-25.11-25.11ZM217.2,170.72c-1.08,0-2.12-.09-3.16-.23-6.76-1.04-12.44-5.35-15.37-11.26-1.41-2.77-2.19-5.91-2.19-9.23s.78-6.46,2.19-9.25c2.93-5.88,8.63-10.2,15.37-11.24,1.04-.14,2.08-.23,3.16-.23,11.42.02,20.72,9.3,20.72,20.72s-9.3,20.72-20.72,20.72Z"/>
      </g>
      <circle class="cls-1" cx="149.99" cy="150" r="29.06"/>
    </g>
    <circle class="cls-1" cx="149.99" cy="150" r="29.06"/>
    <g>
      <path class="cls-2" d="M137.61,197.98h-.02c-.9-.23-1.8-.48-2.7-.81-15.21-4.82-27.21-16.85-32.08-32.03-.3-.9-.55-1.8-.78-2.7-.28-1.04-.51-2.1-.69-3.16-2.98,5.88-8.65,10.18-15.39,11.22.23.72.46,1.41.72,2.1s.51,1.38.81,2.08c6.81,17.28,20.58,31.04,37.87,37.85.69.3,1.38.55,2.08.78.69.25,1.41.51,2.1.72,1.06-6.74,5.35-12.42,11.26-15.35-1.06-.18-2.12-.42-3.16-.69ZM198.67,159.23c-.18,1.08-.44,2.17-.72,3.23-.23.9-.48,1.8-.76,2.7-4.89,15.18-16.89,27.16-32.08,32.01-.9.3-1.8.58-2.72.81h-.02c-1.04.28-2.1.51-3.16.69,5.91,2.93,10.2,8.61,11.26,15.35.72-.21,1.41-.46,2.1-.72.69-.23,1.38-.48,2.08-.78,17.28-6.81,31.06-20.56,37.87-37.85.3-.69.55-1.38.81-2.08s.48-1.38.72-2.1c-6.76-1.04-12.44-5.35-15.37-11.26ZM213.32,127.43c-.23-.72-.48-1.41-.78-2.1-6.81-17.28-20.58-31.08-37.89-37.89-.69-.3-1.38-.55-2.08-.78-.69-.25-1.38-.51-2.1-.72-1.04,6.74-5.31,12.42-11.17,15.39,1.06.16,2.1.42,3.14.69.92.23,1.85.48,2.75.78,15.16,4.87,27.14,16.87,32.01,32.03.3.9.55,1.82.78,2.75.28,1.04.51,2.1.69,3.16,2.93-5.88,8.63-10.2,15.37-11.24-.21-.69-.44-1.38-.72-2.08ZM129.51,85.94c-.69.21-1.41.46-2.1.72-.69.23-1.38.48-2.08.78-17.31,6.81-31.08,20.61-37.89,37.89-.3.69-.55,1.38-.81,2.1-.25.69-.48,1.38-.69,2.08,4.34.67,8.33,2.7,11.49,5.86,1.59,1.59,2.91,3.39,3.88,5.38.18-1.06.42-2.12.69-3.16.23-.92.51-1.85.81-2.75,4.85-15.18,16.82-27.16,32.01-32.05.9-.28,1.8-.53,2.72-.76,1.04-.28,2.08-.51,3.14-.69-5.86-2.98-10.13-8.65-11.17-15.39Z"/>
      <g>
        <path class="cls-1" d="M172.57,213.3c-1.13-6.42-4.92-11.93-10.18-15.32h-.02c-3.58-2.33-7.82-3.67-12.39-3.67s-8.82,1.34-12.37,3.67h-.02c-5.26,3.39-9.05,8.88-10.18,15.32-.21,1.27-.32,2.58-.32,3.92,0,12.62,10.27,22.89,22.89,22.89s22.92-10.27,22.92-22.89c0-1.34-.12-2.65-.32-3.92ZM150,237.92c-11.45,0-20.72-9.28-20.72-20.72,0-1.08.09-2.15.23-3.18,1.06-6.74,5.35-12.42,11.26-15.35,2.79-1.38,5.91-2.17,9.23-2.17s6.44.78,9.21,2.17c5.91,2.93,10.2,8.61,11.26,15.35.14,1.04.23,2.1.23,3.18,0,11.45-9.28,20.72-20.7,20.72Z"/>
        <path class="cls-4" d="M174.65,212.52c-1.18-6.23-4.66-11.65-9.53-15.35-4.22-3.16-9.44-5.05-15.12-5.05s-10.92,1.89-15.12,5.05c-4.89,3.69-8.38,9.12-9.55,15.35-.28,1.52-.44,3.09-.44,4.68,0,13.87,11.24,25.11,25.11,25.11s25.08-11.24,25.08-25.11c0-1.59-.16-3.16-.44-4.68ZM150,237.92c-11.45,0-20.72-9.28-20.72-20.72,0-1.08.09-2.15.23-3.18,1.06-6.74,5.35-12.42,11.26-15.35,2.79-1.38,5.91-2.17,9.23-2.17s6.44.78,9.21,2.17c5.91,2.93,10.2,8.61,11.26,15.35.14,1.04.23,2.1.23,3.18,0,11.45-9.28,20.72-20.7,20.72Z"/>
      </g>
      <g>
        <path class="cls-1" d="M149.98,59.91c-12.62,0-22.89,10.27-22.89,22.89,0,1.32.12,2.61.32,3.85,1.08,6.44,4.87,11.95,10.13,15.37,3.58,2.35,7.85,3.69,12.44,3.69s8.86-1.36,12.46-3.69c5.26-3.42,9.05-8.93,10.13-15.37.21-1.25.32-2.54.32-3.85,0-12.62-10.27-22.89-22.92-22.89ZM159.3,101.33c-2.79,1.41-5.95,2.19-9.3,2.19s-6.53-.78-9.32-2.19c-5.86-2.98-10.13-8.65-11.17-15.39-.16-1.04-.23-2.08-.23-3.14,0-11.42,9.28-20.72,20.72-20.72s20.7,9.3,20.7,20.72c0,1.06-.07,2.1-.23,3.14-1.04,6.74-5.31,12.42-11.17,15.39Z"/>
        <path class="cls-4" d="M150,57.69c-13.87,0-25.11,11.26-25.11,25.11,0,1.59.14,3.14.44,4.64,1.15,6.25,4.62,11.65,9.48,15.35,4.2,3.21,9.46,5.12,15.18,5.12s10.96-1.92,15.18-5.1c4.85-3.72,8.31-9.12,9.46-15.37.3-1.5.44-3.05.44-4.64,0-13.85-11.24-25.11-25.08-25.11ZM170.47,85.94c-1.04,6.74-5.31,12.42-11.17,15.39-2.79,1.41-5.95,2.19-9.3,2.19s-6.53-.78-9.32-2.19c-5.86-2.98-10.13-8.65-11.17-15.39-.16-1.04-.23-2.08-.23-3.14,0-11.42,9.28-20.72,20.72-20.72s20.7,9.3,20.7,20.72c0,1.06-.07,2.1-.23,3.14Z"/>
      </g>
      <g>
        <path class="cls-1" d="M102,137.58c-3.39-5.26-8.93-9.07-15.37-10.15-1.25-.21-2.54-.32-3.85-.32-12.62,0-22.89,10.27-22.89,22.89s10.27,22.92,22.89,22.92c1.32,0,2.61-.12,3.88-.32,6.44-1.11,11.95-4.89,15.37-10.15,2.33-3.58,3.67-7.85,3.67-12.44s-1.34-8.84-3.69-12.42ZM101.33,159.28c-2.98,5.88-8.65,10.18-15.39,11.22-1.04.14-2.1.23-3.16.23-11.42,0-20.7-9.28-20.7-20.72s9.28-20.72,20.72-20.72c1.06,0,2.1.09,3.14.23,4.34.67,8.33,2.7,11.49,5.86,1.59,1.59,2.91,3.39,3.88,5.38,1.43,2.84,2.19,6,2.19,9.25s-.78,6.48-2.17,9.28Z"/>
        <path class="cls-4" d="M102.81,134.84c-3.72-4.87-9.14-8.35-15.37-9.51-1.5-.3-3.05-.44-4.64-.44-13.87,0-25.11,11.26-25.11,25.11s11.24,25.11,25.08,25.11c1.59,0,3.16-.16,4.68-.44,6.25-1.18,11.65-4.66,15.35-9.53,3.18-4.22,5.08-9.46,5.08-15.14s-1.89-10.94-5.08-15.16ZM82.78,170.72c-11.42,0-20.7-9.28-20.7-20.72s9.28-20.72,20.72-20.72c1.06,0,2.1.09,3.14.23,4.34.67,8.33,2.7,11.49,5.86,1.59,1.59,2.91,3.39,3.88,5.38,1.43,2.84,2.19,6,2.19,9.25s-.78,6.48-2.17,9.28c-2.98,5.88-8.65,10.18-15.39,11.22-1.04.14-2.1.23-3.16.23Z"/>
      </g>
      <g>
        <path class="cls-1" d="M217.18,127.11c-1.32,0-2.61.12-3.85.32-6.44,1.08-11.95,4.89-15.35,10.15-2.35,3.58-3.69,7.85-3.69,12.42s1.27,8.79,3.67,12.46c.85,1.34,1.87,2.61,3.02,3.76,3.42,3.39,7.68,5.58,12.35,6.37,1.27.21,2.56.32,3.85.32,12.65,0,22.92-10.27,22.92-22.92s-10.27-22.89-22.92-22.89ZM217.2,170.72c-1.08,0-2.12-.09-3.16-.23-6.76-1.04-12.44-5.35-15.37-11.26-1.41-2.77-2.19-5.91-2.19-9.23s.78-6.46,2.19-9.25c2.93-5.88,8.63-10.2,15.37-11.24,1.04-.14,2.08-.23,3.16-.23,11.42.02,20.72,9.3,20.72,20.72s-9.3,20.72-20.72,20.72Z"/>
        <path class="cls-4" d="M217.2,124.89c-1.59,0-3.14.14-4.66.44-6.23,1.15-11.65,4.64-15.35,9.51-3.21,4.22-5.1,9.48-5.1,15.16s1.89,10.94,5.1,15.16c3.69,4.87,9.09,8.33,15.32,9.51,1.52.3,3.09.44,4.68.44,13.85,0,25.11-11.24,25.11-25.11s-11.26-25.11-25.11-25.11ZM217.2,170.72c-1.08,0-2.12-.09-3.16-.23-6.76-1.04-12.44-5.35-15.37-11.26-1.41-2.77-2.19-5.91-2.19-9.23s.78-6.46,2.19-9.25c2.93-5.88,8.63-10.2,15.37-11.24,1.04-.14,2.08-.23,3.16-.23,11.42.02,20.72,9.3,20.72,20.72s-9.3,20.72-20.72,20.72Z"/>
      </g>
      <circle class="cls-1" cx="149.99" cy="150" r="29.06"/>
    </g>
  </g>
</svg>