<?xml version="1.0" standalone="no"?>
<!DOCTYPE svg PUBLIC "-//W3C//DTD SVG 1.1//EN" "http://www.w3.org/Graphics/SVG/1.1/DTD/svg11.dtd" >
<svg xmlns="http://www.w3.org/2000/svg" xmlns:xlink="http://www.w3.org/1999/xlink" version="1.1">
<metadata></metadata>
<defs>
<font id="axiformasemibold" horiz-adv-x="1255" >
<font-face units-per-em="2048" ascent="1581" descent="-467" />
<missing-glyph horiz-adv-x="505" />
<glyph unicode="fb" horiz-adv-x="2250" d="M57 887v225h176v35q0 219 106.5 334.5t297.5 115.5q152 0 285 -71l-68 -209q-96 43 -168 43q-186 0 -186 -201v-47h348v-225h-348v-887h-267v887h-176zM1004 0v1556h266v-587q141 170 354 170q238 0 393 -168q160 -170 160 -416t-160 -416q-158 -166 -395 -166 q-215 0 -356 174v-147h-262zM1260 557.5q0 -141.5 90 -242.5q90 -96 233 -96q141 0 232 96q90 101 90 242t-90 238q-90 98 -232 98q-145 0 -233 -98q-90 -96 -90 -237.5z" />
<glyph unicode="ffj" horiz-adv-x="2244" d="M57 887v225h176v49q0 209 128 322.5t344 113.5q174 0 331 -84l-80 -208q-133 55 -219 55q-111 0 -174 -53.5t-63 -149.5v-45h551v35q0 217 109.5 333.5t301.5 116.5q152 0 285 -71l-78 -209q-92 43 -166 43q-186 0 -186 -201v-47h369v-225h-369v-887h-266v887h-551v-887 h-267v887h-176zM1456 -420l51 213q92 -31 148 -31q92 0 140 58t48 164v1128h266v-1137q0 -217 -110.5 -332.5t-300.5 -115.5q-158 0 -242 53zM1806 1415q0 72 49 119q51 49 123 49t119 -49q49 -47 49 -119t-49 -121q-47 -47 -118.5 -47t-123.5 47q-49 49 -49 121z" />
<glyph unicode="fh" horiz-adv-x="2170" d="M57 887v225h176v35q0 219 108 334.5t298 115.5q150 0 283 -71l-68 -209q-96 43 -168 43q-186 0 -186 -201v-47h348v-225h-348v-887h-267v887h-176zM1004 0v1556h260v-587q49 78 143 125t209 47q178 0 305 -121t127 -342v-678h-266v606q0 137 -65.5 214t-178.5 77 q-119 0 -193.5 -82t-74.5 -213v-602h-266z" />
<glyph unicode="fj" horiz-adv-x="1429" d="M57 887v225h176v35q0 217 110 333.5t302 116.5q152 0 285 -71l-76 -209q-96 43 -168 43q-186 0 -186 -201v-47h366v-225h-366v-887h-267v887h-176zM639 -420l51 213q92 -31 148 -31q92 0 140 58t48 164v1128h266v-1137q0 -217 -110.5 -332.5t-300.5 -115.5 q-158 0 -242 53zM991 1415q0 70 49.5 118t121 48t119.5 -48t48 -118q0 -74 -48 -122t-119.5 -48t-121 48t-49.5 122z" />
<glyph unicode="fk" horiz-adv-x="2043" d="M57 887v225h176v35q0 219 106.5 334.5t297.5 115.5q152 0 285 -71l-68 -209q-96 43 -168 43q-186 0 -186 -201v-47h348v-225h-348v-887h-267v887h-176zM1004 0v1556h266v-841l428 397h340l-502 -459l528 -653h-331l-381 485l-82 -73v-412h-266z" />
<glyph horiz-adv-x="0" />
<glyph horiz-adv-x="682" />
<glyph horiz-adv-x="266" />
<glyph horiz-adv-x="266" />
<glyph unicode="&#xd;" horiz-adv-x="681" />
<glyph unicode=" "  horiz-adv-x="505" />
<glyph unicode="&#x09;" horiz-adv-x="505" />
<glyph unicode="&#xa0;" horiz-adv-x="505" />
<glyph unicode="!" horiz-adv-x="632" d="M162 135q0 66 47 111t115 45q66 0 110.5 -45t44.5 -111q0 -68 -44.5 -114t-110.5 -46q-68 0 -115 46.5t-47 113.5zM180 1538h283l-19 -1130h-249z" />
<glyph unicode="&#x22;" horiz-adv-x="1091" d="M78 885l178 624h311l-233 -624h-256zM571 885l179 624h311l-234 -624h-256z" />
<glyph unicode="#" horiz-adv-x="1507" d="M68 383l43 223h215l65 318h-219l43 223h221l74 366h252l-72 -366h285l72 366h251l-69 -366h211l-43 -223h-211l-60 -318h211l-43 -223h-211l-71 -383h-260l73 383h-284l-76 -383h-262l78 383h-213zM584 606h286l62 318h-287z" />
<glyph unicode="$" horiz-adv-x="1198" d="M59 285l193 176q55 -104 146 -162.5t196 -58.5q98 0 156.5 49t58.5 125q0 102 -137 170l-133 65q-131 63 -185 101q-215 141 -215 362q0 164 102.5 276.5t270.5 141.5v196h233v-198q193 -33 340 -197l-159 -196q-145 145 -303 145q-86 0 -138.5 -43t-52.5 -115 q0 -51 35 -89t111 -83q33 -20 153 -80q123 -59 178 -92q207 -133 207 -348q0 -170 -104.5 -287.5t-278.5 -154.5v-217h-233v209q-297 47 -441 305z" />
<glyph unicode="%" horiz-adv-x="1839" d="M66 1163q0 156 112 267q113 111 277 110q160 0 274 -110q113 -111 113 -267q0 -158 -113 -264q-115 -109 -274 -108q-162 0 -277 108q-113 106 -112 264zM229 0l1106 1513h264l-1107 -1513h-263zM268 1163q0 -80 53.5 -132t133.5 -52q76 0 131 53t55 131t-55.5 132.5 t-130.5 54.5q-80 0 -133.5 -53.5t-53.5 -133.5zM995 348q0 158 113 264q113 111 276 111q160 0 275 -111q115 -109 115 -264q0 -154 -115 -264q-115 -109 -275 -109q-162 0 -276 109q-113 110 -113 264zM1198 348q0 -78 55 -131t131 -53q80 0 132 51q55 53 55 133t-55 133 q-37 43 -94.5 52.5t-107.5 -11t-85 -67.5t-31 -107z" />
<glyph unicode="&#x26;" horiz-adv-x="1437" d="M74 424q0 272 270 434q-88 131 -88 287q0 158 119 274q119 119 303 119q154 0 266 -96q111 -96 111 -236q0 -158 -123 -252q-68 -53 -113 -80q-41 -25 -139 -73l86 -78l278 -246q61 72 154 209l168 -137q-66 -100 -158 -217l222 -197l-148 -164l-223 201 q-213 -193 -473 -192q-223 0 -369 126q-143 129 -143 318zM340 444q0 -104 74.5 -170.5t191.5 -66.5q150 0 285 117l-309 280l-97 88q-145 -109 -145 -248zM485 1141q0 -96 54 -180l86 40q41 20 71 39q45 29 66 47q53 57 53 111q0 57 -43 98t-104 41q-80 0 -131.5 -56 t-51.5 -140z" />
<glyph unicode="'" horiz-adv-x="593" d="M76 885l178 624h311l-233 -624h-256z" />
<glyph unicode="(" horiz-adv-x="843" d="M74 602q0 350 164.5 621.5t478.5 433.5l114 -209q-467 -301 -466 -846q-1 -529 466 -846l-120 -207q-307 160 -472 433.5t-165 619.5z" />
<glyph unicode=")" horiz-adv-x="843" d="M10 1448l115 209q313 -162 478 -433.5t165 -621.5q0 -346 -165 -619.5t-472 -433.5l-119 207q465 317 465 846q0 549 -467 846z" />
<glyph unicode="*" horiz-adv-x="991" d="M72 1225l82 180l249 -123l-8 293h203l-8 -293l252 123l78 -178l-269 -119l189 -217l-152 -129l-190 237l-195 -237l-149 129l188 217z" />
<glyph unicode="+" horiz-adv-x="1159" d="M68 588v250h389v387h250v-387h385v-250h-385v-387l-250 -4v391h-389z" />
<glyph unicode="," horiz-adv-x="526" d="M51 -207l82 66q74 55 109 118h-6q-57 0 -98.5 42t-41.5 102q0 68 48 113t116 45q74 0 123 -52.5t49 -132.5q0 -217 -301 -409z" />
<glyph unicode="-" horiz-adv-x="1081" d="M125 442v250h829v-250h-829z" />
<glyph unicode="." horiz-adv-x="499" d="M90 127q0 66 47 111t115 45q66 0 111 -45t45 -111q0 -68 -45 -114t-111 -46q-68 0 -115 46t-47 114z" />
<glyph unicode="/" horiz-adv-x="1343" d="M37 -252l981 1942h287l-981 -1942h-287z" />
<glyph unicode="0" horiz-adv-x="1404" d="M94 758q0 211 61.5 383t203 285.5t343.5 113.5q123 0 225.5 -43t172 -115.5t118 -173t71 -213t22.5 -237.5t-22.5 -237.5t-71 -213t-118 -173.5t-172 -116t-225.5 -43q-203 0 -344 114t-202.5 286t-61.5 383zM375 758q0 -233 81.5 -376.5t245.5 -143.5q166 0 246 143 q82 143 82 377q0 231 -82 375q-84 145 -245.5 145t-245.5 -145q-82 -143 -82 -375z" />
<glyph unicode="1" horiz-adv-x="839" d="M-2 1143l459 370h209v-1513h-275v1141l-248 -195z" />
<glyph unicode="2" horiz-adv-x="1177" d="M57 1311q229 229 518 229q211 0 351 -129q137 -129 137 -332q0 -212 -264 -495l-307 -328h587v-256h-977v231l473 502q35 35 103 109q102 123 102 227q0 92 -63.5 150.5t-161.5 58.5q-166 0 -346 -168z" />
<glyph unicode="3" horiz-adv-x="1150" d="M31 125l119 225q186 -117 354 -117q121 0 191.5 56.5t70.5 148.5t-69.5 149.5t-182.5 57.5h-192v250h170q111 0 176 54.5t65 140.5t-62.5 137t-160.5 51q-139 0 -309 -121l-135 201q88 84 214 133t261 49q203 0 340 -115q137 -113 137 -280q0 -119 -72 -211t-186 -131v-8 q137 -31 217 -132.5t80 -240.5q0 -195 -152 -322q-149 -125 -389 -125q-254 0 -485 150z" />
<glyph unicode="4" horiz-adv-x="1251" d="M12 537l799 976h195v-919h163v-236h-163v-358h-263v358h-675zM338 594h405v500z" />
<glyph unicode="5" horiz-adv-x="1198" d="M61 145l113 224q190 -135 377 -136q129 0 209 72t80 182q0 106 -77 177t-196 71q-152 0 -258 -106l-166 127l84 757h791v-256h-582l-39 -321q98 43 213 43q219 0 363 -137q147 -137 147 -355q0 -221 -153 -366q-156 -145 -404 -146q-270 0 -502 170z" />
<glyph unicode="6" horiz-adv-x="1288" d="M96 711q0 219 67.5 402t218 305t363.5 122q236 0 410 -131l-119 -211q-127 94 -274 94q-127 0 -217 -75q-168 -139 -183 -420q111 180 357 180q211 0 348 -137q139 -139 139 -348q0 -219 -151.5 -364.5t-384.5 -145.5q-279 0 -426 204q-147 207 -148 525zM410 485.5 q0 -110.5 75.5 -186.5t184.5 -76q111 0 186.5 76t75.5 188q0 111 -74 182.5t-184 71.5q-113 0 -188.5 -72.5t-75.5 -183z" />
<glyph unicode="7" horiz-adv-x="1062" d="M43 1257v256h979v-188l-553 -1325h-295l535 1257h-666z" />
<glyph unicode="8" horiz-adv-x="1296" d="M88 414q0 129 78 235.5t209 153.5v4q-104 49 -163.5 135t-59.5 195q0 176 137 288q139 115 360 115q219 0 359 -115q137 -113 137 -288q0 -109 -60.5 -195t-166.5 -135v-6q133 -45 211.5 -150.5t78.5 -236.5q0 -193 -155.5 -316t-403.5 -123t-405 123q-156 123 -156 316z M367 448.5q0 -98.5 79.5 -163t202.5 -64.5t201 64.5t78 163t-77 161t-202 62.5q-127 0 -204.5 -62.5t-77.5 -161zM410 1108q0 -88 65.5 -144.5t172 -56.5t172 56.5t65.5 144.5t-65.5 145.5t-170 57.5t-172 -57.5t-67.5 -145.5z" />
<glyph unicode="9" horiz-adv-x="1277" d="M82 1028q0 223 149 367q152 145 385 145q274 0 420 -203q145 -205 146 -530q0 -168 -38 -314.5t-114 -264t-200.5 -185.5t-286.5 -68q-244 0 -412 131l105 211q139 -96 292 -96q178 0 275 133q98 133 115 346q-55 -74 -149.5 -115.5t-205.5 -41.5q-209 0 -346 137 q-135 139 -135 348zM352 1034q0 -111 74 -183.5t184.5 -72.5t185 73.5t74.5 184.5q0 113 -75 189q-74 76 -183 75q-111 0 -185.5 -74.5t-74.5 -191.5z" />
<glyph unicode=":" horiz-adv-x="561" d="M121 127q0 66 47 111t115 45q66 0 110.5 -45t44.5 -111q0 -68 -44.5 -114t-110.5 -46q-68 0 -115 46t-47 114zM121 868q0 66 47 111t115 45q66 0 110.5 -45t44.5 -111q0 -68 -44.5 -113.5t-110.5 -45.5q-68 0 -115 46t-47 113z" />
<glyph unicode=";" horiz-adv-x="606" d="M92 -207l82 66q74 55 109 118h-7q-57 0 -98 42t-41 102q0 68 48 113t116 45q74 0 123 -52.5t49 -132.5q0 -217 -301 -409zM147 868.5q0 67.5 48.5 113.5t115.5 46q66 0 113 -46t47 -114q0 -70 -46 -115.5t-113.5 -45.5t-116 47t-48.5 114.5z" />
<glyph unicode="&#x3c;" horiz-adv-x="1148" d="M66 555v229l946 453v-266l-662 -299l662 -299v-273z" />
<glyph unicode="=" horiz-adv-x="1212" d="M133 365v223h946v-223h-946zM133 754v223h946v-223h-946z" />
<glyph unicode="&#x3e;" horiz-adv-x="1112" d="M121 82v272l622 301l-622 295v271l932 -471v-195z" />
<glyph unicode="?" horiz-adv-x="1107" d="M49 1341q199 242 494 242q207 0 344 -125q137 -123 137 -311q0 -178 -145 -309q-18 -18 -85 -75.5t-93.5 -84.5t-55.5 -75t-29 -91v-125h-256v137q0 160 136 283q14 14 64 57t71.5 63.5t53.5 58.5t45 73t13 74q0 86 -63.5 142t-157.5 56q-154 0 -307 -174zM330 133.5 q0 67.5 47 112.5t115 45q66 0 111.5 -45t45.5 -112.5t-45.5 -113t-111.5 -45.5q-68 0 -115 45.5t-47 113z" />
<glyph unicode="@" horiz-adv-x="1982" d="M86 586q0 387 270 657q270 272 658 273q379 0 641 -246q260 -246 260 -588q0 -233 -125 -389q-123 -154 -305 -154q-90 0 -152.5 42t-89.5 114q-106 -156 -311 -156q-176 0 -297 127t-121 318q0 186 121 317q119 131 301 131q179 0 281 -123v92h204v-536q0 -63 27 -98 t70 -35q78 0 137 96q59 100 59 246q0 274 -207 465q-205 188 -495 186q-301 -4 -510 -217q-209 -215 -209 -520q0 -307 219 -527q217 -217 537 -217q305 0 550 191l97 -160q-111 -94 -287 -158q-180 -66 -373 -65q-397 0 -673.5 274.5t-276.5 659.5zM729 586 q0 -109 69.5 -181.5t172.5 -72.5q100 0 172 71q71 77 71 181q0 111 -69 182q-70 76 -172 76q-104 0 -174 -73t-70 -183z" />
<glyph unicode="A" horiz-adv-x="1415" d="M16 0l586 1513h215l580 -1513h-297l-125 344h-537l-125 -344h-297zM520 596h375l-186 518z" />
<glyph unicode="B" horiz-adv-x="1406" d="M174 0v1513h643q203 0 315.5 -112.5t112.5 -263.5q0 -104 -57.5 -189.5t-149.5 -118.5q137 -37 212 -142t75 -247q0 -184 -129 -313q-131 -127 -348 -127h-674zM451 250h344q111 0 176 61.5t65 149.5q0 94 -64.5 155.5t-176.5 61.5h-344v-428zM451 915h311 q94 0 148.5 51.5t54.5 129.5q0 72 -52.5 121t-140.5 49h-321v-351z" />
<glyph unicode="C" horiz-adv-x="1572" d="M86 752q0 344 227 565q229 223 555 223q201 0 376 -86t276 -231l-191 -183q-184 229 -448 230q-213 0 -361 -148q-145 -150 -145 -370q0 -219 143.5 -362.5t360.5 -143.5q279 0 456 229l195 -176q-109 -145 -285 -233.5t-381 -88.5q-332 0 -555 216q-223 217 -223 559z " />
<glyph unicode="D" horiz-adv-x="1570" d="M174 0v1513h584q336 0 528 -204q193 -201 193 -555q0 -348 -197 -551q-193 -203 -537 -203h-571zM453 268h303q203 0 317.5 139.5t114.5 352.5q0 209 -113 346q-115 139 -317 139h-305v-977z" />
<glyph unicode="E" horiz-adv-x="1290" d="M174 0v1513h1006v-262h-725v-356h669v-260h-669v-373h725v-262h-1006z" />
<glyph unicode="F" horiz-adv-x="1220" d="M174 0v1513h989v-266h-710v-364h622v-267h-622v-616h-279z" />
<glyph unicode="G" horiz-adv-x="1658" d="M84 756q0 342 231.5 563t567.5 221q180 0 345 -69.5t269 -184.5l-186 -196q-174 180 -428 180q-217 0 -367 -146q-145 -145 -145 -366q0 -219 143 -365q145 -147 365 -147q121 0 234.5 47t189.5 127v229h-439v246h697v-612q-290 -306 -691 -306q-340 0 -565 220 q-221 221 -221 559z" />
<glyph unicode="H" horiz-adv-x="1572" d="M174 0v1513h281v-612h663v612h281v-1513h-281v631h-663v-631h-281z" />
<glyph unicode="I" horiz-adv-x="628" d="M174 0v1513h281v-1513h-281z" />
<glyph unicode="J" horiz-adv-x="1183" d="M12 164l144 217q129 -137 299 -137q135 0 212.5 85t77.5 232v952h281v-964q0 -285 -156 -428q-155 -146 -397 -146q-279 0 -461 189z" />
<glyph unicode="K" horiz-adv-x="1411" d="M174 0v1513h279v-743l602 743h338l-566 -692l609 -821h-344l-449 616l-190 -231v-385h-279z" />
<glyph unicode="L" horiz-adv-x="1261" d="M174 0v1513h281v-1245h778v-268h-1059z" />
<glyph unicode="M" horiz-adv-x="1912" d="M174 0v1513h176l606 -882l605 882h178v-1513h-279v897l-459 -664h-92l-458 664v-897h-277z" />
<glyph unicode="N" horiz-adv-x="1619" d="M174 0v1513h168l827 -970v970h277v-1513h-182l-813 963v-963h-277z" />
<glyph unicode="O" horiz-adv-x="1740" d="M84 752q0 330 227 559q229 229 559 229t557 -229q229 -229 229 -556q0 -325 -229 -552q-227 -227 -561 -228q-336 0 -559 223.5t-223 553.5zM375 756q0 -219 141 -363q143 -143 354 -143t355 143q141 142 141 357v6q0 217 -145.5 362.5t-350.5 145.5q-207 0 -352 -146 q-143 -143 -143 -362z" />
<glyph unicode="P" horiz-adv-x="1294" d="M174 0v1513h547q258 0 391 -145q131 -143 131 -348q0 -209 -137 -346q-135 -139 -408 -139h-245v-535h-279zM453 791h254q119 0 185 66.5t66 166.5t-62 164.5t-169 64.5h-274v-462z" />
<glyph unicode="Q" horiz-adv-x="1740" d="M84 758q0 326 229 553q229 229 559 229t558 -229q227 -227 227 -553q0 -242 -133 -441q-131 -195 -350 -284q115 -96 264 -96h5q91 0 199 36l37 -231q-121 -45 -260 -45q-332 0 -559 278q-328 6 -551 234q-225 229 -225 549zM371 754q0 -217 145 -363q143 -143 356 -143 q211 0 355 143q145 145 145 362.5t-145 366.5q-145 147 -355 148q-213 0 -356 -148q-145 -149 -145 -366z" />
<glyph unicode="R" horiz-adv-x="1366" d="M174 0v1513h563q246 0 377 -137t131 -336q0 -154 -82 -272.5t-235 -167.5l381 -600h-332l-338 567h-186v-567h-279zM453 819h254q123 0 187 61.5t64 157.5q0 94 -59.5 154.5t-161.5 60.5h-284v-434z" />
<glyph unicode="S" horiz-adv-x="1220" d="M43 264l168 193q145 -219 393 -219q102 0 167 50t65 126q0 102 -142 172q-35 16 -149 61q-115 47 -178 84q-238 139 -238 373q0 186 139 309q137 125 363 125q295 0 485 -209l-155 -201q-61 70 -150.5 109t-175.5 39q-92 0 -148.5 -44t-56.5 -116q0 -96 125 -160l160 -73 q96 -39 180 -82q250 -127 250 -371q0 -201 -151.5 -328t-391.5 -127q-174 0 -321.5 75t-237.5 214z" />
<glyph unicode="T" horiz-adv-x="1212" d="M29 1243v270h1155v-270h-436v-1243h-283v1243h-436z" />
<glyph unicode="U" horiz-adv-x="1474" d="M158 543v970h280v-946q0 -156 79 -238.5t220 -82.5q139 0 219 84t80 237v946h283v-970q0 -276 -164 -424q-164 -146 -418 -146q-252 0 -415 146q-164 147 -164 424z" />
<glyph unicode="V" horiz-adv-x="1497" d="M10 1513h322l420 -1073l415 1073h316l-627 -1513h-213z" />
<glyph unicode="W" horiz-adv-x="2164" d="M14 1513h305l320 -1038l356 1038h170l365 -1038l313 1038h305l-503 -1513h-222l-342 1024l-338 -1024h-223z" />
<glyph unicode="X" horiz-adv-x="1349" d="M10 0l490 766l-459 747h324l311 -536l323 536h330l-481 -747l481 -766h-325l-330 547l-332 -547h-332z" />
<glyph unicode="Y" horiz-adv-x="1372" d="M27 1513h323l334 -688l342 688h322l-523 -983v-530h-280v530z" />
<glyph unicode="Z" horiz-adv-x="1316" d="M70 0v195l766 1058h-736v260h1121v-202l-754 -1051h776v-260h-1173z" />
<glyph unicode="[" horiz-adv-x="815" d="M162 -465v2126h614v-234h-342v-1658h342v-234h-614z" />
<glyph unicode="\" horiz-adv-x="1327" d="M39 1690h287l964 -1942h-284z" />
<glyph unicode="]" horiz-adv-x="815" d="M39 -231h342v1658h-342v234h614v-2126h-614v234z" />
<glyph unicode="^" horiz-adv-x="1099" d="M74 883l389 669h176l387 -669h-262l-213 395l-213 -395h-264z" />
<glyph unicode="_" horiz-adv-x="1206" d="M0 -135h1206v-246h-1206v246z" />
<glyph unicode="`" horiz-adv-x="815" d="M82 1626h303l125 -356h-236z" />
<glyph unicode="a" horiz-adv-x="1380" d="M76 561q0 252 155 414q158 164 396 164q212 0 362 -168v141h254v-1112h-254v137q-145 -164 -362 -164q-240 0 -395.5 168t-155.5 420zM342 557q0 -141 90 -242q92 -98 235.5 -98t235.5 98.5t92 241.5q0 141 -92 239.5t-235.5 98.5t-235.5 -98q-90 -100 -90 -240z" />
<glyph unicode="b" horiz-adv-x="1384" d="M135 0v1556h266v-587q142 170 355 170q238 0 393 -168q160 -168 160 -416q0 -246 -160 -416q-158 -166 -395 -166q-215 0 -357 174v-147h-262zM391 557.5q0 -141.5 90 -242.5q90 -96 234 -96q141 0 231 96q90 101 90 242t-90 238q-90 98 -231 98q-145 0 -234 -98 q-90 -96 -90 -237.5z" />
<glyph unicode="c" horiz-adv-x="1232" d="M76 557q0 254 166 418q168 164 430 164q172 0 310 -81t206 -224l-217 -117q-106 176 -295 176q-143 0 -240 -96q-94 -94 -94 -240q0 -143 92 -240q92 -96 234 -96q92 0 175 48t124 126l217 -127q-74 -135 -212 -214t-308 -79q-256 0 -424 164q-164 164 -164 418z" />
<glyph unicode="d" horiz-adv-x="1380" d="M233 971q160 168 394 168q213 0 350 -168v585h266v-1556h-260v145q-139 -172 -354 -172q-240 0 -396 166q-157 169 -157 415q0 247 157 417zM342 557q0 -141 90 -242q89 -98 234 -98t235 98q90 100 90 241.5t-92 240.5q-88 98 -233.5 98t-233.5 -98q-90 -100 -90 -240z " />
<glyph unicode="e" horiz-adv-x="1275" d="M76 557q0 254 160 416q162 166 417 166q240 0 396 -152q155 -149 155 -407q0 -53 -8 -119h-848q27 -119 114 -187.5t226 -68.5q203 0 367 114l106 -190q-207 -154 -483 -154q-152 0 -269.5 49.5t-189.5 132.5t-107.5 184t-35.5 216zM348 664h594q-16 117 -95 184t-194 67 q-117 0 -197.5 -67.5t-107.5 -183.5z" />
<glyph unicode="f" horiz-adv-x="868" d="M57 887v225h176v51q0 207 120 321.5t323 114.5q154 0 299 -75l-84 -209q-102 45 -178 45q-102 0 -157.5 -52.5t-55.5 -150.5v-45h348v-225h-348v-887h-267v887h-176z" />
<glyph unicode="g" horiz-adv-x="1378" d="M76 567q0 250 162 410q162 162 403 162q213 0 352 -160v133h250v-1001q0 -266 -170 -424t-442 -158q-283 0 -506 160l108 202q186 -131 392 -131q168 0 264 89.5t96 234.5v66q-135 -152 -354 -152q-244 0 -399.5 162t-155.5 407zM344 565q0 -143 92 -239q93 -95 234 -95 q139 0 231 95q92 96 92 239t-92 236q-92 94 -231 94q-141 0 -234 -94q-92 -92 -92 -236z" />
<glyph unicode="h" horiz-adv-x="1302" d="M135 0v1556h260v-587q49 78 143.5 125t209.5 47q178 0 305 -121t127 -342v-678h-267v606q0 137 -65.5 214t-177.5 77q-119 0 -194 -82t-75 -213v-602h-266z" />
<glyph unicode="i" horiz-adv-x="538" d="M104 1413q0 72 50.5 120t122 48t119.5 -48t48 -120q0 -74 -48 -121t-120 -47q-74 0 -123 47t-49 121zM139 0v1112h269v-1112h-269z" />
<glyph unicode="j" horiz-adv-x="587" d="M-201 -420l51 213q92 -31 148 -31q186 0 186 222v1128h269v-1137q0 -217 -111 -332.5t-301 -115.5q-158 0 -242 53zM147 1413q0 72 50.5 120t122 48t119.5 -48t48 -120q0 -74 -48 -121t-120 -47q-74 0 -123 47t-49 121z" />
<glyph unicode="k" horiz-adv-x="1175" d="M135 0v1556h266v-841l428 397h340l-501 -459l528 -653h-332l-381 485l-82 -73v-412h-266z" />
<glyph unicode="l" horiz-adv-x="538" d="M135 0v1556h266v-1556h-266z" />
<glyph unicode="m" horiz-adv-x="2039" d="M135 0v1112h262v-160q47 88 138.5 139.5t199.5 51.5q113 -2 201 -53.5t131 -145.5q59 94 165.5 146.5t233.5 52.5q197 0 324 -127t127 -346v-670h-268v621q0 133 -62.5 204.5t-169.5 71.5q-113 0 -184.5 -78t-71.5 -207v-612h-266v618q0 129 -64.5 204t-171.5 75 q-113 0 -185.5 -79t-72.5 -208v-610h-266z" />
<glyph unicode="n" horiz-adv-x="1304" d="M135 0v1112h262v-156q45 86 137.5 135.5t213.5 49.5q182 0 309 -121t127 -342v-678h-269v604q0 137 -65.5 215t-177.5 78q-119 0 -195 -83t-76 -214v-600h-266z" />
<glyph unicode="o" horiz-adv-x="1335" d="M74 557q0 246 166 414q170 170 428 170q260 0 426 -170q168 -168 168 -414q0 -250 -168 -418q-166 -168 -426 -168t-428 168q-166 168 -166 418zM342 557q0 -143 94 -240q96 -98 231.5 -98t231.5 98q94 97 94 240q0 141 -94 238q-96 98 -231.5 98t-231.5 -98 q-94 -96 -94 -238z" />
<glyph unicode="p" horiz-adv-x="1388" d="M135 -457v1569h266v-147q144 174 363 174q236 0 393 -170q156 -168 156 -412q0 -246 -158 -416q-156 -168 -393 -168q-213 0 -359 166v-596h-268zM397 555q0 -141 90 -242q90 -96 233.5 -96t233.5 96q90 100 90 242q0 143 -90 240q-90 98 -233 98t-234 -98 q-90 -101 -90 -240z" />
<glyph unicode="q" horiz-adv-x="1388" d="M76 557q0 244 155 412q158 170 394 170q215 0 362 -172v145h266v-1569h-268v596q-145 -166 -360 -166q-238 0 -393.5 168t-155.5 416zM346 555q0 -141 90 -242q90 -96 233.5 -96t233.5 96q90 101 90 242q0 139 -90 240q-88 98 -233.5 98t-233.5 -98q-90 -100 -90 -240z " />
<glyph unicode="r" horiz-adv-x="845" d="M135 0v1112h256v-154q102 182 309 183q70 0 134 -23l-23 -256q-72 23 -129 23q-129 0 -205 -87t-76 -255v-543h-266z" />
<glyph unicode="s" horiz-adv-x="995" d="M45 193l152 163q55 -74 136 -115.5t163 -41.5q72 0 117.5 33.5t45.5 82.5q0 66 -84 107q-27 16 -135 55q-96 37 -141 60q-186 92 -186 282q0 145 110.5 237.5t292.5 92.5q236 0 381 -164l-139 -170q-109 115 -250 115q-61 0 -98 -30t-37 -75q0 -74 96 -108 q244 -96 268 -111q188 -102 189 -282q0 -152 -118.5 -252.5t-313.5 -100.5q-289 0 -449 222z" />
<glyph unicode="t" horiz-adv-x="927" d="M35 887v225h188v393h264v-393h373v-225h-373v-469q0 -201 162 -201q95 0 189 57l84 -208q-131 -92 -322 -93q-381 0 -381 435v479h-184z" />
<glyph unicode="u" horiz-adv-x="1247" d="M121 465v647h268v-647q0 -113 62.5 -180.5t171.5 -67.5q111 0 173 67.5t62 180.5v647h268v-647q0 -231 -133.5 -361.5t-369.5 -130.5q-233 0 -367.5 130t-134.5 362z" />
<glyph unicode="v" horiz-adv-x="1204" d="M18 1112h295l293 -745l289 745h293l-486 -1110h-200z" />
<glyph unicode="w" horiz-adv-x="1777" d="M18 1112h279l233 -754l265 754h186l270 -754l228 754h278l-373 -1110h-231l-264 727l-260 -727h-232z" />
<glyph unicode="x" horiz-adv-x="1110" d="M10 0l373 569l-334 543h307l203 -352l215 352h303l-352 -551l362 -561h-307l-227 377l-234 -377h-309z" />
<glyph unicode="y" horiz-adv-x="1204" d="M18 1112h310l301 -752l264 752h291l-451 -1184q-82 -207 -189.5 -304t-262.5 -97q-127 0 -205 53l43 225q76 -36 138 -36h3q135 0 217 180l27 61z" />
<glyph unicode="z" horiz-adv-x="1087" d="M66 0v180l575 707h-547v223h903v-176l-567 -711h588v-223h-952z" />
<glyph unicode="{" horiz-adv-x="817" d="M41 492v204q109 20 162 49q74 45 73 154q0 63 -8 184q-8 123 -8 209q0 369 383 369h117v-248h-62q-170 0 -170 -168q0 -43 10.5 -196.5t10.5 -190.5q0 -94 -59.5 -164.5t-149.5 -97.5v-6q90 -29 149.5 -97.5t59.5 -162.5q0 -39 -10 -193q-10 -150 -11 -192 q0 -170 170 -170h62v-248h-129q-371 0 -371 379q0 82 8 198.5t8 184.5q0 98 -55 141t-180 62z" />
<glyph unicode="|" horiz-adv-x="581" d="M162 -367v2102h260v-2102h-260z" />
<glyph unicode="}" horiz-adv-x="817" d="M57 -225h62q170 0 170 170q0 43 -10 192q-10 154 -11 193q0 94 59.5 162.5t149.5 97.5v6q-90 27 -149.5 97.5t-59.5 164.5q0 37 10.5 190.5t10.5 196.5q0 168 -170 168h-62v248h117q383 0 383 -369q0 -86 -8 -209q-8 -121 -8 -184q0 -109 71 -154q55 -29 164 -49v-204 q-125 -18 -180 -61.5t-55 -141.5q0 -68 8 -184.5t8 -198.5q0 -379 -371 -379h-129v248z" />
<glyph unicode="~" horiz-adv-x="1417" d="M106 621q127 231 383 231q111 0 252 -68q143 -66 198.5 -65.5t98.5 30t103 107.5l176 -137q-141 -236 -391 -236q-111 0 -254 66q-139 68 -194.5 67.5t-98.5 -28t-103 -101.5z" />
<glyph unicode="&#xa2;" horiz-adv-x="1263" d="M84 557.5q0 233.5 139 390.5q143 160 371 187v159h158v-159q150 -16 267.5 -95t176.5 -206l-217 -117q-84 139 -227 170v-658q156 37 223 166l217 -127q-63 -117 -179 -193.5t-261 -94.5v-160h-158v160q-227 29 -369 184q-141 160 -141 393.5zM350 557q0 -121 67.5 -210 t176.5 -116v650q-111 -29 -177.5 -117t-66.5 -207z" />
<glyph unicode="&#xa3;" horiz-adv-x="1196" d="M102 653v213h121q-45 133 -45 228q0 193 141.5 317.5t342.5 128.5q141 2 263 -63.5t189 -176.5l-186 -163q-39 63 -104.5 102t-135.5 39q-100 0 -164.5 -64.5t-64.5 -162.5q0 -68 41 -185h473v-213h-414q4 -65 4 -75q-2 -180 -143 -322h688v-256h-997v219 q84 72 132 173.5t48 199.5q0 31 -6 61h-183z" />
<glyph unicode="&#xa5;" horiz-adv-x="1392" d="M59 1513h312l325 -673l330 673h309l-368 -702h215v-205h-324l-22 -45v-53h346v-205h-346v-303h-281v303h-350v205h350v57l-20 41h-330v205h221z" />
<glyph unicode="&#xa8;" horiz-adv-x="1036" d="M94 1444q0 68 48 115t118 47t117 -47.5t47 -114.5q0 -72 -47 -119t-117 -47t-118 47t-48 119zM530 1444q0 68 48.5 115t118 47t116.5 -47.5t47 -114.5q0 -72 -47 -119t-117 -47q-72 0 -119 47t-47 119z" />
<glyph unicode="&#xa9;" horiz-adv-x="1744" d="M84 756q0 322 231.5 553t557 231t557 -231.5t231.5 -552.5q0 -319 -231 -551q-229 -229 -557 -229.5t-558 229.5q-231 232 -231 551zM250 756q0 -254 182 -437q182 -178 440 -182q260 4 439 182q184 180 184 437q0 258 -184 438q-182 182 -439 182q-254 0 -440 -182 q-182 -182 -182 -438zM457 756q0 182 118 301q121 121 304 121q227 0 342 -183l-136 -90q-86 102 -204 103q-106 0 -175 -71t-69 -181.5t68.5 -181t175.5 -70.5q131 0 206 100l132 -102q-119 -168 -340 -168q-180 0 -301 120.5t-121 301.5z" />
<glyph unicode="&#xaa;" horiz-adv-x="837" d="M84 1010q0 102 79 157.5t218 55.5q57 0 176 -11q-6 68 -51 106t-123 38q-111 0 -205 -53l-55 129q114 75 276 75q143 0 230.5 -84t87.5 -241v-381h-154v71q-80 -90 -225 -90q-117 0 -185.5 64.5t-68.5 163.5zM250 1016q0 -39 31 -62.5t86 -23.5q84 0 133 44t57 124 q-90 6 -164 6q-143 -2 -143 -88z" />
<glyph unicode="&#xab;" horiz-adv-x="1167" d="M72 596l280 416h277l-289 -416l289 -416h-277zM512 596l281 416h276l-287 -416l287 -416h-278z" />
<glyph unicode="&#xad;" horiz-adv-x="1081" d="M125 442v250h829v-250h-829z" />
<glyph unicode="&#xae;" horiz-adv-x="1202" d="M84 1071q0 211 152 363q156 152 366 151q213 0 364.5 -151.5t151.5 -362.5q0 -213 -151 -364q-150 -150 -365 -150t-366 150q-152 152 -152 364zM211 1071.5q0 -163.5 113 -278.5q113 -117 278 -117q164 0 277 117q115 119 114.5 278.5t-114.5 278.5q-113 117 -277 116 q-164 0 -278 -116q-113 -115 -113 -278.5zM416 829v494h219q74 0 122 -46t48 -120q0 -100 -92 -147l104 -181h-127l-90 164h-70v-164h-114zM530 1087h76q82 0 82 72q0 70 -82 70h-76v-142z" />
<glyph unicode="&#xb2;" horiz-adv-x="708" d="M53 1735q133 133 295 133q88 2 156.5 -41t100.5 -110.5t10.5 -159t-103.5 -175.5l-180 -184h299v-160h-555v146l266 268q98 100 98 162q0 41 -28.5 66.5t-73.5 25.5q-84 0 -197 -104z" />
<glyph unicode="&#xb3;" horiz-adv-x="681" d="M25 1106l73 141q115 -59 195 -59q61 0 97 25.5t36 68.5t-37 68.5t-96 25.5h-109v154h99q51 0 88 23.5t37 64.5q0 39 -32 62.5t-79 23.5q-76 0 -166 -59l-86 127q109 96 272 96q119 0 195 -64q80 -61 80 -151q0 -66 -40 -114t-108 -69v-4q80 -18 124 -71.5t44 -126.5 q0 -106 -86 -174t-225 -68q-137 0 -276 80z" />
<glyph unicode="&#xb4;" horiz-adv-x="851" d="M82 1270l127 356h301l-191 -356h-237z" />
<glyph unicode="&#xb8;" horiz-adv-x="692" d="M82 -479l61 157q92 -41 166 -40q51 0 80 21.5t29 55.5q0 72 -111 72h-112l-17 53l80 201l199 -4l-56 -135q94 -2 158 -56.5t64 -144.5q0 -102 -78 -172t-213 -70q-117 0 -250 62z" />
<glyph unicode="&#xb9;" horiz-adv-x="561" d="M25 1622l288 223h136v-807h-183v555l-147 -112z" />
<glyph unicode="&#xba;" horiz-adv-x="882" d="M74 1141q0 158 104 258q109 104 262 104q158 0 262 -104q106 -100 107 -258q0 -154 -107 -258q-106 -103 -262 -103q-154 0 -262 103q-104 104 -104 258zM242 1141q0 -86 57 -142.5t141 -56.5q88 0 144.5 57.5t56.5 141.5q0 86 -57.5 144t-143.5 58q-84 0 -141 -58 t-57 -144z" />
<glyph unicode="&#xbb;" horiz-adv-x="1167" d="M98 180l287 416l-287 416h277l280 -416l-278 -416h-279zM539 180l288 416l-288 416h276l281 -416l-281 -416h-276z" />
<glyph unicode="&#xc2;" horiz-adv-x="1415" d="M16 0l586 1513h215l580 -1513h-297l-125 344h-537l-125 -344h-297zM301 1626l307 365h205l309 -365h-274l-139 184l-142 -184h-266zM520 596h375l-186 518z" />
<glyph unicode="&#xc7;" horiz-adv-x="1570" d="M86 752q0 344 227 565q229 223 555 223q201 0 376 -86t276 -231l-191 -183q-184 229 -448 230q-213 0 -361 -148q-145 -150 -145 -370q0 -219 143.5 -362.5t360.5 -143.5q278 0 456 229l195 -176q-98 -131 -250 -215t-332 -102l-33 -80q94 -2 158 -56.5t64 -144.5 q0 -102 -78 -172t-213 -70q-117 0 -250 62l61 157q92 -41 166 -40q51 0 80 21.5t29 55.5q0 72 -111 72h-112l-17 53l58 146q-291 37 -478 245q-186 211 -186 521z" />
<glyph unicode="&#xce;" horiz-adv-x="628" d="M-92 1630l307 365h205l309 -365h-274l-140 185l-141 -185h-266zM178 0v1513h281v-1513h-281z" />
<glyph unicode="&#xd6;" horiz-adv-x="1740" d="M84 752q0 330 227 559q229 229 559 229t557 -229q229 -229 229.5 -555t-229.5 -553q-227 -227 -561 -228q-336 0 -559 223.5t-223 553.5zM375 756q0 -219 141 -363q143 -143 354 -143t355 143q143 144 141 363q0 217 -145.5 362.5t-350.5 145.5q-207 0 -352 -146 q-143 -143 -143 -362zM508 1796q0 66 46 111t114 45q66 0 111.5 -45t45.5 -111q0 -68 -45.5 -114t-111.5 -46q-68 0 -114 45t-46 115zM928 1796q0 63 47 109.5t112 46.5q68 0 113 -45t45 -111q0 -70 -45 -115t-112.5 -45t-113.5 45t-46 115z" />
<glyph unicode="&#xdb;" horiz-adv-x="1474" d="M158 543v970h280v-946q0 -156 79 -238.5t220 -82.5q139 0 219 84t80 237v946h283v-970q0 -276 -164 -424q-164 -146 -418 -146q-252 0 -415 146q-164 147 -164 424zM330 1626l307 365h205l309 -365h-274l-140 184l-141 -184h-266z" />
<glyph unicode="&#xdc;" horiz-adv-x="1474" d="M158 543v970h280v-946q0 -156 79 -238.5t220 -82.5q139 0 219 84t80 237v946h283v-970q0 -276 -164 -424q-164 -146 -418 -146q-252 0 -415 146q-164 147 -164 424zM367 1796q0 66 46 111t113 45q66 0 112 -45t46 -111q0 -68 -45 -114t-112.5 -46t-113.5 45t-46 115z M786 1796q0 63 47.5 109.5t112.5 46.5q68 0 113 -45t45 -111q0 -70 -45 -115t-112.5 -45t-114 45t-46.5 115z" />
<glyph unicode="&#xe2;" horiz-adv-x="1382" d="M76 561q0 252 155 414q158 164 396 164q212 0 362 -168v141h254v-1112h-254v137q-145 -164 -362 -164q-240 0 -395.5 168t-155.5 420zM291 1280l299 354h198l299 -354h-266l-135 178l-137 -178h-258zM342 557q0 -141 90 -242q92 -98 235.5 -98t235.5 98.5t92 241.5 q0 141 -92 239.5t-235.5 98.5t-235.5 -98q-90 -100 -90 -240z" />
<glyph unicode="&#xe7;" horiz-adv-x="1232" d="M76 557q0 254 166 418q168 164 430 164q172 0 310 -81t206 -224l-217 -117q-106 176 -295 176q-143 0 -240 -96q-94 -94 -94 -240q0 -143 92 -240q93 -96 234 -96q92 0 175 48t124 126l217 -127q-63 -119 -182 -195.5t-267 -92.5l-30 -78q94 -2 157.5 -56.5t63.5 -144.5 q0 -102 -78 -172t-213 -70q-119 0 -250 62l61 157q92 -41 166 -40q51 0 80 21.5t29 55.5q0 72 -111 72h-112l-17 53l58 146q-213 41 -336 194q-127 158 -127 377z" />
<glyph unicode="&#xee;" horiz-adv-x="538" d="M-125 1280l299 354h199l299 -354h-266l-136 178l-137 -178h-258zM139 0v1112h269v-1112h-269z" />
<glyph unicode="&#xf6;" horiz-adv-x="1335" d="M74 557q0 246 166 414q170 170 428 170q260 0 426 -170q168 -168 168 -414q0 -250 -168 -418q-166 -168 -426 -168t-428 168q-166 168 -166 418zM287 1427q0 68 48 115t117.5 47t116.5 -47t47 -115q0 -72 -47 -118.5t-116.5 -46.5t-117.5 46.5t-48 118.5zM342 557 q0 -143 94 -240q96 -98 231.5 -98t231.5 98q94 97 94 240q0 141 -94 238q-96 98 -231.5 98t-231.5 -98q-94 -96 -94 -238zM723 1427q0 68 48 115t117.5 47t117 -47t47.5 -115q0 -72 -47 -118.5t-117 -46.5q-72 0 -119 47t-47 118z" />
<glyph unicode="&#xfb;" horiz-adv-x="1247" d="M121 465v647h268v-647q0 -113 62.5 -180.5t171.5 -67.5q111 0 173 67.5t62 180.5v647h268v-647q0 -231 -133.5 -361.5t-369.5 -130.5q-233 0 -367.5 130t-134.5 362zM229 1282l299 354h199l299 -354h-266l-135 178l-138 -178h-258z" />
<glyph unicode="&#xfc;" horiz-adv-x="1247" d="M121 465v647h268v-647q0 -113 62.5 -180.5t171.5 -67.5q111 0 173 67.5t62 180.5v647h268v-647q0 -231 -133.5 -361.5t-369.5 -130.5q-233 0 -367.5 130t-134.5 362zM242 1425q0 68 48 115t117.5 47t116.5 -47t47 -115q0 -72 -47 -118.5t-116.5 -46.5t-117.5 46.5 t-48 118.5zM678 1425q0 68 48 115t117.5 47t117 -47t47.5 -115q0 -72 -47 -118.5t-117 -46.5q-72 0 -119 47t-47 118z" />
<glyph unicode="&#x11e;" horiz-adv-x="1658" d="M84 756q0 342 231.5 563t567.5 221q180 0 345 -69.5t269 -184.5l-186 -196q-174 180 -428 180q-217 0 -367 -146q-145 -145 -145 -366q0 -219 143 -365q145 -147 365 -147q121 0 234.5 47t189.5 127v229h-439v246h697v-612q-290 -306 -691 -306q-340 0 -565 220 q-221 221 -221 559zM485 1991h222q4 -88 48 -137.5t121.5 -49.5t121.5 50.5t46 136.5h224q-8 -176 -113.5 -276.5t-277.5 -100.5t-278 100.5t-114 276.5z" />
<glyph unicode="&#x11f;" horiz-adv-x="1378" d="M76 567q0 250 162 410q162 162 403 162q213 0 352 -160v133h250v-1001q0 -266 -170 -424t-442 -158q-283 0 -506 160l108 202q186 -131 392 -131q168 0 264 89.5t96 234.5v66q-135 -152 -354 -152q-244 0 -399.5 162t-155.5 407zM276 1638h216q4 -86 47 -134t116 -48 q76 0 119 49t45 133h217q-8 -170 -110.5 -268t-270.5 -98q-166 0 -268.5 98t-110.5 268zM344 565q0 -143 92 -239q93 -95 234 -95q139 0 231 95q92 96 92 239t-92 236q-92 94 -231 94q-141 0 -234 -94q-92 -92 -92 -236z" />
<glyph unicode="&#x130;" horiz-adv-x="628" d="M147 1792q0 72 50.5 120t122 48t119.5 -48t48 -120q0 -74 -48 -121t-120 -47q-74 0 -123 47t-49 121zM178 0v1513h281v-1513h-281z" />
<glyph unicode="&#x131;" horiz-adv-x="538" d="M135 0v1112h268v-1112h-268z" />
<glyph unicode="&#x15e;" horiz-adv-x="1206" d="M43 264l168 193q145 -219 393 -219q102 0 167 50t65 126q0 102 -142 172q-35 16 -149 61q-115 47 -178 84q-238 139 -238 373q0 186 139 309q137 125 363 125q295 0 485 -209l-155 -201q-61 70 -150.5 109t-175.5 39q-92 0 -148.5 -44t-56.5 -116q0 -96 125 -160l160 -73 q96 -39 180 -82q250 -127 250 -371q0 -178 -127 -305q-127 -125 -332 -145l-33 -78q94 -2 157.5 -56.5t63.5 -144.5q0 -102 -77.5 -172t-212.5 -70q-117 0 -250 62l61 157q92 -41 166 -40q51 0 80 21.5t29 55.5q0 72 -111 72h-113l-16 53l57 144q-293 47 -444 280z" />
<glyph unicode="&#x15f;" horiz-adv-x="985" d="M45 193l152 163q55 -74 136 -115.5t163 -41.5q72 0 117.5 33.5t45.5 82.5q0 66 -84 107q-27 16 -135 55q-96 37 -141 60q-186 92 -186 282q0 145 110.5 237.5t292.5 92.5q236 0 381 -164l-139 -170q-109 115 -250 115q-61 0 -98 -30t-37 -75q0 -74 96 -108 q244 -96 268 -111q189 -102 189 -282q0 -139 -103 -238q-100 -96 -272 -113l-29 -69q94 -2 157.5 -56.5t63.5 -144.5q0 -102 -77.5 -172t-212.5 -70q-119 0 -250 62l61 158q92 -41 166 -41q51 0 80 21.5t29 55.5q0 72 -111 72h-113l-16 53l57 146q-199 43 -311 205z" />
<glyph unicode="&#x218;" horiz-adv-x="1206" d="M43 264l168 193q145 -219 393 -219q102 0 167 50t65 126q0 102 -142 172q-35 16 -149 61q-115 47 -178 84q-238 139 -238 373q0 186 139 309q137 125 363 125q295 0 485 -209l-155 -201q-61 70 -150.5 109t-175.5 39q-92 0 -148.5 -44t-56.5 -116q0 -96 125 -160l160 -73 q96 -39 180 -82q250 -127 250 -371q0 -201 -151.5 -328t-391.5 -127q-174 0 -321.5 75t-237.5 214zM389 -524q117 86 166 139q-49 8 -84 50t-35 93q0 63 49.5 110.5t116.5 47.5q70 0 120 -51t50 -129q0 -180 -293 -379z" />
<glyph unicode="&#x219;" horiz-adv-x="985" d="M45 193l152 163q55 -74 136 -115.5t163 -41.5q72 0 117.5 33.5t45.5 82.5q0 66 -84 107q-27 16 -135 55q-96 37 -141 60q-186 92 -186 282q0 145 110.5 237.5t292.5 92.5q236 0 381 -164l-139 -170q-109 115 -250 115q-61 0 -98 -30t-37 -75q0 -74 96 -108 q243 -97 268 -111q188 -102 189 -282q0 -152 -119 -252.5t-313 -100.5q-289 0 -449 222zM287 -530q123 92 162 137q-49 10 -82 50t-33 91q0 61 47 107.5t115 46.5q70 0 119 -51.5t49 -124.5q0 -176 -287 -373z" />
<glyph unicode="&#x2c6;" horiz-adv-x="1155" d="M80 1274l299 354h199l299 -354h-267l-135 178l-137 -178h-258z" />
<glyph unicode="&#x2da;" horiz-adv-x="780" d="M82 1474.5q0 106.5 76 180.5q76 76 188 76q111 0 186 -76q78 -74 78 -180.5t-78 -180.5q-76 -74 -186 -73q-113 0 -188.5 73.5t-75.5 180zM238 1479q0 -47 31.5 -78t76.5 -31q43 0 75 31t32 78q0 43 -32 73.5t-75 30.5q-45 0 -76.5 -30.5t-31.5 -73.5z" />
<glyph unicode="&#x2dc;" horiz-adv-x="1126" d="M82 1380q92 225 283 226q66 0 153 -45q90 -43 125 -43q66 0 119 96l168 -80q-80 -225 -268 -225q-63 0 -151.5 45t-129.5 45q-74 -1 -129 -101z" />
<glyph unicode="&#x2000;" horiz-adv-x="1058" />
<glyph unicode="&#x2001;" horiz-adv-x="2116" />
<glyph unicode="&#x2002;" horiz-adv-x="1058" />
<glyph unicode="&#x2003;" horiz-adv-x="2116" />
<glyph unicode="&#x2004;" horiz-adv-x="705" />
<glyph unicode="&#x2005;" horiz-adv-x="529" />
<glyph unicode="&#x2006;" horiz-adv-x="352" />
<glyph unicode="&#x2007;" horiz-adv-x="352" />
<glyph unicode="&#x2008;" horiz-adv-x="264" />
<glyph unicode="&#x2009;" horiz-adv-x="159" />
<glyph unicode="&#x200a;" horiz-adv-x="117" />
<glyph unicode="&#x2010;" horiz-adv-x="1081" d="M125 442v250h829v-250h-829z" />
<glyph unicode="&#x2011;" horiz-adv-x="1081" d="M125 442v250h829v-250h-829z" />
<glyph unicode="&#x2012;" horiz-adv-x="1081" d="M125 442v250h829v-250h-829z" />
<glyph unicode="&#x2013;" horiz-adv-x="1472" d="M125 442v250h1223v-250h-1223z" />
<glyph unicode="&#x2014;" horiz-adv-x="2125" d="M125 442v250h1876v-250h-1876z" />
<glyph unicode="&#x2018;" horiz-adv-x="507" d="M72 1249q0 203 290 389l78 -108q-145 -109 -178 -166h4q55 0 96 -43t41 -100q0 -63 -48 -108.5t-113 -45.5q-74 0 -122 51t-48 131z" />
<glyph unicode="&#x2019;" horiz-adv-x="503" d="M78 1167q141 102 176 164h-2q-57 0 -97 42t-40 102q0 66 46.5 110.5t114.5 44.5q72 0 120 -52t48 -130q0 -205 -290 -391z" />
<glyph unicode="&#x201a;" horiz-adv-x="520" d="M59 -182q141 102 177 164h-3q-57 0 -97 42t-40 101q0 66 47 111t115 45q72 0 120 -52.5t48 -130.5q0 -205 -291 -391z" />
<glyph unicode="&#x201c;" horiz-adv-x="1017" d="M78 1249q0 203 291 389l77 -108q-143 -109 -178 -166h4q55 0 96.5 -43t41.5 -100q0 -63 -48.5 -108.5t-113.5 -45.5q-74 0 -122 51t-48 131zM584 1249q0 203 290 389l78 -108q-145 -109 -178 -166h4q55 0 96 -43t41 -100q0 -63 -48 -108.5t-113 -45.5q-74 0 -122 51 t-48 131z" />
<glyph unicode="&#x201d;" horiz-adv-x="1003" d="M72 1174q145 109 178 165h-4q-55 0 -96 43t-41 101q0 63 47.5 108t113.5 45q74 0 122 -51t48 -131q0 -203 -290 -389zM575 1174q145 109 179 165h-4q-55 0 -96.5 43t-41.5 101q0 63 48 108t114 45q74 0 122 -51t48 -131q0 -203 -291 -389z" />
<glyph unicode="&#x201e;" horiz-adv-x="1017" d="M51 -186q145 109 178 166h-4q-55 0 -96 43t-41 100q0 63 48 108t114 45q74 0 122 -51t48 -131q0 -203 -291 -389zM555 -186q145 109 178 166h-4q-55 0 -96 43t-41 100q0 63 48 108t114 45q74 0 122 -51t48 -131q0 -203 -291 -389z" />
<glyph unicode="&#x2026;" horiz-adv-x="1501" d="M88 127q0 66 47 111t115 45q66 0 111 -45t45 -111q0 -68 -45 -114t-111 -46q-68 0 -115 46t-47 114zM590 127q0 66 47 111t115 45q66 0 110.5 -45t44.5 -111q0 -68 -44.5 -114t-110.5 -46q-68 0 -115 46t-47 114zM1092 127q0 66 47 111t114 45q66 0 111 -45t45 -111 q0 -68 -45 -114t-111 -46q-68 0 -114.5 46t-46.5 114z" />
<glyph unicode="&#x202f;" horiz-adv-x="423" />
<glyph unicode="&#x2039;" horiz-adv-x="724" d="M72 596l280 416h277l-289 -416l289 -416h-277z" />
<glyph unicode="&#x203a;" horiz-adv-x="724" d="M96 180l289 416l-289 416h277l280 -416l-280 -416h-277z" />
<glyph unicode="&#x2044;" horiz-adv-x="425" d="M-485 0l1183 1513h217l-1179 -1513h-221z" />
<glyph unicode="&#x205f;" horiz-adv-x="529" />
<glyph unicode="&#x2070;" horiz-adv-x="784" d="M47 1446q0 190 90 306t256 116q164 0 254 -116t90 -306q0 -182 -88 -301t-256 -119q-170 0 -258 119t-88 301zM235 1446q0 -252 158 -252q156 0 156 252t-156 252q-158 0 -158 -252z" />
<glyph unicode="&#x2074;" horiz-adv-x="755" d="M31 1331l434 518h135v-479h88v-145h-88v-187h-164v187h-366zM231 1370h205v242z" />
<glyph unicode="&#x2075;" horiz-adv-x="702" d="M43 1118l72 139q104 -74 200 -73q66 0 108 34.5t42 86.5q0 49 -38 82.5t-99 33.5q-78 0 -140 -55l-92 80l49 399h439v-149h-316l-18 -154q49 21 110 21q123 0 200 -74t77 -191q0 -119 -86 -196.5t-225 -77.5q-158 0 -283 94z" />
<glyph unicode="&#x2076;" horiz-adv-x="722" d="M49 1417q0 195 94 322q94 129 277 129q137 0 233 -72l-69 -129q-76 51 -154 51q-90 0 -150.5 -68.5t-70.5 -168.5q57 82 188 82q119 0 196 -74t77 -189q0 -119 -86 -198q-84 -78 -213 -78q-154 0 -238 107.5t-84 285.5zM240 1298q0 -53 38 -90t93 -37q57 0 95 38t38 91.5 t-38 88t-95 34.5q-55 0 -93 -34.5t-38 -90.5z" />
<glyph unicode="&#x2077;" horiz-adv-x="608" d="M27 1683v162h555v-125l-310 -678h-192l297 641h-350z" />
<glyph unicode="&#x2078;" horiz-adv-x="772" d="M72 1262q0 147 164 208v3q-129 53 -130 174q0 98 77 159.5t204 61.5q125 0 203 -61.5t78 -159.5q0 -119 -131 -174v-3q80 -31 122.5 -85t42.5 -121q0 -104 -86 -171t-229 -67t-229 66t-86 170zM246 1282q0 -47 39 -79t102 -32q59 0 99 32t40 79q0 49 -38.5 81t-100.5 32 q-63 0 -102 -32t-39 -81zM270 1628q0 -43 32 -69.5t85 -26.5q51 0 83 27.5t32 68.5t-33 69.5t-82 28.5q-51 0 -84 -27.5t-33 -70.5z" />
<glyph unicode="&#x2079;" horiz-adv-x="753" d="M59 1589q0 123 84 201t217 78q152 0 235 -107.5t83 -290.5q0 -193 -92 -317q-92 -127 -273 -127q-139 0 -233 70l65 131q76 -51 158 -51q94 0 151.5 66.5t67.5 174.5q-70 -88 -192 -88q-121 0 -196 74t-75 186zM227 1593q0 -53 37 -89t94 -36q55 0 92 36t37 89 q0 55 -36.5 92t-92.5 37q-57 0 -94 -36.5t-37 -92.5z" />
<glyph unicode="&#x2080;" horiz-adv-x="784" d="M47 90q0 190 90 306t256 116q164 0 254 -115.5t90 -306.5q0 -182 -88 -301t-256 -119q-170 0 -258 119t-88 301zM235 90q0 -252 158 -252q156 0 156 252t-156 252q-158 0 -158 -252z" />
<glyph unicode="&#x2081;" horiz-adv-x="561" d="M25 266l288 223h136v-806h-183v555l-147 -113z" />
<glyph unicode="&#x2082;" horiz-adv-x="708" d="M53 379q133 133 295 133q88 2 156.5 -41t100.5 -110.5t10.5 -158.5t-103.5 -175l-180 -185h299v-159h-555v145l266 268q98 100 98 162q0 41 -28.5 66.5t-73.5 25.5q-84 0 -197 -104z" />
<glyph unicode="&#x2083;" horiz-adv-x="681" d="M25 -250l73 141q115 -59 195 -59q61 0 97 25.5t36 68.5t-37 68.5t-96 25.5h-109v154h99q51 0 88 23.5t37 64.5q0 39 -32 62.5t-79 23.5q-76 0 -166 -59l-86 127q109 96 272 96q119 0 195 -63q80 -61 80 -152q0 -66 -40 -114t-108 -68v-4q80 -18 124 -71.5t44 -127.5 q0 -106 -86 -174t-225 -68q-137 0 -276 80z" />
<glyph unicode="&#x2084;" horiz-adv-x="755" d="M31 -25l434 519h135v-480h88v-145h-88v-186h-164v186h-366zM231 14h205v242z" />
<glyph unicode="&#x2085;" horiz-adv-x="702" d="M43 -238l72 140q104 -74 200 -74q66 0 108 35t42 86q0 49 -38 83t-99 34q-78 0 -140 -56l-92 80l49 399h439v-149h-316l-18 -154q49 21 110 21q123 0 200 -74t77 -190q0 -119 -86 -197t-225 -78q-158 0 -283 94z" />
<glyph unicode="&#x2086;" horiz-adv-x="722" d="M49 61q0 195 94 322q94 129 277 129q137 0 233 -72l-69 -129q-76 51 -154 51q-90 0 -150.5 -68.5t-70.5 -168.5q57 82 188 82q119 0 196 -74t77 -188q0 -121 -86 -197q-82 -80 -213 -80q-154 0 -238 107.5t-84 285.5zM240 -57q0 -53 38 -90t93 -37q57 0 95 37.5t38 91 t-38 88.5t-95 35q-55 0 -93 -35t-38 -90z" />
<glyph unicode="&#x2087;" horiz-adv-x="608" d="M27 328v161h555v-124l-310 -678h-192l297 641h-350z" />
<glyph unicode="&#x2088;" horiz-adv-x="772" d="M72 -94q0 147 164 209v2q-129 53 -130 174q0 98 77 159.5t204 61.5q125 0 203 -61.5t78 -159.5q0 -119 -131 -174v-2q80 -31 122.5 -85.5t42.5 -121.5q0 -104 -86 -171t-229 -67t-229 66t-86 170zM246 -74q0 -47 39 -78.5t102 -31.5q59 0 99 31.5t40 78.5q0 49 -38.5 81 t-100.5 32q-63 0 -102 -32t-39 -81zM270 272q0 -43 32 -69.5t85 -26.5q51 0 83 27.5t32 68.5t-33 70t-82 29q-51 0 -84 -28t-33 -71z" />
<glyph unicode="&#x2089;" horiz-adv-x="753" d="M59 233q0 123 84 201t217 78q152 0 235 -107.5t83 -289.5q0 -193 -92 -318q-92 -127 -273 -127q-139 0 -233 70l65 131q76 -51 158 -51q94 0 151.5 66.5t67.5 174.5q-70 -88 -192 -88q-121 0 -196 74t-75 186zM227 238q0 -53 37 -89t94 -36q55 0 92 35.5t37 89.5 q0 55 -36.5 92t-92.5 37q-57 0 -94 -37t-37 -92z" />
<glyph unicode="&#x20ac;" horiz-adv-x="1560" d="M59 510l78 188h123q-4 57 0 115h-172l76 188h129q72 244 264 392q193 147 449 147q285 0 483 -141l-129 -221q-150 104 -322 104q-141 0 -258.5 -76t-179.5 -205h725l-86 -188h-692q-4 -57 0 -115h655l-76 -188h-526q61 -129 177 -201.5t257 -72.5q190 0 377 104v-266 q-174 -96 -405 -97q-248 0 -447 146q-197 150 -266 387h-234z" />
<glyph unicode="&#x2122;" horiz-adv-x="1673" d="M68 1362v151h565v-151h-199v-565h-166v565h-200zM709 797v716h106l297 -403l301 403h107v-716h-162v381l-213 -281h-64l-211 281v-381h-161z" />
<glyph unicode="&#x25fc;" horiz-adv-x="1116" d="M0 0v1116h1116v-1116h-1116z" />
<glyph horiz-adv-x="1198" d="M14 535l70 157h109q33 236 204 383q170 150 410 150q238 0 401 -115l-94 -170q-133 84 -285 84q-156 0 -272 -92q-117 -94 -143 -240h606l-21 -43h9l-70 -157h-522q31 -145 140.5 -231.5t266.5 -86.5q154 0 316 88v-209q-133 -76 -336 -76q-240 0 -408 144 q-168 145 -200 371h-177l19 43h-23z" />
<glyph horiz-adv-x="1806" d="M174 0v1513h281v-1513h-281zM635 164l143 217q129 -137 299 -137q135 0 213 85t78 232v952h281v-964q0 -285 -156 -428q-155 -146 -397 -146q-279 0 -461 189z" />
<glyph horiz-adv-x="1177" d="M12 164l144 217q129 -137 299 -137q135 0 212.5 85t77.5 232v952h281v-964q0 -285 -156 -428q-155 -146 -397 -146q-279 0 -461 189zM754 1626l131 367h309l-195 -367h-245z" />
<glyph horiz-adv-x="1189" d="M59 332q0 164 131.5 256t360.5 94q211 6 266 10q-23 213 -266 213q-182 0 -344 -94l-101 199q205 129 455 129q217 0 361.5 -115t144.5 -360v-664h-242v131q-125 -160 -364 -160q-186 0 -294 99.5t-108 261.5zM319 336q0 -68 50.5 -107t134.5 -39q127 0 213 84t96 215 q-80 -8 -201 -8q-158 -2 -225.5 -32.5t-67.5 -112.5z" />
<glyph horiz-adv-x="1189" d="M59 332q0 164 131.5 256t360.5 94q211 6 266 10q-23 213 -266 213q-182 0 -344 -94l-101 199q205 129 455 129q217 0 361.5 -115t144.5 -360v-664h-242v131q-125 -160 -364 -160q-186 0 -294 99.5t-108 261.5zM186 1280l299 354h199l299 -354h-266l-135 178l-138 -178 h-258zM319 336q0 -68 50.5 -107t134.5 -39q127 0 213 84t96 215q-80 -8 -201 -8q-158 -2 -225.5 -32.5t-67.5 -112.5z" />
<glyph horiz-adv-x="686" d="M82 1628l131 367h309l-194 -367h-246z" />
<glyph horiz-adv-x="1982" d="M86 750q0 385 270 655q270 272 658 272q379 0 641 -245q260 -246 260 -588q0 -233 -125 -389q-123 -154 -305 -154q-90 0 -152.5 42t-89.5 114q-106 -156 -311 -156q-176 0 -297 127t-121 317q0 186 121 318q119 131 301 131q179 0 281 -123v92h204v-536q0 -63 27 -98 t70 -35q78 0 137 96q59 100 59 246q0 274 -207 464.5t-495 188.5q-303 -2 -512 -219q-207 -217 -207 -520q0 -307 219 -527q217 -217 537 -217q305 0 550 191l97 -160q-111 -94 -287 -158q-180 -66 -373 -65q-397 0 -676 274q-274 279 -274 662zM729 748q0 -109 69.5 -181.5 t172.5 -72.5q100 0 172 71q71 76 71 180q0 111 -69 183q-70 76 -172 76q-104 0 -174 -73t-70 -183z" />
<glyph horiz-adv-x="1196" d="M39 1513h287l827 -1513h-285z" />
<glyph horiz-adv-x="831" d="M49 647v207q125 18 180.5 61t55.5 142q0 63 -9 184q-8 123 -8 209q0 369 383 369h117v-250h-61q-170 0 -170 -168q0 -41 10 -194.5t10 -190.5q0 -94 -60.5 -164.5t-146.5 -97.5v-9q86 -27 146.5 -96t60.5 -164q0 -39 -10 -192q-10 -150 -10 -193q0 -168 170 -168h61v-247 h-129q-371 0 -371 376q0 82 8.5 199t8.5 184q0 113 -74 154q-57 37 -162 49z" />
<glyph horiz-adv-x="833" d="M66 -68h59q170 0 170 170q0 43 -10 193q-10 154 -11 192q0 94 60.5 164t148.5 97v8q-90 27 -149.5 96.5t-59.5 165.5q0 35 10.5 188.5t10.5 196.5q0 168 -170 168h-59v248h116q383 0 383 -369q0 -86 -8 -207t-8 -184q0 -98 55 -141.5t180 -61.5v-207q-104 -12 -163 -49 q-72 -41 -72 -154q0 -68 8 -184.5t8 -198.5q0 -379 -370 -378h-129v247z" />
<glyph horiz-adv-x="835" d="M174 -305v2126h614v-236h-342v-1657h342v-233h-614z" />
<glyph horiz-adv-x="835" d="M45 -72h342v1657h-342v236h617v-2126h-617v233z" />
<glyph horiz-adv-x="692" d="M82 -479l61 157q92 -41 166 -40q51 0 80 21.5t29 55.5q0 72 -111 72h-112l-17 53l80 201l199 -4l-56 -135q94 -2 158 -56.5t64 -144.5q0 -102 -78 -172t-213 -70q-117 0 -250 62z" />
<glyph horiz-adv-x="1060" d="M80 1630l307 365h205l309 -365h-274l-140 185l-141 -185h-266z" />
<glyph horiz-adv-x="585" d="M133 377q0 66 47 110.5t115 44.5q66 0 111 -45t45 -110q0 -68 -45 -114t-111 -46q-68 0 -115 46t-47 114zM133 1071q0 66 47 111t115 45q66 0 111 -45t45 -111q0 -68 -45 -114t-111 -46q-68 0 -115 46.5t-47 113.5z" />
<glyph horiz-adv-x="495" d="M16 -367l160 635h260l-215 -635h-205z" />
<glyph horiz-adv-x="935" d="M90 1808q0 66 46 111t114 45q66 0 112 -45t46 -111q0 -68 -46 -113.5t-112 -45.5q-68 0 -114 45t-46 114zM510 1808q0 63 47 109.5t113 46.5q68 0 112.5 -45t44.5 -111q0 -70 -45 -114.5t-112.5 -44.5t-113.5 44.5t-46 114.5z" />
<glyph horiz-adv-x="1050" d="M49 229l168 152q53 -84 137 -132t181 -48q86 0 137 34.5t51 94.5q0 41 -28.5 67.5t-96.5 59.5q-236 102 -285 131q-197 113 -196 289q0 131 88 221t237 116v220h232v-224q168 -35 293 -155l-144 -170q-127 117 -274 116q-80 0 -128 -30.5t-48 -83.5q0 -70 139 -135 l141 -62q119 -51 154 -72q190 -104 190 -280q0 -129 -93 -225.5t-245 -126.5v-236h-231v232q-258 39 -379 247z" />
<glyph horiz-adv-x="772" d="M72 223q0 147 164 209v2q-129 53 -130 174q0 98 77 159.5t204 61.5q125 0 203 -61t78 -160q0 -119 -131 -174v-2q80 -31 122.5 -85t42.5 -122q0 -104 -86 -170.5t-229 -66.5t-229 65.5t-86 169.5zM246 244q0 -47 39 -79t102 -32q59 0 99 32t40 79q0 49 -38.5 80.5 t-100.5 31.5q-63 0 -102 -31.5t-39 -80.5zM270 590q0 -43 32 -69.5t85 -26.5q51 0 83 27.5t32 68.5t-33 69.5t-82 28.5q-51 0 -84 -27.5t-33 -70.5z" />
<glyph horiz-adv-x="772" d="M72 934q0 147 164 209v2q-129 53 -130 174q0 98 77 159.5t204 61.5q125 0 203 -61.5t78 -159.5q0 -119 -131 -174v-2q80 -31 122.5 -85t42.5 -122q0 -104 -86 -171t-229 -67t-229 66t-86 170zM246 954q0 -47 39 -78.5t102 -31.5q59 0 99 31.5t40 78.5q0 49 -38.5 81 t-100.5 32q-63 0 -102 -31.5t-39 -81.5zM270 1300q0 -43 32 -69.5t85 -26.5q51 0 83 28t32 68.5t-33 69.5t-82 29q-51 0 -84 -28t-33 -71z" />
<glyph horiz-adv-x="1284" d="M82 397q0 123 78 224.5t209 146.5v4q-104 49 -164 131t-60 184q0 170 138 277q139 109 360 109q219 0 358 -109q137 -106 138 -277q0 -104 -60.5 -187t-167.5 -128v-6q133 -45 211 -145.5t78 -223.5q0 -184 -156 -303q-153 -117 -401 -117q-250 0 -405 117 q-156 119 -156 303zM358 430q0 -94 80 -154.5t205 -60.5q123 0 201 60.5t78 154.5t-76 152.5t-203 58.5t-206 -59.5t-79 -151.5zM401 1059q0 -80 66 -135q66 -53 174 -54q106 0 172 53.5t66 135.5t-66 136t-170 54q-109 0 -175.5 -54t-66.5 -136z" />
<glyph d="M68 414q0 129 77.5 235.5t208.5 153.5v4q-104 49 -163.5 135t-59.5 195q0 176 137 288q139 115 361 115q219 0 358 -115q137 -113 137 -288q0 -109 -60 -195t-167 -135v-6q133 -45 212 -150.5t79 -236.5q0 -193 -155.5 -316t-403.5 -123t-406 123q-156 123 -155 316z M346 448.5q0 -98.5 80 -163t203 -64.5t200.5 64.5t77.5 163t-76.5 161t-201.5 62.5q-127 0 -205 -62.5t-78 -161zM389 1108q0 -88 65.5 -144.5t172 -56.5t172 56.5t65.5 144.5t-65.5 145.5t-170 57.5t-172 -57.5t-67.5 -145.5z" />
<glyph horiz-adv-x="2142" d="M133 635v268h1876v-268h-1876z" />
<glyph horiz-adv-x="1488" d="M133 635v268h1223v-268h-1223z" />
<glyph horiz-adv-x="702" d="M43 80l72 139q104 -74 200 -74q66 0 108 35t42 86q0 49 -38 83t-99 34q-78 0 -140 -55l-92 80l49 399h439v-150h-316l-18 -153q49 20 110 20q123 0 200 -73.5t77 -190.5q0 -119 -86 -196.5t-225 -77.5q-158 0 -283 94z" />
<glyph horiz-adv-x="702" d="M43 791l72 139q104 -74 200 -74q66 0 108 35t42 86q0 49 -38 83t-99 34q-78 0 -140 -56l-92 80l49 400h439v-150h-316l-18 -154q49 21 110 21q123 0 200 -74t77 -190q0 -119 -86 -197t-225 -78q-158 0 -283 95z" />
<glyph horiz-adv-x="1161" d="M45 -76l115 211q190 -123 372 -123q129 0 209 64.5t80 163.5q0 96 -76.5 160.5t-193.5 64.5q-152 0 -258 -94l-164 121l82 702h786v-240h-577l-37 -295q105 39 211 39q215 0 360 -127q147 -125 148 -327q0 -209 -154 -340q-154 -135 -403 -135q-270 0 -500 155z" />
<glyph d="M84 145l113 224q190 -135 376 -136q129 0 209 72t80 182q0 106 -76.5 177t-195.5 71q-152 0 -258 -106l-166 127l84 757h790v-256h-581l-39 -321q98 43 213 43q219 0 362 -137q147 -137 148 -355q0 -221 -154 -366q-156 -145 -403 -146q-270 0 -502 170z" />
<glyph horiz-adv-x="755" d="M31 293l434 518h135v-479h88v-146h-88v-186h-164v186h-366zM231 332h205v241z" />
<glyph horiz-adv-x="755" d="M31 1004l434 518h135v-480h88v-145h-88v-186h-164v186h-366zM231 1042h205v242z" />
<glyph horiz-adv-x="1249" d="M31 297l786 903h193v-854h164v-223h-164v-326h-262v326h-662zM358 346h390v453z" />
<glyph d="M37 537l799 976h194v-919h164v-236h-164v-358h-262v358h-676zM362 594h406v500z" />
<glyph horiz-adv-x="665" d="M82 1997h315l131 -369h-247z" />
<glyph horiz-adv-x="1185" d="M82 772l280 416h277l-289 -416l289 -416h-277zM522 772l281 416h276l-286 -416l286 -416h-278z" />
<glyph horiz-adv-x="1185" d="M106 356l287 416l-287 416h277l281 -416l-279 -416h-279zM547 356l289 416l-289 416h276l281 -416l-281 -416h-276z" />
<glyph horiz-adv-x="745" d="M82 772l280 416h277l-289 -416l289 -416h-277z" />
<glyph horiz-adv-x="745" d="M106 356l289 416l-289 416h277l281 -416l-281 -416h-277z" />
<glyph horiz-adv-x="1097" d="M133 635v268h830v-268h-830z" />
<glyph horiz-adv-x="538" d="M104 1413q0 72 50.5 120t122 48t119.5 -48t48 -120q0 -74 -48 -121t-120 -47q-74 0 -123 47t-49 121zM139 0v1112h269v-1112h-269z" />
<glyph horiz-adv-x="1175" d="M104 1413q0 72 50.5 120t122 48t119.5 -48t48 -120q0 -74 -48 -121t-120 -47q-74 0 -123 47t-49 121zM139 0v1112h269v-1112h-269zM322 -420l51 213q92 -31 147 -31q186 0 187 222v1128h268v-1137q0 -217 -111 -332.5t-301 -115.5q-158 0 -241 53zM668 1413q0 72 50 120 t121.5 48t120 -48t48.5 -120q0 -74 -48 -121t-120 -47q-74 0 -123 47t-49 121z" />
<glyph horiz-adv-x="587" d="M-201 -420l51 213q92 -31 148 -31q186 0 186 222v1128h269v-1137q0 -217 -111 -332.5t-301 -115.5q-158 0 -242 53zM145 1413q0 72 50.5 120t122 48t119.5 -48t48 -120q0 -74 -48 -121t-120 -47q-74 0 -123 47t-49 121z" />
<glyph horiz-adv-x="753" d="M59 551q0 123 84 200.5t217 77.5q152 0 235 -107.5t83 -289.5q0 -190 -92 -317t-273 -127q-139 0 -233 69l65 131q76 -51 158 -51q94 0 151.5 66.5t67.5 175.5q-70 -88 -192 -88q-121 0 -196 73.5t-75 186.5zM227 555q0 -53 37 -89t94 -36q55 0 92 36t37 89 q0 55 -36.5 92t-92.5 37q-57 0 -94 -37t-37 -92z" />
<glyph horiz-adv-x="753" d="M59 1262q0 123 84 200.5t217 77.5q152 0 235 -107.5t83 -289.5q0 -193 -92 -318q-92 -127 -273 -127q-139 0 -233 70l65 131q76 -51 158 -51q94 0 151.5 66.5t67.5 175.5q-70 -88 -192 -89q-121 0 -196 74t-75 187zM227 1266q0 -53 37 -89t94 -36q55 0 92 35.5t37 89.5 q0 55 -36.5 92t-92.5 37q-57 0 -94 -37t-37 -92z" />
<glyph horiz-adv-x="1239" d="M68 768q0 211 147 346q145 137 383 137q270 0 414 -192q143 -188 143 -500q0 -215 -63.5 -389t-210 -287.5t-357.5 -113.5q-246 0 -407 125l102 202q137 -90 291 -90q172 0 269.5 121t115.5 330q-53 -72 -148.5 -111t-201.5 -39q-207 0 -342 129q-135 133 -135 332z M334 770q0 -104 72.5 -172t183 -68t185.5 69t75 173.5t-76 173.5q-76 72 -182 72q-111 0 -184.5 -69.5t-73.5 -178.5z" />
<glyph d="M76 1028q0 223 149 367q152 145 385 145q274 0 420 -203q145 -205 146 -530q0 -168 -38 -314.5t-114 -264t-201 -185.5t-286 -68q-244 0 -412 131l104 211q139 -96 293 -96q178 0 275 133q98 133 114 346q-55 -74 -149 -115.5t-205 -41.5q-209 0 -346 137 q-135 139 -135 348zM346 1034q0 -111 74 -183.5t184.5 -72.5t185 73.5t74.5 184.5q0 113 -76 189q-74 76 -182 75q-111 0 -185.5 -74.5t-74.5 -191.5z" />
<glyph horiz-adv-x="561" d="M25 584l288 223h136v-809h-183v557l-147 -113z" />
<glyph horiz-adv-x="561" d="M25 1294l288 224h136v-807h-183v555l-147 -113z" />
<glyph horiz-adv-x="1017" d="M2 881l490 325h219v-977h280v-229h-901v229h354v658l-317 -207z" />
<glyph d="M139 1143l459 370h209v-1257h317v-256h-917v256h325v885l-247 -195z" />
<glyph horiz-adv-x="843" d="M80 756q0 350 160.5 621.5t466.5 432.5l114 -211q-451 -301 -450 -843q-1 -535 450 -848l-123 -207q-299 162 -458.5 435.5t-159.5 619.5z" />
<glyph horiz-adv-x="843" d="M25 -92q451 315 450 848q0 543 -450 843l112 211q305 -160 467 -432t162 -622q0 -346 -161 -619.5t-462 -435.5z" />
<glyph horiz-adv-x="1017" d="M53 -307l160 635h260l-215 -635h-205zM528 -307l160 635h260l-215 -635h-205z" />
<glyph horiz-adv-x="978" d="M70 1096l215 635h204l-159 -635h-260zM547 1096l215 635h205l-160 -635h-260z" />
<glyph horiz-adv-x="1003" d="M63 1098l160 635h260l-215 -635h-205zM541 1098l159 635h261l-216 -635h-204z" />
<glyph horiz-adv-x="507" d="M59 1096l215 635h205l-160 -635h-260z" />
<glyph horiz-adv-x="503" d="M70 1098l159 635h260l-215 -635h-204z" />
<glyph horiz-adv-x="520" d="M8 -307l160 635h260l-215 -635h-205z" />
<glyph horiz-adv-x="727" d="M82 1851q0 109 80 187q82 78 192.5 78t192.5 -78q80 -78 80 -187q0 -110 -80 -186q-78 -76 -192.5 -76t-192.5 76q-80 76 -80 186zM242 1855q0 -49 32.5 -80.5t79.5 -31.5q45 0 78 31.5t33 80.5q0 45 -33 77t-78 32q-47 0 -79.5 -31.5t-32.5 -77.5z" />
<glyph horiz-adv-x="616" d="M111 68l82 63q76 61 108 121h-6q-57 0 -98 42t-41 101q0 68 47.5 113t115.5 45q74 0 123.5 -52t49.5 -132q0 -217 -302 -410zM162 1071.5q0 67.5 48 113.5t116 46q66 0 112.5 -46t46.5 -114q0 -70 -46 -116t-113.5 -46t-115.5 47.5t-48 115z" />
<glyph horiz-adv-x="581" d="M25 -367l159 635h260l-215 -635h-204zM147 868.5q0 67.5 48.5 113.5t115.5 46q66 0 113 -46t47 -114q0 -70 -46 -115.5t-113.5 -45.5t-116 47t-48.5 114.5z" />
<glyph horiz-adv-x="608" d="M27 645v162h555v-125l-310 -678h-192l297 641h-350z" />
<glyph horiz-adv-x="608" d="M27 1356v162h555v-125l-310 -678h-192l297 641h-350z" />
<glyph horiz-adv-x="1042" d="M33 946v248h979v-184l-555 -1213h-295l532 1149h-661z" />
<glyph d="M143 1264v249h1016v-174l-651 -1339h-297l627 1264h-695z" />
<glyph horiz-adv-x="722" d="M49 379q0 195 94 321q94 129 277 129q137 0 233 -71l-69 -129q-76 51 -154 51q-90 0 -150.5 -68.5t-70.5 -169.5q57 82 188 82q119 0 196 -73.5t77 -188.5q0 -119 -86 -199q-84 -78 -213 -77q-154 0 -238 107.5t-84 285.5zM240 260q0 -53 38 -90t93 -37q57 0 95 38t38 91 t-38 88t-95 35q-55 0 -93 -35t-38 -90z" />
<glyph horiz-adv-x="722" d="M49 1090q0 195 94 321q94 129 277 129q137 0 233 -72l-69 -129q-76 51 -154 52q-90 0 -150.5 -69t-70.5 -169q57 82 188 82q119 0 196 -74t77 -188q0 -119 -86 -199q-84 -78 -213 -78q-154 0 -238 107.5t-84 286.5zM240 971q0 -53 38 -90t93 -37q57 0 95 38t38 91t-38 88 t-95 35q-55 0 -93 -35t-38 -90z" />
<glyph horiz-adv-x="1257" d="M76 676q0 317 153 547q80 117 206 182t284 65q231 0 405 -127l-118 -202q-125 88 -271 88q-180 -2 -286.5 -144.5t-110.5 -328.5q108 176 354 176q207 0 346 -133q137 -131 138 -332q0 -213 -149.5 -350t-383.5 -137q-279 0 -422 196q-145 199 -145 500zM387 463 q0 -106 74 -178q75 -70 184 -70q111 0 184.5 70.5t73.5 177.5q0 104 -73.5 173t-182.5 69q-111 0 -185.5 -69t-74.5 -173z" />
<glyph d="M84 711q0 219 67.5 402t218 305t363.5 122q236 0 410 -131l-119 -211q-127 94 -274 94q-127 0 -218 -75q-168 -139 -182 -420q111 180 357 180q211 0 348 -137q139 -139 139 -348q0 -219 -151.5 -364.5t-385.5 -145.5q-279 0 -426 204q-147 207 -147 525zM397 485.5 q0 -110.5 75.5 -186.5t184.5 -76q111 0 187 76t76 188q0 111 -74 182.5t-184 71.5q-113 0 -189 -72.5t-76 -183z" />
<glyph horiz-adv-x="1196" d="M43 0l827 1513h287l-831 -1513h-283z" />
<glyph horiz-adv-x="1001" d="M70 510v182h98q-27 61 -27 137q0 176 125 283t312 111q285 0 413 -226l-172 -135q-76 137 -219 137q-90 0 -147.5 -57t-57.5 -145q0 -43 23 -105h444v-182h-377q2 -8 2 -37q0 -137 -114 -246h612v-227h-909v184q164 129 164 277q0 25 -7 49h-163z" />
<glyph horiz-adv-x="681" d="M25 68l73 141q115 -59 195 -59q61 0 97 25.5t36 68.5t-37 68.5t-96 25.5h-109v154h99q51 0 88 23.5t37 64.5q0 39 -32 62.5t-79 23.5q-76 0 -166 -60l-86 127q109 96 272 96q119 0 195 -63q80 -61 80 -152q0 -66 -40 -113.5t-108 -68.5v-4q80 -18 124 -71.5t44 -127.5 q0 -106 -86 -173.5t-225 -67.5q-137 0 -276 80z" />
<glyph horiz-adv-x="681" d="M25 778l73 142q115 -59 195 -60q61 0 97 25.5t36 68.5t-37 69t-96 26h-109v153h99q51 0 88 23.5t37 64.5q0 39 -32 62.5t-79 23.5q-76 0 -166 -59l-86 127q109 96 272 96q119 0 195 -63q80 -61 80 -152q0 -66 -40 -114t-108 -68v-4q80 -18 124 -71.5t44 -127.5 q0 -106 -86 -174t-225 -68q-137 0 -276 80z" />
<glyph horiz-adv-x="1116" d="M14 -92l121 215q195 -109 359 -109q121 0 190.5 51.5t69.5 137.5q0 82 -69 133t-181 51h-199v240h178q109 0 174.5 49t65.5 125q0 78 -62.5 125t-160.5 47q-143 0 -314 -111l-137 193q195 170 475 170q205 0 338 -107q135 -106 135 -262q0 -109 -70.5 -195t-185.5 -122 v-7q137 -29 216 -123t79 -225q0 -186 -149 -299q-149 -116 -387 -116q-250 0 -486 139z" />
<glyph d="M74 125l119 225q188 -117 354 -117q121 0 191.5 56.5t70.5 148.5t-69.5 149.5t-182.5 57.5h-192v250h170q111 0 176 54.5t65 140.5t-62.5 137t-160.5 51q-139 0 -309 -121l-135 201q88 84 214 133t261 49q203 0 340 -115q137 -113 137 -280q0 -119 -71.5 -211 t-186.5 -131v-8q137 -31 217 -132.5t80 -240.5q0 -195 -152 -322q-149 -125 -389 -125q-254 0 -485 150z" />
<glyph horiz-adv-x="1140" d="M82 1751q92 229 287 229q70 0 157.5 -45t126.5 -45q68 0 121 99l172 -82q-39 -111 -110.5 -170.5t-163.5 -59.5q-66 0 -156 45q-90 47 -131 47q-72 0 -131 -102z" />
<glyph horiz-adv-x="708" d="M53 696q133 133 295 133q88 2 156.5 -41t100.5 -110.5t10.5 -158.5t-103.5 -175l-180 -184h299v-160h-555v145l266 269q98 102 98 161q0 41 -28.5 67t-73.5 26q-84 0 -197 -105z" />
<glyph horiz-adv-x="708" d="M53 1407q133 133 295 133q88 2 156.5 -41t100.5 -110.5t10.5 -158.5t-103.5 -175l-180 -185h299v-159h-555v145l266 268q98 100 98 162q0 41 -28.5 66.5t-73.5 25.5q-84 0 -197 -104z" />
<glyph horiz-adv-x="1112" d="M57 997q244 225 500 226q197 0 322 -109q123 -106 122 -262q0 -104 -70.5 -207.5t-228.5 -234.5l-213 -181h525v-229h-912v211l406 344q127 104 173 161.5t46 119.5q0 66 -48 105.5t-132 39.5q-139 0 -350 -176z" />
<glyph d="M92 1311q229 229 518 229q213 0 351 -129q137 -129 137 -332q0 -212 -264 -495l-308 -328h588v-256h-977v231l473 502q35 35 103 109q102 123 102 227q0 92 -63.5 150.5t-161.5 58.5q-166 0 -346 -168z" />
<glyph horiz-adv-x="1028" d="M-18 1206h274l262 -514l266 514h271l-305 -547h186v-176h-285l-6 -12v-57h291v-176h-291v-238h-256v238h-293v176h293v57l-6 12h-287v176h189z" />
<glyph horiz-adv-x="784" d="M47 410q0 190 90 305.5t256 115.5q164 0 254 -115.5t90 -305.5q0 -182 -88 -301t-256 -119q-170 0 -258 118.5t-88 301.5zM235 410q0 -252 158 -252q156 0 156 252t-156 252q-158 0 -158 -252z" />
<glyph horiz-adv-x="784" d="M47 1118q0 190 90 306t256 116q164 0 254 -115.5t90 -306.5q0 -182 -88 -301t-256 -119q-170 0 -258 119t-88 301zM235 1118q0 -252 158 -252q156 0 156 252t-156 252q-158 0 -158 -252z" />
<glyph horiz-adv-x="1263" d="M94 600q0 268 137 444q137 180 402 181q260 0 399 -178q137 -176 137 -446.5t-137 -446.5q-139 -178 -399 -179q-264 0 -402 179q-137 180 -137 446zM362 600q0 -176 68 -285q70 -104 203 -104q131 0 201.5 103.5t70.5 285.5q0 180 -69.5 284.5t-200.5 104.5 q-135 0 -205 -106q-68 -104 -68 -283z" />
<glyph d="M86 463q-76 297 0 588q78 309 283 424q115 66 258 65.5t258 -65.5q209 -115 286 -424q76 -291 0 -588q-77 -305 -286 -424q-113 -63 -258.5 -63.5t-257.5 63.5q-205 121 -283 424zM322 758q0 -233 75.5 -376.5t231.5 -143.5q154 0 229.5 143.5t75.5 376.5q0 231 -76 375 q-78 145 -229 145q-154 0 -232 -145q-76 -143 -75 -375z" />
</font>
</defs>
</svg>
