<?xml version="1.0" standalone="no"?>
<!DOCTYPE svg PUBLIC "-//W3C//DTD SVG 1.1//EN" "http://www.w3.org/Graphics/SVG/1.1/DTD/svg11.dtd" >
<svg xmlns="http://www.w3.org/2000/svg" xmlns:xlink="http://www.w3.org/1999/xlink" version="1.1">
<metadata></metadata>
<defs>
<font id="axiformathin" horiz-adv-x="1146" >
<font-face units-per-em="2048" ascent="1579" descent="-469" />
<missing-glyph horiz-adv-x="505" />
<glyph unicode="fb" horiz-adv-x="2134" d="M45 1020v76h193v96q0 178 98 279.5t262 101.5q113 0 209 -53l-35 -66q-86 43 -174 43q-129 0 -204 -80t-75 -225v-96h451v-76h-451v-1020h-81v1020h-193zM948 0v1542h82v-706q68 131 190.5 207.5t276.5 76.5q231 0 385 -166q156 -164 156 -407q0 -246 -156 -410 q-154 -166 -385 -166q-154 0 -277.5 78t-189.5 213v-262h-82zM1028 553q0 -209 133 -358q135 -148 338 -148q199 0 328 143q129 145 129 357q0 211 -129 354t-328 143q-203 0 -338 -143q-133 -145 -133 -348z" />
<glyph unicode="ffj" horiz-adv-x="1873" d="M45 1020v76h193v96q0 180 104 280.5t281 100.5q166 0 292 -90l-38 -64q-106 78 -254 78q-143 0 -223.5 -80t-80.5 -225v-96h592v96q0 178 98.5 279.5t262.5 101.5q113 0 209 -53l-35 -66q-86 43 -174 43q-129 0 -204 -80t-75 -225v-96h471v-76h-471v-1020h-82v1020h-592 v-1020h-81v1020h-193zM1194 -416l29 70q84 -45 174 -45q104 0 162.5 67.5t58.5 190.5v1229h82v-1229q0 -158 -82 -246t-223 -88q-113 0 -201 51zM1573 1360q0 37 25.5 61.5t60.5 24.5t59.5 -24.5t24.5 -61.5q0 -35 -24.5 -59.5t-59.5 -24.5t-60.5 24.5t-25.5 59.5z" />
<glyph unicode="fh" horiz-adv-x="2023" d="M45 1020v76h193v96q0 178 98 279.5t262 101.5q113 0 209 -53l-35 -66q-86 43 -174 43q-129 0 -204 -80t-75 -225v-96h451v-76h-451v-1020h-81v1020h-193zM948 0v1542h78v-665q94 247 401 247q188 0 312 -123q125 -119 125 -342v-659h-82v659q0 178 -95.5 284t-259.5 106 q-66 0 -130 -20.5t-126.5 -65.5t-101.5 -134.5t-39 -210.5v-618h-82z" />
<glyph unicode="fj" horiz-adv-x="1200" d="M45 1020v76h193v96q0 178 98 279.5t262 101.5q113 0 209 -53l-35 -66q-86 43 -174 43q-129 0 -204 -80t-75 -225v-96h472v-76h-472v-1020h-81v1020h-193zM520 -416l29 70q84 -45 174 -45q104 0 162.5 67.5t58.5 190.5v1229h82v-1229q0 -158 -82 -246t-223 -88 q-113 0 -201 51zM899 1362q0 37 25.5 61.5t60.5 24.5t59.5 -24.5t24.5 -61.5q0 -35 -24.5 -59.5t-59.5 -24.5t-60.5 24.5t-25.5 59.5z" />
<glyph unicode="fk" horiz-adv-x="1769" d="M45 1020v76h193v96q0 178 98 279.5t262 101.5q113 0 209 -53l-35 -66q-86 43 -174 43q-129 0 -204 -80t-75 -225v-96h451v-76h-451v-1020h-81v1020h-193zM948 0v1542h82v-960l576 514h106l-485 -439l555 -657h-103l-510 608l-139 -127v-481h-82z" />
<glyph horiz-adv-x="0" />
<glyph horiz-adv-x="682" />
<glyph horiz-adv-x="266" />
<glyph horiz-adv-x="266" />
<glyph unicode="&#xd;" horiz-adv-x="681" />
<glyph unicode=" "  horiz-adv-x="505" />
<glyph unicode="&#x09;" horiz-adv-x="505" />
<glyph unicode="&#xa0;" horiz-adv-x="505" />
<glyph unicode="!" horiz-adv-x="520" d="M191.5 14q-21.5 41 0 81t70.5 38q33 0 56.5 -22.5t23.5 -55.5q0 -35 -23.5 -57.5t-56.5 -22.5q-49 -2 -70.5 39zM219 1524h82l-8 -1205h-68z" />
<glyph unicode="&#x22;" horiz-adv-x="731" d="M209 920l180 593h92l-205 -593h-67zM502 920l180 593h92l-205 -593h-67z" />
<glyph unicode="#" horiz-adv-x="1382" d="M74 477l14 72h279l92 420h-289l14 71h291l103 473h75l-102 -473h405l103 473h76l-103 -473h275l-15 -71h-276l-90 -420h284l-14 -72h-287l-102 -477h-76l103 477h-406l-102 -477h-78l104 477h-278zM444 549h406l90 420h-405z" />
<glyph unicode="$" horiz-adv-x="1116" d="M72 291l69 35q123 -274 416 -275q168 0 277 92q111 96 110 238q0 96 -53 163.5t-172 123.5q-66 31 -162 69l-129 54q-279 123 -278 364q0 156 103 262.5t273 120.5v188h82v-188q244 -16 385 -223l-63 -45q-133 195 -355 194q-154 0 -247 -86q-96 -86 -97 -223 q0 -92 50.5 -159.5t169.5 -127.5q37 -18 153 -67q109 -43 158 -66q264 -125 264 -354q0 -168 -119 -281q-121 -111 -299 -123v-206h-82v206q-152 8 -270.5 88t-183.5 226z" />
<glyph unicode="%" horiz-adv-x="1779" d="M76 1167q0 156 110 263q111 111 262.5 110.5t262.5 -110.5q111 -106 111 -262.5t-111 -262.5q-109 -109 -262 -108q-152 0 -265 108q-109 109 -108 262zM152 1167q0 -125 88 -213t208.5 -88t208.5 88t88 213t-88 213q-90 90 -208.5 90t-208.5 -90q-88 -88 -88 -213z M250 0l1175 1513h91l-1176 -1513h-90zM958 346.5q0 153.5 111 261.5q111 111 262.5 111t261.5 -111q111 -109 111 -262t-111 -262q-109 -109 -262 -109q-152 0 -264 109q-109 109 -109 262.5zM1034 346q0 -125 86 -213q88 -88 211 -88t209 88q88 88 88 213t-88 213 q-90 90 -209 90t-209 -90q-88 -88 -88 -213z" />
<glyph unicode="&#x26;" horiz-adv-x="1370" d="M90 391q0 270 342 453q-121 164 -121 323q0 162 101 265q100 104 245 104q125 0 213 -82q90 -80 91 -205q0 -119 -93 -219q-29 -33 -102 -84q-57 -39 -107 -65q-31 -18 -112 -58q51 -59 110 -118l383 -365q68 82 183 250l61 -47q-100 -152 -186 -258l250 -240l-56 -61 l-250 241q-238 -246 -505 -245q-199 0 -324 116q-123 121 -123 295zM172 393q0 -147 100 -241q103 -97 267 -97q236 0 448 226l-383 372q-68 66 -127 133q-154 -84 -229.5 -176t-75.5 -217zM395 1165q0 -135 109 -286q199 98 287 178t88 186q0 92 -60.5 154.5t-156.5 62.5 q-113 0 -191 -86q-76 -84 -76 -209z" />
<glyph unicode="'" horiz-adv-x="438" d="M104 920l181 593h92l-205 -593h-68z" />
<glyph unicode="(" horiz-adv-x="729" d="M96 602q0 348 154 621q154 279 436 434l37 -68q-260 -143 -406 -403q-141 -258 -141 -584q0 -328 143 -584q146 -258 404 -401l-37 -68q-283 158 -436 433q-154 276 -154 620z" />
<glyph unicode=")" horiz-adv-x="729" d="M6 -383q258 143 404 401q143 256 143 584t-143 584q-141 258 -404 403l37 68q283 -156 436 -434q154 -272 154 -621q0 -344 -154 -620q-153 -275 -436 -433z" />
<glyph unicode="*" horiz-adv-x="890" d="M111 1262l30 63l271 -125l-4 309h75l-4 -309l271 125l30 -63l-278 -129l205 -238l-58 -47l-203 250l-204 -250l-58 47l205 238z" />
<glyph unicode="+" horiz-adv-x="1028" d="M82 657v76h395v395h74v-395h395v-76h-395v-393h-76v393h-393z" />
<glyph unicode="," horiz-adv-x="436" d="M106 -207q137 88 168 195q-23 -23 -57 -23q-29 0 -51.5 21.5t-22.5 54.5q0 37 26 61.5t64.5 24.5t65.5 -29.5t27 -74.5q0 -68 -52.5 -139.5t-142.5 -127.5z" />
<glyph unicode="-" horiz-adv-x="1081" d="M150 530v76h782v-76h-782z" />
<glyph unicode="." horiz-adv-x="434" d="M146.5 6q-21.5 41 0 81t70.5 38q33 0 56.5 -22.5t23.5 -55.5q0 -35 -23.5 -57.5t-56.5 -22.5q-49 -2 -70.5 39z" />
<glyph unicode="/" horiz-adv-x="1130" d="M45 -252l965 1942h73l-958 -1942h-80z" />
<glyph unicode="0" horiz-adv-x="1335" d="M121 758q0 291 119 522q63 121 173.5 190.5t254 69.5t254 -69.5t174.5 -190.5q119 -225 118 -522q0 -295 -118 -525q-63 -121 -174 -189.5t-254.5 -68.5t-254 70t-173.5 188q-119 236 -119 525zM203 758q0 -323 125 -516q127 -190 340 -190.5t340 190.5 q125 188 125 515.5t-125 516.5q-127 190 -340 190q-215 0 -340 -192q-125 -188 -125 -514z" />
<glyph unicode="1" horiz-adv-x="737" d="M23 1141l442 372h57v-1513h-82v1391l-364 -308z" />
<glyph unicode="2" horiz-adv-x="1075" d="M78 1329q199 211 444 211q184 0 305 -114.5t121 -286.5q0 -113 -80 -254q-76 -138 -297 -398l-352 -413h758v-76h-866v74l401 469q80 92 141 170q53 68 107 145q106 158 106 289q0 135 -96 227q-94 92 -248 92q-209 0 -387 -188z" />
<glyph unicode="3" horiz-adv-x="1095" d="M72 131l47 64q176 -143 381 -144q176 0 282 99q109 98 109 251.5t-98.5 241.5t-305.5 88h-147v76h125q203 0 299 103.5t96 232.5q0 141 -96 231t-252 90q-104 0 -202.5 -42t-164.5 -117l-49 53q72 84 184.5 133t231.5 49q193 0 311 -115q119 -113 119 -282 q0 -127 -70.5 -226.5t-185.5 -136.5v-8q131 -31 209 -132t78 -239q0 -184 -133 -305t-340 -121q-240 0 -428 156z" />
<glyph unicode="4" horiz-adv-x="1124" d="M33 469l782 1044h55v-1019h172v-76h-172v-418h-82v418h-745zM145 494h643v854z" />
<glyph unicode="5" horiz-adv-x="1128" d="M96 164l49 55q182 -168 385 -168q186 0 305 119t119 311q0 184 -108.5 293t-274.5 109q-207 0 -348 -185l-63 27l71 788h705v-75h-633l-59 -613q126 133 331 133q195 0 328 -129t133 -350q0 -227 -143 -364q-145 -139 -361 -140q-229 0 -436 189z" />
<glyph unicode="6" horiz-adv-x="1216" d="M119 715q0 219 57 397q57 180 193 305q135 123 323 123q205 0 355 -125l-46 -61q-125 111 -307 110q-137 0 -243.5 -76.5t-163.5 -209.5q-104 -250 -88 -570h4q25 156 155.5 262.5t292.5 106.5q197 0 332 -141q137 -137 137 -351q0 -215 -135 -360q-135 -143 -346 -143 q-248 0 -386 207.5t-134 525.5zM242 481q0 -164 118 -295q121 -129 291 -129q160 0 275 121q113 119 112 305q0 180 -112 299q-111 119 -275 119q-162 0 -286 -125q-123 -125 -123 -295z" />
<glyph unicode="7" horiz-adv-x="978" d="M35 1438v75h905v-57l-608 -1456h-88l608 1438h-817z" />
<glyph unicode="8" horiz-adv-x="1226" d="M113 403q0 135 84 248q86 113 239 146v4q-129 49 -196.5 144t-67.5 210q0 162 125 272q125 113 317.5 113t315.5 -110q125 -111 125 -273q0 -117 -68.5 -214t-198.5 -142v-6q152 -35 239 -142.5t87 -249.5q0 -178 -141 -305q-139 -123 -358.5 -123t-360.5 123t-141 305z M193 401q0 -150 118.5 -250t302.5 -100q186 0 301 101q119 99 119 251q0 61 -22.5 122t-68.5 115t-131 88t-196 34q-211 0 -319 -111q-104 -106 -104 -250zM252 1155q0 -119 92 -221q94 -100 268 -100q176 0 270.5 100t94.5 223q0 127 -102.5 217t-260.5 90q-160 0 -262 -92 q-100 -88 -100 -217z" />
<glyph unicode="9" horiz-adv-x="1214" d="M92 1036q0 217 135 360.5t346 143.5q248 0 386.5 -208t134.5 -525q0 -127 -19.5 -244t-62.5 -224.5t-107.5 -186t-158.5 -124.5t-211 -46q-205 0 -355 124l45 62q127 -111 307 -111q139 0 245 77t157 210q96 248 80 569h-4q-25 -152 -158 -260q-131 -106 -291 -106 q-195 0 -334 139q-135 137 -135 350zM174 1038q0 -178 111 -297q112 -118 276 -118q162 0 285 125q125 125 125 292q0 162 -121 293q-119 131 -289 131q-160 0 -274 -121q-113 -119 -113 -305z" />
<glyph unicode=":" horiz-adv-x="458" d="M183.5 6q-21.5 41 0 81t70.5 38q33 0 56.5 -22.5t23.5 -55.5q0 -35 -23.5 -57.5t-56.5 -22.5q-49 -2 -70.5 39zM183.5 811q-21.5 41 0 81t70.5 38q33 0 56.5 -22.5t23.5 -55.5q0 -35 -23.5 -57.5t-56.5 -22.5q-49 -2 -70.5 39z" />
<glyph unicode=";" horiz-adv-x="524" d="M139 -207q137 88 168 195q-23 -23 -57 -23q-29 0 -51.5 21.5t-22.5 54.5q0 37 25.5 61.5t64.5 24.5t65.5 -29.5t26.5 -74.5q0 -68 -52 -139.5t-142 -127.5zM176 848q0 33 25.5 57.5t60.5 24.5t59.5 -23.5t24.5 -58.5q2 -51 -41 -72.5t-87 0t-42 72.5z" />
<glyph unicode="&#x3c;" horiz-adv-x="1060" d="M66 653v37l868 514v-88l-746 -442l746 -445v-90z" />
<glyph unicode="=" horiz-adv-x="1175" d="M156 457v75h864v-75h-864zM156 809v76h864v-76h-864z" />
<glyph unicode="&#x3e;" horiz-adv-x="1060" d="M127 139v90l745 445l-745 442v88l868 -514v-37z" />
<glyph unicode="?" horiz-adv-x="1001" d="M61 1331q78 98 187.5 153.5t228.5 55.5q172 0 299 -104q125 -104 125 -277q0 -162 -145 -307q-20 -20 -70.5 -66.5t-76 -74t-58.5 -67.5t-47.5 -79t-14.5 -78v-161h-77v155q0 156 143 289q12 12 58 55t63.5 60.5t52.5 58.5t49.5 68.5t27.5 67.5t13 81q0 129 -96 215 q-94 88 -246 88q-209 0 -358 -180zM379.5 95q21.5 40 71.5 38q33 0 56 -22.5t23 -55.5q0 -35 -23 -57.5t-56 -22.5q-49 -2 -71 39t-0.5 81z" />
<glyph unicode="@" horiz-adv-x="1974" d="M100.5 579.5q-0.5 378.5 259.5 645.5q262 270 635 270q356 0 613 -244q254 -242 254 -579q0 -217 -109 -367q-109 -145 -262 -145q-92 0 -153.5 55t-73.5 139q-47 -90 -134.5 -142t-193.5 -52q-166 0 -281 121q-111 123 -110.5 301t114.5 305q117 125 287 125 q100 0 184.5 -46t131.5 -124v139h77v-571q0 -84 42 -129t110 -45q121 0 207 129q86 131 86 313q0 303 -235.5 524t-555.5 221q-338 0 -577 -247q-238 -250 -238 -596q0 -350 244 -594q244 -242 600 -242q170 0 325.5 60.5t266.5 168.5l47 -53q-111 -111 -281 -179.5 t-360 -68.5q-389 0 -655 265q-264 264 -264.5 642.5zM625 582q0 -143 90 -246q88 -100 227 -100q141 0 229 100q92 102 92.5 249.5t-92.5 250.5q-92 100 -225 100t-229 -102q-92 -100 -92 -252z" />
<glyph unicode="A" horiz-adv-x="1308" d="M35 0l594 1513h51l592 -1513h-88l-191 496h-678l-192 -496h-88zM340 571h627l-314 805z" />
<glyph unicode="B" horiz-adv-x="1341" d="M215 0v1513h516q207 0 313 -110q111 -111 111 -264q0 -113 -61.5 -203t-161.5 -123q141 -37 222 -143.5t81 -243.5q0 -174 -127 -301q-125 -125 -363 -125h-530zM297 76h451q178 0 290 98q115 102 115 254t-115 248q-113 94 -284 94h-457v-694zM297 846h469q131 0 219 84 q88 86 88 215q0 133 -91 213t-257 80h-428v-592z" />
<glyph unicode="C" horiz-adv-x="1617" d="M109 752q0 344 227 565q229 223 553 223q209 0 385 -94q180 -94 274 -244l-63 -39q-84 135 -246 217q-164 84 -352 84q-297 0 -498 -200q-199 -199 -199 -506t197 -506q199 -199 498 -199q182 0 343 78t261 215l57 -43q-115 -152 -287.5 -239t-373.5 -87q-328 0 -551 218 q-225 219 -225 557z" />
<glyph unicode="D" horiz-adv-x="1523" d="M215 0v1513h494q326 0 512 -204q188 -207 188 -555t-190.5 -551t-522.5 -203h-481zM297 76h395q299 0 467 180t168 497.5t-164 499.5q-162 184 -450 185h-416v-1362z" />
<glyph unicode="E" horiz-adv-x="1226" d="M215 0v1513h899v-75h-817v-635h766v-76h-766v-651h825v-76h-907z" />
<glyph unicode="F" horiz-adv-x="1118" d="M215 0v1513h852v-75h-770v-635h692v-76h-692v-727h-82z" />
<glyph unicode="G" horiz-adv-x="1687" d="M109 756q0 340 229 561q229 223 555 223q186 0 358 -78t273 -202l-58 -54q-90 117 -247 189q-152 69 -321 69h-5q-299 0 -502 -202q-201 -205 -201 -506q0 -303 195 -504q197 -199 496 -199q344 0 606 271v378h-662v76h742v-479q-278 -322 -686 -322q-336 0 -553 222 q-219 223 -219 557z" />
<glyph unicode="H" horiz-adv-x="1482" d="M215 0v1513h82v-737h889v737h82v-1513h-82v700h-889v-700h-82z" />
<glyph unicode="I" horiz-adv-x="512" d="M215 0v1513h82v-1513h-82z" />
<glyph unicode="J" horiz-adv-x="1120" d="M53 180l56 53q139 -182 366 -182q160 0 262.5 108.5t102.5 286.5v1067h82v-1044q0 -242 -127 -369q-125 -125 -318 -125q-262 0 -424 205z" />
<glyph unicode="K" horiz-adv-x="1228" d="M215 0v1513h82v-915l784 915h101l-607 -714l664 -799h-106l-615 735l-2 -2l-219 -254v-479h-82z" />
<glyph unicode="L" horiz-adv-x="1189" d="M215 0v1513h82v-1437h862v-76h-944z" />
<glyph unicode="M" horiz-adv-x="1835" d="M215 0v1513h37l668 -983l661 983h39v-1513h-80v1313l-610 -907h-21l-614 905v-1311h-80z" />
<glyph unicode="N" horiz-adv-x="1564" d="M215 0v1513h41l1012 -1339v1339h82v-1513h-50l-1003 1325v-1325h-82z" />
<glyph unicode="O" horiz-adv-x="1765" d="M106 759q0 321 226 552q227 229 551 229q326 0 549 -229q227 -229 227 -553t-227 -553q-223 -229 -549 -230q-324 0 -551 230q-226 232 -226 554zM188 757.5q0 -294.5 203 -499.5q203 -207 491.5 -207t491.5 207t203 500q0 295 -203 499q-203 207 -491.5 207t-491.5 -207 q-203 -205 -203 -499.5z" />
<glyph unicode="P" horiz-adv-x="1218" d="M215 0v1513h447q236 0 358 -137q125 -137 125 -325q0 -190 -131 -328q-129 -135 -371 -135h-346v-588h-82zM297 664h346q193 0 305 106q115 109 115 281q0 170 -111 278q-109 109 -290 109h-365v-774z" />
<glyph unicode="Q" horiz-adv-x="1765" d="M106 759q0 321 226 552q227 229 551 229q326 0 549 -229q227 -229 227 -553q0 -279 -172 -492q-174 -215 -436 -272q170 -170 387 -170q106 0 194 37l13 -74q-92 -39 -207 -39q-281 0 -486 229q-6 0 -33.5 -1t-35.5 -1q-324 0 -551 230q-226 232 -226 554zM188 757.5 q0 -294.5 203 -499.5q203 -207 491.5 -207t491.5 207t203 500q0 295 -203 499q-203 207 -491.5 207t-491.5 -207q-203 -205 -203 -499.5z" />
<glyph unicode="R" horiz-adv-x="1243" d="M215 0v1513h426q236 0 358 -127q125 -125 125 -305q0 -152 -98 -270q-95 -117 -283 -152l387 -659h-94l-377 651q-10 -2 -45 -2h-317v-649h-82zM297 725h321q197 0 310.5 98.5t113.5 260t-109.5 258t-291.5 96.5h-344v-713z" />
<glyph unicode="S" horiz-adv-x="1120" d="M70 291l69 35q123 -274 416 -275q170 0 276 92q111 96 111 238q0 96 -53 163.5t-172 123.5q-66 31 -162 69l-129 54q-279 123 -279 364q0 168 117 277q118 108 304 108h3q268 0 420 -225l-63 -45q-132 194 -353 194h-2q-152 0 -248 -86t-96 -223q0 -92 50.5 -159.5 t169.5 -127.5q37 -18 153 -67q109 -43 158 -66q264 -125 264 -354q0 -178 -133 -293q-131 -113 -330 -113q-164 0 -294 81t-197 235z" />
<glyph unicode="T" horiz-adv-x="1071" d="M31 1438v75h1009v-75h-462v-1438h-82v1438h-465z" />
<glyph unicode="U" horiz-adv-x="1378" d="M199 483v1030h82v-1021q0 -207 108.5 -322t301 -115t300 115t107.5 322v1021h82v-1030q0 -236 -133 -374q-133 -135 -357 -136q-223 0 -358 136q-133 138 -133 374z" />
<glyph unicode="V" horiz-adv-x="1302" d="M31 1513h84l538 -1372l531 1372h84l-594 -1513h-41z" />
<glyph unicode="W" horiz-adv-x="2048" d="M39 1513h76l438 -1363l453 1363h36l457 -1361l434 1361h74l-489 -1513h-39l-455 1358l-451 -1358h-38z" />
<glyph unicode="X" horiz-adv-x="1169" d="M29 0l508 770l-486 743h99l436 -667l438 667h98l-487 -743l502 -770h-99l-454 696l-457 -696h-98z" />
<glyph unicode="Y" horiz-adv-x="1187" d="M47 1513h90l457 -806l459 806h90l-508 -878v-635h-82v635z" />
<glyph unicode="Z" horiz-adv-x="1130" d="M47 0v51l911 1387h-872v75h963v-79l-889 -1358h911v-76h-1024z" />
<glyph unicode="[" horiz-adv-x="731" d="M203 -465v2126h512v-76h-430v-1974h430v-76h-512z" />
<glyph unicode="\" horiz-adv-x="1132" d="M47 1690h76l964 -1942h-75z" />
<glyph unicode="]" horiz-adv-x="731" d="M16 -389h430v1974h-430v76h512v-2126h-512v76z" />
<glyph unicode="^" horiz-adv-x="1013" d="M102 883l396 630h20l393 -630h-88l-315 514l-318 -514h-88z" />
<glyph unicode="_" horiz-adv-x="1169" d="M0 -176h1169v-76h-1169v76z" />
<glyph unicode="`" horiz-adv-x="872" d="M117 1589h108l123 -319h-67z" />
<glyph unicode="a" horiz-adv-x="1353" d="M96 553q0 242 154 405q154 164 387 164q154 0 274.5 -71.5t186.5 -200.5v246h82v-1096h-82v252q-66 -129 -188 -204t-273 -75q-231 0 -387 166q-154 168 -154 414zM178 551q0 -215 129 -358.5t328 -143.5q205 0 336 148q135 147 135 358q0 203 -135 348 q-131 143 -336 144q-199 0 -328 -141.5t-129 -354.5z" />
<glyph unicode="b" horiz-adv-x="1359" d="M174 0v1542h82v-706q68 131 190.5 207.5t276.5 76.5q231 0 385 -166q156 -164 156 -407q0 -246 -156 -410q-154 -166 -385 -166q-154 0 -277.5 78t-189.5 213v-262h-82zM254 553q0 -209 133 -358q135 -148 338 -148q199 0 328 143q129 145 129 357q0 211 -129 354 t-328 143q-203 0 -338 -143q-133 -145 -133 -348z" />
<glyph unicode="c" horiz-adv-x="1214" d="M98 547q0 252 158 414q159 161 400 161h3q164 0 294 -74.5t194 -205.5l-68 -37q-53 111 -165.5 176.5t-254.5 65.5q-209 0 -344 -140q-135 -137 -135 -360q0 -221 131 -358.5t336 -137.5q139 0 255 66.5t173 177.5l66 -41q-68 -129 -201 -204t-293 -75q-238 0 -395 160 q-154 164 -154 412z" />
<glyph unicode="d" horiz-adv-x="1359" d="M96 547q0 242 154 407q156 166 387 166q154 0 276.5 -76.5t190.5 -207.5v706h82v-1542h-82v262q-66 -135 -189.5 -213t-277.5 -78q-231 0 -387 166q-154 166 -154 410zM178 547q0 -211 129 -357q129 -143 328 -143q205 0 336 148q135 147 135 358q0 205 -135 348 q-131 143 -336 143q-199 0 -328 -143t-129 -354z" />
<glyph unicode="e" horiz-adv-x="1230" d="M98 551q0 248 148 410q149 161 390 161h3q217 0 356 -137q144 -136 144 -369q0 -23 -6 -96h-953q10 -217 138 -343t344 -126q113 0 224 37t185 98l43 -61q-78 -66 -200.5 -108t-254.5 -42q-276 0 -418.5 169t-142.5 407zM182 596h875q0 207 -115 328q-115 123 -303 123 q-193 0 -320 -123q-125 -123 -137 -328z" />
<glyph unicode="f" horiz-adv-x="774" d="M45 1020v76h193v96q0 180 98 280.5t266 100.5q119 0 234 -62l-35 -63q-90 49 -199 49q-133 0 -208 -80t-75 -225v-96h451v-76h-451v-1020h-81v1020h-193z" />
<glyph unicode="g" horiz-adv-x="1353" d="M96 559q0 236 154 399q158 164 387 164q152 0 273.5 -72.5t189.5 -197.5v244h80v-1010q0 -256 -150 -403q-147 -147 -405 -147q-1 -1 -2 -1q-257 0 -463 156l45 65q199 -145 422 -145q221 0 346 126t125 349v184q-68 -129 -187.5 -201.5t-271.5 -72.5q-233 0 -389 162 q-154 162 -154 401zM178 559q0 -207 129 -348q129 -139 328 -139q205 0 336 143q135 145 135 350t-135 342q-133 139 -336 140q-199 0 -328 -140q-129 -137 -129 -348z" />
<glyph unicode="h" horiz-adv-x="1249" d="M174 0v1542h78v-665q94 247 399 247h2q188 0 312 -123q125 -119 125 -342v-659h-82v659q0 178 -95.5 284t-259.5 106q-66 0 -130 -20.5t-126.5 -65.5t-101.5 -134.5t-39 -210.5v-618h-82z" />
<glyph unicode="i" horiz-adv-x="430" d="M119 1360q0 37 25.5 61.5t60.5 24.5t59.5 -24.5t24.5 -61.5q0 -35 -24.5 -59.5t-59.5 -24.5t-60.5 24.5t-25.5 59.5zM162 0v1096h82v-1096h-82z" />
<glyph unicode="j" horiz-adv-x="479" d="M-201 -416l29 70q84 -45 174 -45q104 0 162.5 67.5t58.5 190.5v1229h82v-1229q0 -158 -82 -246t-223 -88q-113 0 -201 51zM180 1360q0 37 25.5 61.5t60.5 24.5t59.5 -24.5t24.5 -61.5q0 -35 -24.5 -59.5t-59.5 -24.5t-60.5 24.5t-25.5 59.5z" />
<glyph unicode="k" horiz-adv-x="995" d="M174 0v1542h82v-960l575 514h107l-485 -439l555 -657h-103l-510 608l-139 -127v-481h-82z" />
<glyph unicode="l" horiz-adv-x="430" d="M174 0v1542h82v-1542h-82z" />
<glyph unicode="m" horiz-adv-x="1931" d="M174 0v1096h80v-199q43 109 138 168t218 59q127 0 224.5 -67.5t140.5 -194.5q51 129 155.5 195.5t233.5 66.5q170 0 289 -108q119 -106 119 -311v-705h-82v705q0 160 -87 252t-235 92q-55 0 -111.5 -17.5t-114 -56.5t-93 -115t-35.5 -180v-680h-82v684q0 166 -86 265.5 t-232 99.5q-115 0 -227 -84q-59 -45 -95 -136.5t-36 -210.5v-618h-82z" />
<glyph unicode="n" horiz-adv-x="1249" d="M174 0v1096h78v-219q94 247 399 247h2q188 0 312 -123q125 -119 125 -342v-659h-82v659q0 178 -95.5 284t-259.5 106q-66 0 -130 -20.5t-126.5 -65.5t-101.5 -134.5t-39 -210.5v-618h-82z" />
<glyph unicode="o" horiz-adv-x="1327" d="M96 549q0 244 162 407q164 166 405.5 166t405.5 -166q162 -164 162 -407q0 -246 -162 -410q-164 -166 -405.5 -166t-405.5 166q-162 164 -162 410zM178 549q0 -213 137.5 -356.5t348 -143.5t348 143.5t137.5 356.5q0 215 -137 354q-137 143 -348 143q-1 0 -1 1 q-210 0 -348 -144q-137 -139 -137 -354z" />
<glyph unicode="p" horiz-adv-x="1359" d="M174 -451v1547h82v-262q66 135 189.5 212.5t277.5 77.5q231 0 385 -166q156 -164 156 -409q0 -244 -156 -408q-154 -166 -385 -166q-154 0 -276.5 77t-190.5 208v-711h-82zM254 543q0 -203 133 -348q135 -144 338 -144q199 0 328 144q129 145 129 354t-129 354.5 t-328 145.5q-203 0 -338 -148q-133 -150 -133 -358z" />
<glyph unicode="q" horiz-adv-x="1359" d="M96 549q0 244 154 409q156 166 387 166q154 0 277.5 -77.5t189.5 -212.5v262h82v-1547h-82v711q-68 -131 -190.5 -208t-276.5 -77q-231 0 -387 166q-154 166 -154 408zM178 549q0 -209 129 -354q129 -144 328 -144q205 0 336 144q135 143 135 348q0 211 -135 358 q-131 147 -336 148q-199 0 -328 -145.5t-129 -354.5z" />
<glyph unicode="r" horiz-adv-x="722" d="M174 0v1096h76v-185q90 213 319 213q76 0 140 -20l-13 -74q-55 18 -118 19q-164 0 -244 -117q-78 -119 -78 -285v-647h-82z" />
<glyph unicode="s" horiz-adv-x="897" d="M70 213l69 39q98 -201 307 -201q123 0 203 69.5t80 170.5q0 70 -40 116t-124 85q-23 12 -131 53q-76 29 -125 53q-182 90 -182 252q0 123 89 203t239 80q217 0 321 -170l-59 -41q-80 135 -258 135q-117 0 -184.5 -56.5t-67.5 -148.5q0 -119 141 -188q45 -20 127 -54 q84 -33 139 -59q102 -47 149.5 -104.5t47.5 -147.5q0 -135 -102 -231q-102 -93 -258 -93q-125 0 -225.5 60.5t-155.5 177.5z" />
<glyph unicode="t" horiz-adv-x="835" d="M25 1020v76h194v387h82v-387h492v-76h-492v-670q0 -145 61.5 -222t180.5 -77q144 0 250 82l38 -61q-127 -96 -294 -97q-156 0 -237 97.5t-81 271.5v676h-194z" />
<glyph unicode="u" horiz-adv-x="1187" d="M160 420v676h82v-674q0 -172 95 -272.5t257 -100.5q166 0 259 99.5t93 275.5v672h82v-676q0 -205 -115.5 -326t-318.5 -121q-197 0 -318 121q-117 123 -116 326z" />
<glyph unicode="v" horiz-adv-x="1077" d="M35 1096h88l416 -953l413 953h90l-483 -1094h-41z" />
<glyph unicode="w" horiz-adv-x="1640" d="M37 1096h86l330 -946l342 946l51 -2l342 -944l330 946h86l-396 -1094h-41l-348 975l-346 -975h-41z" />
<glyph unicode="x" horiz-adv-x="931" d="M33 0l385 561l-357 535h97l309 -463l317 463h97l-367 -535l375 -561h-96l-328 489l-336 -489h-96z" />
<glyph unicode="y" horiz-adv-x="1062" d="M37 -426l18 72q74 -35 138 -35q94 0 159.5 82t132.5 258l17 45l-463 1100h84l418 -998l401 998h86l-461 -1143q-92 -231 -172 -324q-80 -94 -207 -94q-82 0 -151 39z" />
<glyph unicode="z" horiz-adv-x="937" d="M55 0v63l703 957h-668v74h754v-76l-690 -944h729v-74h-828z" />
<glyph unicode="{" horiz-adv-x="669" d="M53 563v64q90 6 144.5 59t54.5 154q0 59 -8 209q-6 168 -6 258q0 354 331 354h76v-76h-76q-129 0 -189.5 -67.5t-60.5 -210.5q0 -86 7 -256q8 -150 8 -211q0 -180 -133 -246q133 -66 133 -246q0 -61 -8 -211q-6 -168 -7 -254q0 -281 250 -280h76v-76h-76q-332 0 -331 356 q0 86 6 256q8 150 8 209q0 197 -199 215z" />
<glyph unicode="|" horiz-adv-x="487" d="M203 -367v2102h82v-2102h-82z" />
<glyph unicode="}" horiz-adv-x="669" d="M25 -397h75q250 0 250 280q0 104 -8 254q-6 170 -6 211q0 180 133 246q-133 66 -133 246q0 41 6 211q8 150 8 256q0 143 -60.5 210.5t-189.5 67.5h-75v76h75q332 0 332 -354q0 -109 -8 -258q-6 -168 -6 -209q0 -100 54 -153.5t144 -59.5v-64q-199 -18 -198 -215 q0 -41 6 -209q8 -150 8 -256q0 -356 -332 -356h-75v76z" />
<glyph unicode="~" horiz-adv-x="1265" d="M156 639q117 170 305 170q86 0 211 -69.5t178 -69.5q68 0 112 26.5t93 94.5l57 -48q-57 -80 -116.5 -114.5t-145.5 -34.5q-82 0 -203 69.5t-186 69.5q-80 0 -136.5 -32.5t-111.5 -106.5z" />
<glyph unicode="&#xa2;" horiz-adv-x="1239" d="M102.5 547q-0.5 239 141.5 395q141 156 362 178v168h82v-166q156 -6 280 -80.5t183 -199.5l-68 -37q-51 106 -156.5 171t-238.5 71v-994q127 8 231.5 74t159.5 168l66 -41q-61 -121 -184 -194.5t-273 -82.5v-163h-82v163q-219 14 -362 175q-141 156 -141.5 395zM184 547 q0 -207 117 -342q121 -138 305 -152v991q-186 -20 -305 -155q-117 -135 -117 -342z" />
<glyph unicode="&#xa3;" horiz-adv-x="1105" d="M102 729v76h146q-68 211 -68 309q0 184 119 303q121 121 299 123q131 2 234.5 -59.5t158.5 -175.5l-69 -43q-104 207 -324 202q-147 -4 -241.5 -100t-94.5 -250q0 -66 17 -125q2 -10 5 -21.5t6 -19.5t3 -14q10 -25 22 -68q4 -16 9.5 -29.5t7.5 -21.5l4 -10h547v-76h-525 q33 -119 33 -229q0 -236 -143 -424h764v-76h-893v51q84 72 135 193q55 123 55 256q0 100 -37 229h-170z" />
<glyph unicode="&#xa5;" horiz-adv-x="1187" d="M72 1513h84l440 -796l442 796h82l-450 -800h338v-76h-373v-186h373v-76h-373v-375h-82v375h-377v76h377v186h-377v76h344z" />
<glyph unicode="&#xa8;" horiz-adv-x="1011" d="M123 1417q0 37 27.5 64.5t68.5 27.5t68.5 -27.5t27.5 -64.5q4 -57 -46 -81.5t-100 0t-46 81.5zM483 1417q0 37 28 64.5t69 27.5t68.5 -27.5t27.5 -64.5q4 -57 -46 -81.5t-100.5 0t-46.5 81.5z" />
<glyph unicode="&#xa9;" horiz-adv-x="1785" d="M104 756q0 322 231.5 553t557.5 231t557 -231.5t231 -552.5q0 -319 -231 -551q-229 -229 -557 -229.5t-557 229.5q-232 232 -232 551zM186 756q0 -291 207 -498t500 -207t499.5 207t206.5 498q0 293 -206 499q-205 209 -500 209t-500 -209q-207 -207 -207 -499z M483 755.5q0 182.5 119 301.5t295 119q193 0 326 -158l-56 -45q-104 131 -266 131q-143 0 -244 -98q-98 -98 -98 -250q0 -150 98 -250q100 -98 244 -98q160 0 273 118l49 -45q-129 -145 -326 -145q-176 0 -295 118.5t-119 301z" />
<glyph unicode="&#xaa;" horiz-adv-x="835" d="M113 999q0 100 80.5 161t216.5 61q96 0 200 -27v35q0 215 -209 215q-131 0 -215 -68l-41 54q96 77 254 77q129 0 205 -71.5t76 -206.5v-428h-70v106q-80 -125 -248 -125q-113 0 -181 60.5t-68 156.5zM182 999q0 -72 49 -112.5t129 -40.5q106 0 178 68.5t72 189.5v22 q-104 31 -200 31q-109 0 -168.5 -42t-59.5 -116z" />
<glyph unicode="&#xab;" horiz-adv-x="987" d="M104 596l299 416h86l-299 -416l299 -416h-86zM469 596l299 416h86l-299 -416l299 -416h-86z" />
<glyph unicode="&#xad;" horiz-adv-x="1081" d="M150 530v76h782v-76h-782z" />
<glyph unicode="&#xae;" horiz-adv-x="1175" d="M100 1073q1 201 144 342q143 143 344 144q199 0 344 -146q143 -143 143 -344t-143 -344q-145 -141 -344 -141q-201 0 -344.5 143t-143.5 346zM166 1071q0 -174 125 -299t297 -125q170 0 295 125q127 127 127 299t-127 299q-125 125 -295 125q-172 0 -297 -125t-125 -299z M432 829v494h180q68 0 112 -43t44 -111q0 -117 -115 -145l115 -195h-68l-106 189h-105v-189h-57zM489 1069h99q127 0 127 100q0 45 -31 74t-84 29h-111v-203z" />
<glyph unicode="&#xb2;" horiz-adv-x="673" d="M80 1753q115 115 248 115q104 0 171.5 -63.5t67.5 -164.5q0 -108 -172 -309l-192 -221h377v-72h-482l-2 64l230 260q88 98 125.5 160.5t37.5 119.5q0 68 -46 112t-117 44q-104 0 -201 -98z" />
<glyph unicode="&#xb3;" horiz-adv-x="616" d="M45 1110l37 61q106 -72 211 -71q90 0 143 44t53 118q0 156 -202 155h-90v74h79q94 0 145.5 44t51.5 111.5t-48 107.5t-126 40q-115 0 -197 -80l-41 55q96 98 242 99q111 0 180.5 -60.5t69.5 -152.5q0 -70 -40 -121t-105 -72v-4q76 -16 118.5 -70.5t42.5 -127.5 q0 -102 -76.5 -168t-197.5 -66q-131 0 -250 84z" />
<glyph unicode="&#xb4;" horiz-adv-x="931" d="M129 1270l123 319h108l-163 -319h-68z" />
<glyph unicode="&#xb8;" horiz-adv-x="634" d="M123 -463l24 60q86 -41 170 -41t137.5 45t53.5 104q0 49 -36 80t-103 31h-127l-15 26l74 199h74l-66 -168q25 6 76 6q84 0 138.5 -46t54.5 -126q0 -90 -71 -152.5t-190 -62.5q-96 0 -194 45z" />
<glyph unicode="&#xb9;" horiz-adv-x="522" d="M57 1638l265 211h57v-811h-78v701l-201 -160z" />
<glyph unicode="&#xba;" horiz-adv-x="913" d="M102 1141q0 158 101 260q100 106 254 106q152 0 252 -106q102 -106 102 -260q0 -152 -102 -258q-102 -102 -252 -103q-152 0 -254 103q-101 102 -101 258zM172 1141q0 -127 80 -213q84 -84 205 -84q123 0 202 84q82 84 82 213q0 133 -82 217q-80 86 -202 86 q-121 0 -205 -86q-80 -86 -80 -217z" />
<glyph unicode="&#xbb;" horiz-adv-x="987" d="M133 180l299 416l-299 416h86l299 -416l-299 -416h-86zM498 180l299 416l-299 416h86l299 -416l-299 -416h-86z" />
<glyph unicode="&#xc2;" horiz-adv-x="1308" d="M35 0l594 1513h51l592 -1513h-88l-191 496h-678l-192 -496h-88zM340 571h627l-314 805zM354 1630l281 309h39l280 -309h-86l-215 234l-215 -234h-84z" />
<glyph unicode="&#xc7;" horiz-adv-x="1617" d="M109 752q0 344 227 565q229 223 553 223q209 0 385 -94q180 -94 274 -244l-63 -39q-84 135 -246 217q-164 84 -352 84q-297 0 -498 -200q-199 -199 -199 -506t197 -506q199 -199 498 -199q182 0 343 78t261 215l57 -43q-115 -152 -288 -239t-373 -87h-8l-43 -108 q25 6 75 6q84 0 138.5 -46t54.5 -126q0 -90 -70.5 -152.5t-189.5 -62.5q-96 0 -195 45l25 59q86 -41 170 -41t137 45.5t53 104.5q0 49 -35.5 80t-103.5 31h-127l-14 26l53 144q-297 27 -498 239q-199 211 -198 531z" />
<glyph unicode="&#xce;" horiz-adv-x="512" d="M-20 1630l280 309h39l281 -309h-86l-215 234l-216 -234h-83zM240 0v1513h82v-1513h-82z" />
<glyph unicode="&#xd6;" horiz-adv-x="1765" d="M106.5 757.5q-0.5 321.5 225.5 553.5q227 229 551 229q326 0 549 -229q227 -229 227 -553t-227 -553q-223 -229 -549 -230q-324 0 -551 230q-225 231 -225.5 552.5zM188 757.5q0 -294.5 203 -499.5q203 -207 491.5 -207t491.5 207t203 500q0 295 -203 499 q-203 207 -491.5 207t-491.5 -207q-203 -205 -203 -499.5zM604 1755q0 37 27.5 64.5t68.5 27.5t69 -27.5t28 -64.5q4 -57 -46.5 -81.5t-100.5 0t-46 81.5zM965 1755q0 37 27.5 64.5t68.5 27.5t68.5 -27.5t27.5 -64.5q4 -57 -46 -81.5t-100 0t-46 81.5z" />
<glyph unicode="&#xdb;" horiz-adv-x="1378" d="M199 483v1030h82v-1021q0 -207 108.5 -322t301 -115t300 115t107.5 322v1021h82v-1030q0 -236 -133 -374q-133 -135 -357 -136q-223 0 -358 136q-133 138 -133 374zM383 1630l281 309h38l281 -309h-86l-215 234l-215 -234h-84z" />
<glyph unicode="&#xdc;" horiz-adv-x="1378" d="M199 483v1030h82v-1021q0 -207 108.5 -322t301 -115t300 115t107.5 322v1021h82v-1030q0 -236 -133 -374q-133 -135 -357 -136q-223 0 -358 136q-133 138 -133 374zM408 1755q0 37 27.5 64.5t68.5 27.5t68.5 -27.5t27.5 -64.5q4 -57 -46 -81.5t-100 0t-46 81.5zM768 1755 q0 37 27.5 64.5t68.5 27.5t69 -27.5t28 -64.5q4 -57 -46.5 -81.5t-100.5 0t-46 81.5z" />
<glyph unicode="&#xe2;" horiz-adv-x="1353" d="M96 553q0 242 154 405q154 164 387 164q154 0 274.5 -71.5t186.5 -200.5v246h82v-1096h-82v252q-66 -129 -188 -204t-273 -75q-231 0 -387 166q-154 168 -154 414zM178 551q0 -215 129 -358.5t328 -143.5q205 0 336 148q135 147 135 358q0 203 -135 348 q-131 143 -336 144q-199 0 -328 -141.5t-129 -354.5zM360 1268l281 309h39l281 -309h-87l-215 233l-215 -233h-84z" />
<glyph unicode="&#xe7;" horiz-adv-x="1214" d="M98 547q0 252 158 414q160 162 403 161q164 0 294 -74.5t194 -205.5l-68 -37q-53 111 -165.5 176.5t-254.5 65.5q-209 0 -344 -140q-135 -137 -135 -360q0 -221 131 -358.5t336 -137.5q139 0 255 66.5t173 177.5l66 -41q-68 -129 -199 -203t-291 -76l-41 -102q25 6 76 6 q84 0 138.5 -46t54.5 -126q0 -90 -71 -152.5t-190 -62.5q-96 0 -194 45l25 60q86 -41 169.5 -41t137 45t53.5 104q0 49 -36 80t-103 31h-127l-15 26l52 138q-217 23 -349 178q-133 158 -133 389z" />
<glyph unicode="&#xee;" horiz-adv-x="430" d="M-96 1268l280 309h39l281 -309h-86l-215 233l-215 -233h-84zM162 0v1096h82v-1096h-82z" />
<glyph unicode="&#xf6;" horiz-adv-x="1327" d="M96 549q0 244 162 407q164 166 405.5 166t405.5 -166q162 -164 162 -407q0 -246 -162 -410q-164 -166 -405.5 -166t-405.5 166q-162 164 -162 410zM178 549q0 -213 137.5 -356.5t348 -143.5t348 143.5t137.5 356.5q0 215 -137 354q-137 143 -348 143.5t-349 -143.5 q-137 -139 -137 -354zM387 1386q0 37 27.5 65t68.5 28t69 -28t28 -65q4 -57 -46.5 -81.5t-100.5 0t-46 81.5zM748 1386q0 37 27.5 65t68.5 28t68.5 -28t27.5 -65q4 -57 -46 -81.5t-100 0t-46 81.5z" />
<glyph unicode="&#xfb;" horiz-adv-x="1187" d="M160 420v676h82v-674q0 -172 95 -272.5t257 -100.5q166 0 259 99.5t93 275.5v672h82v-676q0 -205 -115.5 -326t-318.5 -121q-197 0 -318 121q-117 123 -116 326zM295 1268l280 309h39l281 -309h-86l-215 233l-215 -233h-84z" />
<glyph unicode="&#xfc;" horiz-adv-x="1187" d="M160 420v676h82v-674q0 -172 95 -272.5t257 -100.5q166 0 259 99.5t93 275.5v672h82v-676q0 -205 -115.5 -326t-318.5 -121q-197 0 -318 121q-117 123 -116 326zM317 1386q0 37 28 65t69 28t68.5 -28t27.5 -65q4 -57 -46 -81.5t-100.5 0t-46.5 81.5zM678 1386 q0 37 27.5 65t68.5 28t68.5 -28t27.5 -65q4 -57 -46 -81.5t-100 0t-46 81.5z" />
<glyph unicode="&#x11e;" horiz-adv-x="1687" d="M109 756q0 340 229 561q229 223 555 223q186 0 358 -78t273 -202l-58 -54q-90 117 -247 189q-154 70 -326 69q-299 0 -502 -202q-201 -205 -201 -506q0 -303 195 -504q197 -199 496 -199q344 0 606 271v378h-662v76h742v-479q-278 -322 -686 -322q-336 0 -553 222 q-219 223 -219 557zM563 1937h76q6 -246 243.5 -245.5t243.5 245.5h78q0 -143 -86 -227t-235.5 -84t-234.5 83t-85 228z" />
<glyph unicode="&#x11f;" horiz-adv-x="1353" d="M96 559q0 236 154 399q158 164 387 164q152 0 273.5 -72.5t189.5 -197.5v244h80v-1010q0 -256 -150 -403q-147 -147 -405 -147.5t-465 155.5l45 65q199 -145 422 -145q221 0 346 126t125 349v184q-68 -129 -187.5 -201.5t-271.5 -72.5q-233 0 -389 162q-154 162 -154 401 zM178 559q0 -207 129 -348q129 -139 328 -139q205 0 336 143q135 145 135 350t-135 342q-133 139 -336 140q-199 0 -328 -140q-129 -137 -129 -348zM307 1573h76q6 -246 243.5 -246t243.5 246h78q0 -143 -86 -227t-235.5 -84t-234.5 83t-85 228z" />
<glyph unicode="&#x130;" horiz-adv-x="512" d="M197 1749q0 37 25.5 61.5t60 24.5t59.5 -24.5t25 -61.5q0 -35 -25 -59.5t-59.5 -24.5t-60 24.5t-25.5 59.5zM240 0v1513h82v-1513h-82z" />
<glyph unicode="&#x131;" horiz-adv-x="430" d="M174 0v1096h82v-1096h-82z" />
<glyph unicode="&#x15e;" horiz-adv-x="1120" d="M70 291l69 35q123 -274 416 -275q170 0 276 92q111 96 111 238q0 96 -53 163.5t-172 123.5q-66 31 -162 69l-129 54q-279 123 -279 364q0 168 117 277q119 109 307 108q268 0 420 -225l-63 -45q-133 195 -355 194q-152 0 -248 -86t-96 -223q0 -92 50.5 -159.5 t169.5 -127.5q37 -18 153 -67q109 -43 158 -66q264 -125 264 -354q0 -178 -133 -293q-131 -109 -328 -113l-55 -143q25 6 76 6q84 0 138 -46t54 -126q0 -90 -70.5 -152.5t-189.5 -62.5q-96 0 -194 45l24 60q86 -41 170 -41t137.5 45t53.5 104q0 49 -36 80t-104 31h-127 l-14 26l66 179q-299 35 -422 311z" />
<glyph unicode="&#x15f;" horiz-adv-x="897" d="M70 213l69 39q98 -201 307 -201q123 0 203 69.5t80 170.5q0 70 -40 116t-124 85q-23 12 -131 53q-76 29 -125 53q-182 90 -182 252q0 123 89 203t239 80q217 0 321 -170l-59 -41q-80 135 -258 135q-117 0 -184.5 -56.5t-67.5 -148.5q0 -119 141 -188q45 -20 127 -54 q84 -33 139 -59q102 -47 149.5 -104.5t47.5 -147.5q0 -135 -102 -231q-102 -93 -258 -93h-9l-41 -106q25 6 76 6q84 0 138.5 -46t54.5 -126q0 -90 -71 -152.5t-189 -62.5q-96 0 -195 45l25 59q86 -41 170 -41t137 45.5t53 104.5q0 49 -36 80t-103 31h-127l-15 26l54 144 q-207 33 -303 231z" />
<glyph unicode="&#x218;" horiz-adv-x="1120" d="M70 291l69 35q123 -274 416 -275q170 0 276 92q111 96 111 238q0 96 -53 163.5t-172 123.5q-66 31 -162 69l-129 54q-279 123 -279 364q0 168 117 277q119 109 307 108q268 0 420 -225l-63 -45q-133 195 -355 194q-152 0 -248 -86t-96 -223q0 -92 50.5 -159.5 t169.5 -127.5q37 -18 153 -67q109 -43 158 -66q264 -125 264 -354q0 -178 -133 -293q-131 -113 -330 -113q-164 0 -294 81t-197 235zM436 -446q137 88 168 194q-23 -23 -57 -22q-31 0 -52.5 22.5t-21.5 52.5q0 37 25.5 61.5t64.5 24.5t65.5 -29.5t26.5 -74.5 q0 -68 -52 -139.5t-142 -126.5z" />
<glyph unicode="&#x219;" horiz-adv-x="897" d="M70 213l69 39q98 -201 307 -201q123 0 203 69.5t80 170.5q0 70 -40 116t-124 85q-23 12 -131 53q-76 29 -125 53q-182 90 -182 252q0 123 89 203t239 80q217 0 321 -170l-59 -41q-80 135 -258 135q-117 0 -184.5 -56.5t-67.5 -148.5q0 -119 141 -188q45 -20 127 -54 q84 -32 139 -59q102 -47 149.5 -104.5t47.5 -147.5q0 -135 -102 -231q-102 -92 -258 -93q-125 0 -225.5 60.5t-155.5 177.5zM315 -440q137 88 168 194q-23 -23 -57 -22q-29 0 -51.5 21.5t-22.5 53.5q0 37 25.5 62t64.5 25t66 -30t27 -75q0 -68 -52.5 -139.5t-142.5 -126.5z " />
<glyph unicode="&#x2c6;" horiz-adv-x="1177" d="M123 1284l280 309h39l281 -309h-86l-215 234l-215 -234h-84z" />
<glyph unicode="&#x2da;" horiz-adv-x="774" d="M123 1464q0 92 65.5 158t159.5 66t159.5 -66t65.5 -158q0 -90 -65 -155q-63 -63 -159.5 -63.5t-160.5 63.5q-65 65 -65 155zM184 1464q0 -68 47.5 -113.5t117 -45.5t116.5 45.5t47 113.5q0 70 -47 117t-116.5 47t-117 -47t-47.5 -117z" />
<glyph unicode="&#x2dc;" horiz-adv-x="1103" d="M131 1376q18 66 71.5 110t117 44t135 -59.5t112.5 -59.5q39 0 77 34t52 75l45 -19q-18 -66 -67 -110.5t-113 -44.5q-70 0 -139 57q-72 59 -111 59q-43 0 -81 -32.5t-52 -73.5z" />
<glyph unicode="&#x2000;" horiz-adv-x="1024" />
<glyph unicode="&#x2001;" horiz-adv-x="2048" />
<glyph unicode="&#x2002;" horiz-adv-x="1024" />
<glyph unicode="&#x2003;" horiz-adv-x="2048" />
<glyph unicode="&#x2004;" horiz-adv-x="682" />
<glyph unicode="&#x2005;" horiz-adv-x="512" />
<glyph unicode="&#x2006;" horiz-adv-x="341" />
<glyph unicode="&#x2007;" horiz-adv-x="341" />
<glyph unicode="&#x2008;" horiz-adv-x="256" />
<glyph unicode="&#x2009;" horiz-adv-x="159" />
<glyph unicode="&#x200a;" horiz-adv-x="113" />
<glyph unicode="&#x2010;" horiz-adv-x="1081" d="M150 530v76h782v-76h-782z" />
<glyph unicode="&#x2011;" horiz-adv-x="1081" d="M150 530v76h782v-76h-782z" />
<glyph unicode="&#x2012;" horiz-adv-x="1081" d="M150 530v76h782v-76h-782z" />
<glyph unicode="&#x2013;" horiz-adv-x="1406" d="M150 530v76h1107v-76h-1107z" />
<glyph unicode="&#x2014;" horiz-adv-x="2060" d="M150 530v76h1761v-76h-1761z" />
<glyph unicode="&#x2018;" horiz-adv-x="432" d="M113 1280q0 68 52 139.5t142 126.5l25 -37q-137 -88 -168 -194q22 22 57 22q29 0 51.5 -21.5t22.5 -53.5q0 -37 -25.5 -61.5t-64.5 -24.5t-65.5 29.5t-26.5 74.5z" />
<glyph unicode="&#x2019;" horiz-adv-x="425" d="M119 1206q137 88 168 195q-23 -23 -58 -23q-29 0 -51 21.5t-22 54.5q0 37 25.5 61.5t64.5 24.5t65.5 -29.5t26.5 -74.5q0 -68 -52.5 -139.5t-142.5 -127.5z" />
<glyph unicode="&#x201a;" horiz-adv-x="436" d="M106 -207q137 88 168 195q-23 -23 -57 -23q-29 0 -51.5 21.5t-22.5 54.5q0 37 26 61.5t64.5 24.5t65.5 -29.5t27 -74.5q0 -68 -52.5 -139.5t-142.5 -127.5z" />
<glyph unicode="&#x201c;" horiz-adv-x="784" d="M141 1280q0 68 52.5 139.5t142.5 126.5l24 -37q-137 -88 -167 -194q23 23 57 22q29 0 51.5 -21.5t22.5 -53.5q0 -37 -26 -61.5t-64.5 -24.5t-65.5 29.5t-27 74.5zM494 1280q0 68 52 139.5t142 126.5l25 -37q-137 -88 -168 -194q22 22 57 22q29 0 51.5 -21.5t22.5 -53.5 q0 -37 -25.5 -61.5t-64.5 -24.5t-65.5 29.5t-26.5 74.5z" />
<glyph unicode="&#x201d;" horiz-adv-x="778" d="M92 1210q137 88 168 195q-23 -23 -57 -23q-31 0 -52.5 21.5t-21.5 54.5q0 37 25.5 61.5t64.5 24.5t65.5 -29.5t26.5 -74.5q0 -68 -52 -139.5t-142 -126.5zM440 1210q137 88 168 195q-23 -23 -57 -23q-31 0 -52.5 21.5t-21.5 54.5q0 37 25.5 61.5t64.5 24.5t65.5 -29.5 t26.5 -74.5q0 -68 -52 -139.5t-142 -126.5z" />
<glyph unicode="&#x201e;" horiz-adv-x="780" d="M76 -209q137 88 168 195q-23 -23 -58 -23q-31 0 -52 22.5t-21 53.5q0 37 25.5 61.5t64.5 24.5t65.5 -30t26.5 -75q0 -68 -52.5 -139t-142.5 -127zM424 -209q137 88 168 195q-23 -23 -57 -23q-31 0 -52.5 22.5t-21.5 53.5q0 37 25.5 61.5t64.5 24.5t65.5 -30t26.5 -75 q0 -68 -52 -139t-142 -127z" />
<glyph unicode="&#x2026;" horiz-adv-x="1200" d="M171.5 6q-21.5 41 0 81t70.5 38q33 0 56.5 -22.5t23.5 -55.5q0 -35 -23.5 -57.5t-56.5 -22.5q-49 -2 -70.5 39zM553.5 87q21.5 40 71.5 38q33 0 56.5 -22.5t23.5 -55.5q0 -35 -23.5 -57.5t-56.5 -22.5q-49 -2 -71 39t-0.5 81zM936.5 87q21.5 40 71.5 38q33 0 56 -22.5 t23 -55.5q0 -35 -23 -57.5t-56 -22.5q-49 -2 -71 39t-0.5 81z" />
<glyph unicode="&#x202f;" horiz-adv-x="409" />
<glyph unicode="&#x2039;" horiz-adv-x="622" d="M104 596l299 416h86l-299 -416l299 -416h-86z" />
<glyph unicode="&#x203a;" horiz-adv-x="622" d="M133 180l299 416l-299 416h86l299 -416l-299 -416h-86z" />
<glyph unicode="&#x2044;" horiz-adv-x="327" d="M-469 0l1184 1513h86l-1182 -1513h-88z" />
<glyph unicode="&#x205f;" horiz-adv-x="512" />
<glyph unicode="&#x2070;" horiz-adv-x="751" d="M72 1448q0 170 73 295q76 125 230 125q109 0 178 -68q127 -117 127 -352q4 -106 -25.5 -198.5t-102.5 -157t-177 -66.5q-154 0 -230 125q-74 127 -73 297zM154 1448q0 -158 58.5 -251t162.5 -93q109 0 166 94t57 250q0 158 -57 248q-57 94 -166 94q-106 0 -163.5 -90 t-57.5 -252z" />
<glyph unicode="&#x2074;" horiz-adv-x="684" d="M25 1296l432 553h49v-532h94v-70h-94v-209h-76v209h-389zM127 1317h303v387z" />
<glyph unicode="&#x2075;" horiz-adv-x="645" d="M43 1124l41 62q104 -86 209 -86q94 0 150.5 54t56.5 142q0 86 -51.5 136.5t-137.5 50.5q-104 0 -178 -88l-51 35l43 411h403v-72h-344l-30 -272q65 53 165 53q115 0 189 -70.5t74 -185.5q0 -119 -81 -193.5t-206 -74.5q-131 0 -252 98z" />
<glyph unicode="&#x2076;" horiz-adv-x="704" d="M61 1421q0 184 86 316q88 131 252 131q123 0 209 -68l-35 -55q-72 57 -170 57q-96 0 -161 -67q-119 -119 -109 -340h2q18 74 87 121t155 47q113 0 188 -76q78 -74 78 -189q0 -117 -79 -194.5t-202 -77.5q-143 0 -222 108.5t-79 286.5zM160 1296q0 -82 61.5 -143 t147.5 -61q84 0 142 59t58 147q0 86 -58 143.5t-142 57.5q-86 0 -147.5 -59.5t-61.5 -143.5z" />
<glyph unicode="&#x2077;" horiz-adv-x="612" d="M63 1778v71h504v-51l-325 -760h-80l321 740h-420z" />
<glyph unicode="&#x2078;" horiz-adv-x="704" d="M57 1257q0 74 48.5 131.5t132.5 79.5v2q-145 59 -146 187q0 92 73 151.5t187.5 59.5t187 -60.5t72.5 -148.5q0 -61 -38.5 -112.5t-108.5 -76.5v-2q84 -23 133 -80t49 -131q0 -98 -83 -164.5t-212 -66.5t-212 66.5t-83 164.5zM135 1263.5q0 -73.5 60.5 -120.5t157 -47 t156.5 47t60 121q0 72 -56 121t-160.5 49t-161 -48.5t-56.5 -122zM170 1652.5q0 -63.5 48 -106.5t134 -43q61 0 106.5 28t63 67.5t8 83.5t-46.5 75q-49 43 -131 43q-80 0 -131 -42t-51 -105.5z" />
<glyph unicode="&#x2079;" horiz-adv-x="690" d="M61 1593q0 119 77 197t198 78q139 0 216 -108.5t77 -289.5q0 -186 -80 -315t-242 -129q-123 0 -205 68l33 55q76 -57 170 -57q137 0 199 120q61 123 55 289h-2q-18 -74 -86 -122t-149 -48q-111 0 -186 75t-75 187zM135 1595q0 -86 55.5 -143t139.5 -57q82 0 142 60.5 t60 142t-59 143t-143 61.5q-82 0 -138.5 -58t-56.5 -149z" />
<glyph unicode="&#x2080;" horiz-adv-x="751" d="M71.5 92q0.5 170 73.5 295q76 125 230 125q109 0 178 -68q127 -117 127 -352q4 -106 -25.5 -198.5t-102.5 -157t-177 -66.5q-152 0 -230 127q-74 125 -73.5 295zM154 92q0 -158 58.5 -251t162.5 -93q109 0 166 94.5t57 249.5q0 158 -57 248q-57 94 -166 94 q-106 0 -163.5 -90t-57.5 -252z" />
<glyph unicode="&#x2081;" horiz-adv-x="522" d="M57 283l265 211h57v-811h-78v700l-201 -160z" />
<glyph unicode="&#x2082;" horiz-adv-x="673" d="M80 397q115 115 248 115q104 0 171.5 -63.5t67.5 -163.5q0 -111 -172 -310l-192 -221h377v-71h-482l-2 63l230 260q88 98 125.5 160.5t37.5 120.5q0 68 -46 111.5t-117 43.5q-104 0 -201 -98z" />
<glyph unicode="&#x2083;" horiz-adv-x="616" d="M45 -246l37 62q106 -72 211 -72q90 0 143 44t53 118q0 156 -202 155h-90v74h79q94 0 145.5 44t51.5 111.5t-48 107.5t-126 40q-115 0 -197 -80l-41 56q94 98 242 98q111 0 180.5 -60.5t69.5 -152.5q0 -70 -40 -121t-105 -72v-4q76 -16 118.5 -70.5t42.5 -127.5 q0 -102 -76.5 -168t-197.5 -66q-131 0 -250 84z" />
<glyph unicode="&#x2084;" horiz-adv-x="684" d="M25 -59l432 553h49v-533h94v-70h-94v-208h-76v208h-389zM127 -39h303v387z" />
<glyph unicode="&#x2085;" horiz-adv-x="645" d="M43 -231l41 61q104 -86 209 -86q94 0 150.5 54.5t56.5 142.5q0 86 -51.5 136t-137.5 50q-104 0 -178 -88l-51 35l43 411h403v-71h-344l-30 -273q65 54 165 54q115 0 189 -71t74 -185q0 -119 -81 -194t-206 -75q-131 0 -252 99z" />
<glyph unicode="&#x2086;" horiz-adv-x="704" d="M61 66q0 184 86 315q88 131 252 131q123 0 209 -68l-35 -55q-72 57 -170 57q-96 0 -161 -67q-119 -119 -109 -340h2q18 74 87 121t155 47q113 0 188 -76q78 -74 78 -188q0 -117 -79 -195t-202 -78q-143 0 -222 108.5t-79 287.5zM160 -59q0 -82 61.5 -143.5t147.5 -61.5 q84 0 142 59.5t58 147.5q0 86 -58 143t-142 57q-86 0 -147.5 -59t-61.5 -143z" />
<glyph unicode="&#x2087;" horiz-adv-x="612" d="M63 422v72h504v-52l-325 -759h-80l321 739h-420z" />
<glyph unicode="&#x2088;" horiz-adv-x="704" d="M57 -98q0 74 48.5 131t132.5 80v2q-145 59 -146 186q0 92 73 151.5t187.5 59.5t187 -60.5t72.5 -148.5q0 -61 -38.5 -112.5t-108.5 -75.5v-2q84 -23 133 -80.5t49 -130.5q0 -98 -83 -165t-212 -67t-212 67t-83 165zM135 -92q0 -74 60.5 -121t157 -47t156.5 47t60 121 q0 72 -56 121t-160.5 49t-161 -48t-56.5 -122zM170 296.5q0 -63.5 48 -106.5t134 -43q61 0 106.5 28t63 68t8 84t-46.5 74q-49 43 -131 43q-80 0 -131 -42t-51 -105.5z" />
<glyph unicode="&#x2089;" horiz-adv-x="690" d="M61 238q0 119 77 196.5t198 77.5q139 0 216 -108.5t77 -288.5q0 -186 -80 -315.5t-242 -129.5q-123 0 -205 68l33 55q76 -57 170 -57q137 0 199 123q61 121 55 286h-2q-18 -74 -86 -122t-149 -48q-111 0 -186 75t-75 188zM135 240q0 -86 55.5 -143.5t139.5 -57.5 q82 0 142 60.5t60 142.5t-59 143t-143 61q-82 0 -138.5 -58t-56.5 -148z" />
<glyph unicode="&#x20ac;" horiz-adv-x="1492" d="M74 557l20 76h131q-8 47 -8 123q0 51 6 100h-135l25 76h120q55 270 256 440q201 168 469 168q266 0 455 -139l-37 -64q-187 127 -418 127q-238 0 -411 -147q-178 -150 -230 -385h900l-27 -76h-885q-6 -49 -6 -100t10 -123h805l-29 -76h-761q61 -223 233 -364 q176 -139 401 -140q193 0 363 92l39 -67q-182 -100 -402 -101q-258 0 -456 160q-197 162 -262 420h-166z" />
<glyph unicode="&#x2122;" horiz-adv-x="1599" d="M72 1448v65h542v-65h-235v-651h-70v651h-237zM696 797v716h47l312 -471l315 471h47v-716h-65v581l-277 -415h-39l-274 413v-579h-66z" />
<glyph unicode="&#x25fc;" horiz-adv-x="1095" d="M0 0v1096h1096v-1096h-1096z" />
<glyph horiz-adv-x="1103" d="M33 428l24 74h101q-4 78 -4 88q0 8 4 74h-115l27 75h98q47 213 201 340q158 129 366 129q229 0 375 -133l-43 -63q-137 121 -330 121q-180 0 -310 -107.5t-173 -286.5h715l-27 -75h-700q-4 -66 -4 -74q0 -45 6 -88h641l-29 -74h-600q45 -172 172 -273.5t311 -101.5 q168 0 326 109v-84q-133 -100 -328 -101q-217 0 -368 123q-152 127 -197 328h-139z" />
<glyph horiz-adv-x="1583" d="M215 0v1513h82v-1513h-82zM516 180l55 53q139 -182 367 -182q160 0 262.5 108.5t102.5 286.5v1067h81v-1044q0 -242 -127 -369q-124 -125 -317 -125q-262 0 -424 205z" />
<glyph horiz-adv-x="1095" d="M53 180l56 53q139 -182 366 -182q160 0 262.5 108.5t102.5 286.5v1067h82v-1044q0 -242 -127 -369q-125 -125 -318 -125q-262 0 -424 205zM842 1634l123 320h108l-164 -320h-67z" />
<glyph horiz-adv-x="1103" d="M74 309q0 154 110.5 240t313.5 86q289 0 364 31q0 182 -91 281.5t-257 99.5q-96 0 -190.5 -31t-151.5 -82l-45 63q59 51 168.5 88t218.5 37q197 0 313.5 -118.5t116.5 -339.5v-664h-82v205q-129 -238 -413 -238q-170 0 -272.5 95.5t-102.5 246.5zM156 307 q0 -121 80 -192.5t213 -71.5q186 0 299 125q115 127 114 328v86q-84 -23 -348 -23q-358 0 -358 -252z" />
<glyph horiz-adv-x="1103" d="M74 309q0 154 110.5 240t313.5 86q289 0 364 31q0 182 -91 281.5t-257 99.5q-96 0 -190.5 -31t-151.5 -82l-45 63q59 51 168.5 88t218.5 37q197 0 313.5 -118.5t116.5 -339.5v-664h-82v205q-129 -238 -413 -238q-170 0 -272.5 95.5t-102.5 246.5zM156 307 q0 -121 80 -192.5t213 -71.5q186 0 299 125q115 127 114 328v86q-84 -23 -348 -23q-358 0 -358 -252zM227 1268l281 309h39l280 -309h-86l-215 233l-215 -233h-84z" />
<glyph horiz-adv-x="634" d="M129 1634l123 320h108l-163 -320h-68z" />
<glyph horiz-adv-x="1943" d="M104.5 731q-0.5 379 260.5 645q262 270 634 271q356 0 613 -244q254 -242 254 -580q0 -217 -109 -366q-109 -145 -262 -146q-92 0 -153.5 55.5t-73.5 139.5q-47 -90 -134 -142.5t-194 -52.5q-166 0 -281 121q-111 123 -110.5 301t115.5 305q117 125 286 125 q100 0 184.5 -46t131.5 -124v140h77v-572q0 -84 42 -129t110 -45q121 0 207 129q86 131 86 313q0 303 -235.5 524.5t-555.5 221.5q-338 0 -577 -248q-238 -250 -238 -596q0 -350 244 -594q244 -242 600 -241q170 0 325.5 60t266.5 169l47 -53q-111 -111 -281 -179.5 t-360 -68.5q-389 0 -655 264q-264 264 -264.5 643zM629 733q0 -143 90 -246q88 -100 227 -100q141 0 230 100q92 102 92 250t-92 250q-92 100 -225.5 100t-229.5 -102q-92 -100 -92 -252z" />
<glyph horiz-adv-x="1024" d="M55 1513h76l834 -1513h-76z" />
<glyph horiz-adv-x="675" d="M57 702v64q90 6 144.5 59.5t54.5 153.5q0 59 -8 209q-6 168 -6 258q0 354 331 354h76v-76h-76q-129 0 -189 -67.5t-60 -210.5q0 -86 6 -256q8 -150 8 -211q0 -180 -133 -246q133 -66 133 -246q0 -61 -8 -211q-6 -170 -6 -253q0 -281 249 -281h76v-76h-76q-332 0 -331 357 q0 88 6 256q8 150 8 208q0 197 -199 215z" />
<glyph horiz-adv-x="675" d="M27 -258h75q250 0 250 281q0 104 -8 253q-6 168 -6 211q0 180 133 246q-133 66 -133 246q0 41 6 211q8 150 8 256q0 143 -60.5 210.5t-189.5 67.5h-75v76h75q332 0 332 -354q0 -109 -8 -258q-6 -168 -6 -209q0 -100 54 -153.5t144 -59.5v-64q-199 -18 -198 -215 q0 -41 6 -208q8 -150 8 -256q0 -356 -332 -357h-75v76z" />
<glyph horiz-adv-x="749" d="M215 -322v2126h512v-75h-430v-1975h430v-76h-512z" />
<glyph horiz-adv-x="749" d="M23 -246h430v1975h-430v75h512v-2126h-512v76z" />
<glyph horiz-adv-x="634" d="M123 -463l24 60q86 -41 170 -41t137.5 45t53.5 104q0 49 -36 80t-103 31h-127l-15 26l74 199h74l-66 -168q25 6 76 6q84 0 138.5 -46t54.5 -126q0 -90 -71 -152.5t-190 -62.5q-96 0 -194 45z" />
<glyph horiz-adv-x="978" d="M123 1638l280 310h39l281 -310h-86l-215 234l-215 -234h-84z" />
<glyph horiz-adv-x="473" d="M166.5 445.5q21.5 39.5 71.5 37.5q33 0 56 -22.5t23 -54.5q0 -35 -23 -57.5t-56 -22.5q-49 -2 -71 39t-0.5 80.5zM166.5 1058q21.5 40 71.5 38q33 0 56 -22.5t23 -55.5q0 -35 -23 -57.5t-56 -22.5q-49 -2 -71 39t-0.5 81z" />
<glyph horiz-adv-x="333" d="M31 -358l143 553h78l-162 -553h-59z" />
<glyph horiz-adv-x="802" d="M123 1769q0 37 27.5 65t68.5 28t68.5 -28t27.5 -65q4 -57 -46 -81.5t-100 0t-46 81.5zM483 1769q0 37 28 65t69 28t68.5 -28t27.5 -65q4 -57 -46 -81.5t-100.5 0t-46.5 81.5z" />
<glyph horiz-adv-x="956" d="M51 225l68 39q109 -213 366 -213q147 0 241.5 72t94.5 182q0 72 -45 120t-147 91q-72 29 -146 53l-123 47q-236 92 -235 289q0 123 89 206t241 95v211h82v-211q213 -16 337 -176l-61 -47q-117 152 -315 152q-129 0 -210 -63.5t-81 -166.5q0 -70 40 -121t136 -92 q43 -20 158 -61l137 -49q225 -93 225 -277q0 -137 -104 -225q-106 -90 -264 -103v-225h-80v223q-135 8 -242 72t-162 178z" />
<glyph horiz-adv-x="704" d="M57 219q0 74 48.5 131.5t132.5 79.5v2q-145 59 -146 186q0 92 73 151.5t187.5 59.5t187 -60t72.5 -148q0 -61 -38.5 -112.5t-108.5 -76.5v-2q84 -23 133 -80t49 -131q0 -98 -83 -164.5t-212 -66.5t-212 66.5t-83 164.5zM135 225.5q0 -73.5 60.5 -121t157 -47.5t156.5 47 t60 121q0 72 -56 121t-160.5 49t-161 -48t-56.5 -121.5zM170 614.5q0 -63.5 48 -106.5t134 -43q61 0 106.5 27.5t63 67.5t8 84t-46.5 75q-49 43 -131 43q-80 0 -131 -42t-51 -105.5z" />
<glyph horiz-adv-x="704" d="M57 930q0 74 48.5 131t132.5 80v2q-145 59 -146 186q0 92 73 151.5t187.5 59.5t187 -60.5t72.5 -148.5q0 -61 -38.5 -112.5t-108.5 -75.5v-2q84 -23 133 -80t49 -131q0 -98 -83 -165t-212 -67t-212 67t-83 165zM135 936q0 -74 60.5 -121t157 -47t156.5 47t60 121 q0 72 -56 121t-160.5 49t-161 -48t-56.5 -122zM170 1325.5q0 -63.5 48 -106.5t134 -43q61 0 106.5 27.5t63 67.5t8 84t-46.5 75q-49 43 -131 43q-80 0 -131 -42t-51 -105.5z" />
<glyph horiz-adv-x="1214" d="M106 385q0 133 86.5 236.5t237.5 138.5v4q-129 47 -196.5 138t-67.5 200q0 156 125 262t317 106q195 0 316 -106q125 -104 125 -260q0 -113 -69 -205t-198 -135v-6q152 -31 239 -134.5t87 -238.5q0 -172 -141 -291q-137 -119 -359 -119q-219 0 -360 117 q-142 121 -142 293zM186 383q0 -143 119 -237.5t303 -94.5q186 0 301 94q119 95 119 240q0 133 -102 236q-100 104 -316 104q-213 0 -319 -104q-104 -100 -105 -238zM246 1102q0 -115 92 -211q94 -94 268 -94q176 0 270.5 94t94.5 213q0 121 -102.5 207t-260.5 86 q-162 0 -262 -88q-100 -86 -100 -207z" />
<glyph d="M72 403q0 135 84 248q86 113 239 146v4q-129 49 -196.5 144t-67.5 210q0 162 125 272q125 113 317.5 113t315.5 -110q125 -111 125 -273q0 -117 -68.5 -214t-197.5 -142v-6q152 -35 238.5 -142.5t86.5 -249.5q0 -178 -141 -305q-137 -123 -359 -123q-219 0 -360 123 t-141 305zM152 401q0 -150 118.5 -250t302.5 -100q186 0 301 101q119 99 119 251q0 61 -22.5 122t-68.5 115t-131 88t-196 34q-211 0 -319 -111q-104 -106 -104 -250zM211 1155q0 -119 92 -221q94 -100 268 -100q176 0 270.5 100t94.5 223q0 127 -102.5 217t-260.5 90 q-160 0 -262 -92q-100 -88 -100 -217z" />
<glyph horiz-adv-x="2076" d="M158 702v76h1761v-76h-1761z" />
<glyph horiz-adv-x="1423" d="M158 702v76h1108v-76h-1108z" />
<glyph horiz-adv-x="645" d="M43 86l41 61q104 -86 209 -86q94 0 150.5 54.5t56.5 142.5q0 86 -51.5 136t-137.5 50q-104 0 -178 -88l-51 35l43 412h403v-72h-344l-30 -272q65 53 165 53q115 0 189 -70.5t74 -185.5q0 -119 -81 -193.5t-206 -74.5q-131 0 -252 98z" />
<glyph horiz-adv-x="645" d="M43 797l41 61q104 -86 209 -86q94 0 150.5 54.5t56.5 142.5q0 86 -51.5 136t-137.5 50q-104 0 -178 -88l-51 35l43 411h403v-71h-344l-30 -273q65 54 165 54q115 0 189 -71t74 -185q0 -119 -81 -194t-206 -75q-131 0 -252 99z" />
<glyph horiz-adv-x="1081" d="M76 -59l49 55q178 -154 381 -154q182 0 301 109q117 106 117 280q0 166 -107 265q-106 100 -272 100q-203 0 -342 -166l-64 27l70 721h698v-76h-628l-56 -551q127 121 326 121q193 0 325 -121q131 -119 132 -322q0 -209 -144 -333q-141 -129 -354 -129q-233 0 -432 174z " />
<glyph d="M106 164l50 55q182 -168 385 -168q186 0 305 119t119 311q0 184 -108.5 293t-274.5 109q-207 0 -349 -185l-63 27l72 788h704v-75h-633l-59 -613q127 133 332 133q197 0 327 -129q133 -129 134 -350q0 -227 -144 -364q-145 -139 -360 -140q-229 0 -437 189z" />
<glyph horiz-adv-x="684" d="M25 258l432 553h49v-532h94v-70h-94v-209h-76v209h-389zM127 279h303v387z" />
<glyph horiz-adv-x="684" d="M25 969l432 553h49v-533h94v-69h-94v-209h-76v209h-389zM127 989h303v387z" />
<glyph horiz-adv-x="1140" d="M53 211l783 973h55v-948h172v-76h-172v-361h-82v361h-746zM168 236h641v786z" />
<glyph d="M61 469l783 1044h55v-1019h172v-76h-172v-418h-82v418h-745zM174 494h643v854z" />
<glyph horiz-adv-x="602" d="M117 1952h108l123 -320h-67z" />
<glyph horiz-adv-x="1009" d="M115 741l299 416h86l-299 -416l299 -415h-86zM479 741l299 416h86l-299 -416l299 -415h-86z" />
<glyph horiz-adv-x="1009" d="M145 326l299 415l-299 416h86l299 -416l-299 -415h-86zM510 326l299 415l-299 416h86l299 -416l-299 -415h-86z" />
<glyph horiz-adv-x="645" d="M115 741l299 416h86l-299 -416l299 -415h-86z" />
<glyph horiz-adv-x="645" d="M145 326l299 415l-299 416h86l299 -416l-299 -415h-86z" />
<glyph horiz-adv-x="1097" d="M158 702v76h782v-76h-782z" />
<glyph horiz-adv-x="430" d="M121 1360q0 37 25.5 61.5t60.5 24.5t59.5 -24.5t24.5 -61.5q0 -35 -24.5 -59.5t-59.5 -24.5t-60.5 24.5t-25.5 59.5zM162 0v1096h82v-1096h-82z" />
<glyph horiz-adv-x="989" d="M119 1360q0 37 25.5 61.5t60.5 24.5t59.5 -24.5t24.5 -61.5q0 -35 -24.5 -59.5t-59.5 -24.5t-60.5 24.5t-25.5 59.5zM162 0v1096h82v-1096h-82zM256 -416l29 70q84 -45 174 -45q104 0 162.5 67.5t58.5 190.5v1229h82v-1229q0 -158 -82 -246t-223 -88q-113 0 -201 51z M637 1360q0 37 25.5 61.5t60.5 24.5t59.5 -24.5t24.5 -61.5q0 -35 -24.5 -59.5t-59.5 -24.5t-60.5 24.5t-25.5 59.5z" />
<glyph horiz-adv-x="479" d="M-201 -416l29 70q84 -45 174 -45q104 0 162.5 67.5t58.5 190.5v1229h82v-1229q0 -158 -82 -246t-223 -88q-113 0 -201 51zM180 1360q0 37 25.5 61.5t60.5 24.5t59.5 -24.5t24.5 -61.5q0 -35 -24.5 -59.5t-59.5 -24.5t-60.5 24.5t-25.5 59.5z" />
<glyph horiz-adv-x="690" d="M61 555q0 119 77 196.5t198 77.5q139 0 216 -108.5t77 -288.5q0 -186 -80 -315t-242 -129q-123 0 -205 67l33 56q76 -57 170 -58q137 0 199 121q61 123 55 289h-2q-18 -74 -86 -122t-149 -48q-111 0 -186 74.5t-75 187.5zM135 557q0 -86 55.5 -143.5t139.5 -57.5 q82 0 142 60.5t60 142.5t-59 143.5t-143 61.5q-82 0 -138.5 -58.5t-56.5 -148.5z" />
<glyph horiz-adv-x="690" d="M61 1266q0 119 77 196.5t198 77.5q139 0 216 -108.5t77 -288.5q0 -186 -80 -315.5t-242 -129.5q-123 0 -205 68l33 55q76 -57 170 -57q137 0 199 121q61 123 55 289h-2q-18 -74 -86 -122t-149 -48q-111 0 -186 74.5t-75 187.5zM135 1268q0 -86 55.5 -143.5t139.5 -57.5 q82 0 142 60.5t60 142.5t-59 143.5t-143 61.5q-82 0 -138.5 -58.5t-56.5 -148.5z" />
<glyph horiz-adv-x="1167" d="M78 741q0 199 133 332t340 133q248 0 379 -190q133 -188 133 -486q0 -299 -127 -522q-63 -111 -174 -174t-250 -63q-199 0 -348 114l45 62q125 -100 301 -101q139 0 240.5 70t152.5 188q96 221 80 514h-4q-25 -137 -156 -231q-127 -94 -284 -94q-195 0 -328 127 q-133 129 -133 321zM160 743q0 -162 108 -270q109 -106 271 -106q160 0 278 112q123 115 123 266q0 150 -117 267q-117 119 -284 118q-158 0 -268.5 -110.5t-110.5 -276.5z" />
<glyph d="M59 1036q0 217 135.5 360.5t346.5 143.5q248 0 386 -208t134 -525q0 -127 -19.5 -244t-62.5 -224.5t-107.5 -186t-158.5 -124.5t-211 -46q-205 0 -355 124l46 62q127 -111 307 -111q139 0 244.5 77t156.5 210q96 248 80 569h-4q-25 -152 -158 -260q-131 -106 -291 -106 q-195 0 -333 139q-135 137 -136 350zM141 1038q0 -178 111 -297q112 -118 276 -118q162 0 285 125q125 125 125 292q0 162 -121 293q-119 131 -289 131q-160 0 -274 -121q-113 -119 -113 -305z" />
<glyph horiz-adv-x="522" d="M57 600l265 211h57v-813h-78v702l-201 -159z" />
<glyph horiz-adv-x="522" d="M57 1311l265 211h57v-811h-78v700l-201 -160z" />
<glyph horiz-adv-x="856" d="M35 887l446 301h60v-1112h286v-76h-761v76h393v999l-379 -254z" />
<glyph d="M180 1141l443 372h57v-1439h348v-76h-792v76h362v1317l-365 -308z" />
<glyph horiz-adv-x="737" d="M100 735q0 346 154 621q154 279 436 434l37 -68q-260 -143 -405 -403q-141 -258 -142 -584q0 -328 144 -583q145 -259 403 -402l-37 -67q-283 158 -436 432q-154 276 -154 620z" />
<glyph horiz-adv-x="737" d="M10 -250q258 143 404 402q143 256 143 583.5t-143 583.5q-141 258 -404 403l37 68q283 -156 436 -434q154 -274 154 -621q0 -344 -154 -620q-153 -274 -436 -432z" />
<glyph horiz-adv-x="739" d="M47 -299l143 553h78l-162 -553h-59zM471 -299l143 553h78l-162 -553h-59z" />
<glyph horiz-adv-x="784" d="M113 1143l161 553h60l-144 -553h-77zM535 1143l161 553h60l-144 -553h-77z" />
<glyph horiz-adv-x="778" d="M121 1145l143 553h78l-162 -553h-59zM545 1145l143 553h78l-162 -553h-59z" />
<glyph horiz-adv-x="432" d="M119 1143l162 553h59l-143 -553h-78z" />
<glyph horiz-adv-x="425" d="M119 1145l143 553h78l-162 -553h-59z" />
<glyph horiz-adv-x="436" d="M76 -299l143 553h78l-162 -553h-59z" />
<glyph horiz-adv-x="655" d="M123 1825q0 92 65.5 157.5t159.5 65.5t159.5 -65.5t65.5 -157.5q0 -90 -65 -156q-63 -63 -159.5 -63t-160.5 63q-65 66 -65 156zM184 1825q0 -68 47.5 -114t117 -46t116.5 46t47 114q0 70 -47 117t-116.5 47t-117 -47.5t-47.5 -116.5z" />
<glyph horiz-adv-x="530" d="M152 170q137 88 167 195q-23 -23 -57 -23q-29 0 -51.5 21.5t-22.5 54.5q0 37 26 61.5t64.5 24.5t65.5 -30t27 -75q0 -68 -52.5 -139.5t-142.5 -126.5zM190 1016q0 33 26 57.5t60.5 24.5t59 -23.5t24.5 -58.5q2 -51 -41 -72.5t-87 0t-42 72.5z" />
<glyph horiz-adv-x="483" d="M80 -358l143 553h78l-162 -553h-59zM176 848q0 33 25.5 57.5t60.5 24.5t59.5 -23.5t24.5 -58.5q2 -51 -41 -72.5t-87 0t-42 72.5z" />
<glyph horiz-adv-x="612" d="M63 739v72h504v-51l-325 -760h-80l321 739h-420z" />
<glyph horiz-adv-x="612" d="M63 1450v72h504v-52l-325 -759h-80l321 739h-420z" />
<glyph horiz-adv-x="968" d="M27 1102v76h905v-56l-588 -1321h-88l588 1301h-817z" />
<glyph d="M119 1438v75h946v-57l-670 -1456h-88l668 1438h-856z" />
<glyph horiz-adv-x="704" d="M61 383q0 182 86 315q88 131 252 131q123 0 209 -67l-35 -55q-72 57 -170 57q-96 0 -161 -68q-119 -119 -109 -340h2q18 74 87 121t155 47q113 0 188 -75q78 -74 78 -189q0 -117 -79 -194.5t-202 -77.5q-143 0 -222 108.5t-79 286.5zM160 258q0 -82 61.5 -143.5 t147.5 -61.5q84 0 142 59.5t58 147.5q0 86 -58 143.5t-142 57.5q-86 0 -147.5 -59.5t-61.5 -143.5z" />
<glyph horiz-adv-x="704" d="M61 1094q0 184 86 315q88 131 252 131q123 0 209 -67l-35 -56q-72 57 -170 58q-96 0 -161 -68q-119 -119 -109 -340h2q18 74 87 121t155 47q113 0 188 -76q78 -74 78 -188q0 -117 -79 -195t-202 -78q-143 0 -222 108.5t-79 287.5zM160 969q0 -82 61.5 -143.5t147.5 -61.5 q84 0 142 59.5t58 147.5q0 86 -58 143t-142 57q-86 0 -147.5 -59t-61.5 -143z" />
<glyph horiz-adv-x="1216" d="M119 682q0 152 34.5 290t102.5 250.5t180.5 180t255.5 67.5q205 0 355 -118l-46 -62q-125 106 -307 107q-139 0 -244.5 -74t-162.5 -199q-104 -236 -88 -538h4q25 147 155.5 247.5t292.5 100.5q197 0 332 -135q137 -131 137 -336t-135 -344q-135 -137 -346 -137 q-250 0 -385 196.5t-135 503.5zM242 459q0 -158 118 -279q119 -123 291 -123q160 0 275 115q113 113 112 289q0 170 -112 282q-111 115 -275 115q-162 0 -286 -119q-123 -121 -123 -280z" />
<glyph d="M84 715q0 219 57 397q57 180 193 305q135 123 323 123q205 0 355 -125l-45 -61q-127 111 -308 110q-137 0 -243.5 -76.5t-163.5 -209.5q-104 -250 -88 -570h4q25 156 156 262.5t292 106.5q197 0 332 -141q137 -137 137 -351q0 -215 -135 -360q-135 -143 -346 -143 q-248 0 -386 207.5t-134 525.5zM207 481q0 -164 119 -295q120 -129 290 -129q160 0 275 121q113 119 113 305q0 180 -113 299q-111 119 -275 119q-162 0 -286 -125q-123 -125 -123 -295z" />
<glyph horiz-adv-x="1024" d="M59 0l834 1513h76l-834 -1513h-76z" />
<glyph horiz-adv-x="917" d="M61 565v74h113q-45 102 -45 197q0 166 106.5 266t280.5 104q111 2 208 -51t146 -141l-63 -41q-98 158 -291 157q-137 0 -221 -77.5t-84 -212.5q0 -90 51 -201h516v-74h-483q37 -92 37 -176q0 -174 -127 -313h692v-76h-821v53q78 57 126 146.5t48 187.5q0 84 -43 178h-146 z" />
<glyph horiz-adv-x="616" d="M45 72l37 61q106 -72 211 -72q90 0 143 44.5t53 117.5q0 156 -202 156h-90v74h79q94 0 145.5 44t51.5 111.5t-48 107.5t-126 40q-115 0 -197 -80l-41 55q96 98 242 98q111 0 180.5 -60t69.5 -153q0 -70 -40 -121t-105 -71v-4q76 -16 118.5 -70.5t42.5 -128.5 q0 -102 -76.5 -167.5t-197.5 -65.5q-131 0 -250 84z" />
<glyph horiz-adv-x="616" d="M45 782l37 62q106 -72 211 -72q90 0 143 44t53 118q0 156 -202 156h-90v73h79q94 0 145.5 44t51.5 111.5t-48 107.5t-126 40q-115 0 -197 -80l-41 56q96 98 242 98q111 0 180.5 -60.5t69.5 -152.5q0 -70 -40 -121t-105 -71v-5q76 -16 118.5 -70t42.5 -128 q0 -102 -76.5 -168t-197.5 -66q-131 0 -250 84z" />
<glyph horiz-adv-x="1044" d="M51 -84l47 64q176 -129 375 -130q170 0 276.5 88.5t106.5 227.5q0 137 -97 218t-298 81h-146v74h123q201 0 293 92q94 92 94 211q0 127 -94 207.5t-246 80.5q-104 0 -200.5 -38.5t-159.5 -106.5l-49 53q72 78 181.5 123t227.5 45q193 0 306 -106q117 -104 116 -258 q0 -115 -69.5 -204t-182.5 -126v-8q129 -27 206 -119t77 -219q0 -168 -131 -279q-127 -112 -334 -112q-238 0 -422 141z" />
<glyph d="M82 131l47 64q176 -143 381 -144q174 0 283 99q109 98 108.5 251.5t-98.5 241.5t-305 88h-148v76h125q203 0 299 103.5t96 232.5q0 141 -96 231t-252 90q-104 0 -202.5 -42t-163.5 -117l-50 53q72 84 184.5 133t231.5 49q193 0 312 -115q119 -113 118 -282 q0 -127 -70.5 -226.5t-185.5 -136.5v-8q131 -31 209 -132t78 -239q0 -184 -133 -305t-340 -121q-240 0 -428 156z" />
<glyph horiz-adv-x="1097" d="M109 1726q25 74 81 122t127 48q70 0 148 -65.5t125 -65.5q43 0 83 36t58 83l49 -20q-18 -72 -73.5 -121t-124.5 -49q-76 0 -152 63.5t-123 63.5t-87 -35t-58 -82z" />
<glyph horiz-adv-x="673" d="M80 715q115 115 248 114q104 0 171.5 -63.5t67.5 -163.5q0 -110 -172 -309l-192 -221h377v-72h-482l-2 63l230 261q88 98 125.5 160.5t37.5 119.5q0 68 -46 112t-117 44q-104 0 -201 -98z" />
<glyph horiz-adv-x="673" d="M80 1425q115 115 248 115q104 0 171.5 -63.5t67.5 -163.5q0 -108 -172 -309l-192 -222h377v-71h-482l-2 63l230 260q88 98 125.5 160.5t37.5 120.5q0 68 -46 111.5t-117 43.5q-104 0 -201 -98z" />
<glyph horiz-adv-x="1015" d="M78 1006q197 201 432 200q160 0 270 -92q113 -92 113 -240q0 -100 -72 -208q-67 -102 -272 -295l-320 -297h689v-76h-809v72l426 395l104 98q10 10 80 88q94 109 94 223q0 113 -90 184.5t-217 71.5q-188 0 -377 -182z" />
<glyph d="M113 1329q199 211 444 211q184 0 305 -114.5t121 -286.5q0 -113 -80 -254q-76 -138 -297 -398l-352 -413h758v-76h-867v74l402 469q80 92 141 170q53 68 107 145q106 158 106 289q0 135 -96 227t-248 92q-209 0 -387 -188z" />
<glyph horiz-adv-x="821" d="M-31 1190h84l359 -617l362 617h82l-369 -627h289v-69h-325v-136h325v-71h-325v-287h-80v287h-330v71h330v136h-330v69h295z" />
<glyph horiz-adv-x="751" d="M72 412q0 170 73 295q76 125 230 124q109 0 178 -67q127 -117 127 -352q4 -106 -25.5 -198.5t-102.5 -157t-177 -66.5q-154 0 -230 125q-74 127 -73 297zM154 412q0 -158 58.5 -251t162.5 -93q109 0 166 94t57 250q0 158 -57 247q-57 94 -166 95q-106 0 -163.5 -90.5 t-57.5 -251.5z" />
<glyph horiz-adv-x="751" d="M72 1120q0 170 73 295q76 125 230 125q109 0 178 -67q127 -117 127 -353q4 -106 -25.5 -198.5t-102.5 -157t-177 -66.5q-154 0 -230 125q-74 127 -73 297zM154 1120q0 -158 58.5 -251t162.5 -93q109 0 166 94.5t57 249.5q0 158 -57 248q-57 94 -166 94q-106 0 -163.5 -90 t-57.5 -252z" />
<glyph horiz-adv-x="1173" d="M122.5 665.5q4.5 143.5 67 277.5t177.5 208q96 55 219 55t219 -55q166 -98 223 -344q25 -145 22 -287.5t-66.5 -278.5t-178.5 -210q-96 -55 -219 -55.5t-219 55.5q-164 98 -222 344q-27 147 -22.5 290.5zM203 592q0 -248 102.5 -394.5t280.5 -146.5q180 0 282 146 q102 150 103 395q0 248 -102.5 393t-280.5 145t-281.5 -145t-103.5 -393z" />
<glyph d="M57 757.5q0 291.5 113 522.5q57 121 162.5 190.5t240.5 69.5q139 0 244 -70.5t162 -188.5t84 -249t27 -274.5t-27 -274.5t-84 -248.5t-162 -188.5t-244 -71q-133 0 -239.5 70t-163.5 188q-113 233 -113 524.5zM139 758q0 -324 117 -516q116 -191 317 -191q205 0 318 191 q117 190 117 515.5t-117 516.5q-113 190 -318 190q-201 0 -317 -192q-117 -190 -117 -514z" />
</font>
</defs>
</svg>
