<?xml version="1.0" standalone="no"?>
<!DOCTYPE svg PUBLIC "-//W3C//DTD SVG 1.1//EN" "http://www.w3.org/Graphics/SVG/1.1/DTD/svg11.dtd" >
<svg xmlns="http://www.w3.org/2000/svg" xmlns:xlink="http://www.w3.org/1999/xlink" version="1.1">
<metadata></metadata>
<defs>
<font id="axiformabook" horiz-adv-x="1208" >
<font-face units-per-em="2048" ascent="1579" descent="-469" />
<missing-glyph horiz-adv-x="505" />
<glyph unicode="fb" horiz-adv-x="2160" d="M53 938v158h193v75q0 188 99 295t267 107q127 0 242 -60l-61 -149q-88 37 -160 37q-205 0 -205 -234v-71h350v-158h-350v-938h-182v938h-193zM952 0v1550h183v-622q151 194 393 194q233 0 389 -168q158 -170 158 -407.5t-158 -407.5q-156 -166 -391 -166q-244 0 -391 189 v-162h-183zM1126 549q0 -170 104.5 -287t276.5 -117q170 0 275 117q106 115 106 287t-106 285q-104 117 -275 116q-172 0 -276.5 -116.5t-104.5 -284.5z" />
<glyph unicode="ffj" horiz-adv-x="2056" d="M53 938v158h193v75q0 188 117.5 295t318.5 107q158 0 307 -76l-65 -151q-135 55 -228 55q-125 0 -196.5 -61.5t-71.5 -172.5v-71h573v75q0 188 99.5 295t267.5 107q127 0 242 -60l-62 -149q-90 37 -159 37q-205 0 -205 -234v-71h370v-158h-370v-938h-183v938h-573v-938 h-182v938h-193zM1362 -424l37 154q80 -29 129 -29q190 0 190 227v1168h183v-1151q0 -199 -93.5 -305.5t-259.5 -106.5q-123 0 -186 43zM1675 1392.5q0 57.5 39 95.5t98 38q55 0 94.5 -38t39.5 -95.5t-39 -96.5t-95 -39q-59 0 -98 39t-39 96.5z" />
<glyph unicode="fh" horiz-adv-x="2050" d="M53 938v158h193v75q0 188 99 295t267 107q127 0 242 -60l-61 -149q-88 37 -160 37q-205 0 -205 -234v-71h350v-158h-350v-938h-182v938h-193zM952 0v1550h176v-589q51 76 144.5 119.5t204.5 43.5q182 0 307 -118.5t125 -341.5v-664h-183v612q0 164 -76.5 253t-207.5 89 q-137 0 -223 -96q-84 -96 -84 -246v-612h-183z" />
<glyph unicode="fj" horiz-adv-x="1300" d="M53 938v158h193v75q0 188 99 295t267 107q127 0 242 -60l-61 -149q-88 37 -160 37q-205 0 -205 -234v-71h371v-158h-371v-938h-182v938h-193zM606 -424l37 154q80 -29 129 -29q191 0 191 227v1168h182v-1151q0 -199 -93.5 -305.5t-258.5 -106.5q-121 0 -187 43z M920 1390.5q0 57.5 39 95.5t98 38q55 0 94 -38t39 -95.5t-39 -96.5t-94 -39q-59 0 -98 39t-39 96.5z" />
<glyph unicode="fk" horiz-adv-x="1900" d="M53 938v158h193v75q0 188 99 295t267 107q127 0 242 -60l-61 -149q-88 37 -160 37q-205 0 -205 -234v-71h350v-158h-350v-938h-182v938h-193zM952 0v1550h183v-907l503 453h252l-516 -461l533 -635h-244l-420 518l-108 -98v-420h-183z" />
<glyph horiz-adv-x="0" />
<glyph horiz-adv-x="682" />
<glyph horiz-adv-x="266" />
<glyph horiz-adv-x="266" />
<glyph unicode="&#xd;" horiz-adv-x="681" />
<glyph unicode=" "  horiz-adv-x="505" />
<glyph unicode="&#x09;" horiz-adv-x="505" />
<glyph unicode="&#xa0;" horiz-adv-x="505" />
<glyph unicode="!" horiz-adv-x="598" d="M174 102q0 51 37 87t90 36t89 -35.5t36 -87.5q0 -55 -36 -91t-89 -36t-90 36t-37 91zM197 1513h204l-10 -1153h-186z" />
<glyph unicode="&#x22;" horiz-adv-x="931" d="M96 920l166 593h223l-221 -593h-168zM498 920l166 593h223l-221 -593h-168z" />
<glyph unicode="#" horiz-adv-x="1429" d="M72 442l26 150h240l68 356h-240l29 150h239l80 415h166l-78 -415h369l78 415h165l-77 -415h221l-29 -150h-221l-68 -356h222l-29 -150h-221l-84 -442h-166l84 442h-369l-84 -442h-168l84 442h-237zM506 592h368l68 356h-369z" />
<glyph unicode="$" horiz-adv-x="1148" d="M63 291l148 112q119 -246 358 -245q131 0 209 68.5t78 168.5q0 129 -160 219q-39 23 -151 72q-113 53 -174 92q-225 145 -226 359q0 160 109 274q109 111 291 127v188h135v-192q217 -33 350 -219l-135 -119q-121 166 -301 166q-106 0 -176 -58.5t-70 -154.5 q0 -123 129 -203q39 -25 178 -92q152 -72 195 -100q213 -129 213 -348q0 -170 -112.5 -285t-288.5 -139v-211h-136v206q-152 12 -274.5 94.5t-188.5 219.5z" />
<glyph unicode="%" horiz-adv-x="1796" d="M71.5 1167q0.5 156 112.5 263q115 111 270.5 110.5t270.5 -110.5q113 -106 113 -262.5t-113 -262.5q-115 -109 -270.5 -108.5t-270.5 108.5q-113 106 -112.5 262zM223 1167.5q0 -97.5 66 -163.5q70 -66 166 -66q98 0 163 66q68 66 68 164t-68 163q-66 66 -163 66 q-96 0 -166 -66q-66 -66 -66 -163.5zM238 0l1116 1513h194l-1118 -1513h-192zM956 344q0 156 113 262q115 111 272 111q158 0 271 -111q115 -109 114 -262q0 -152 -114.5 -260.5t-270.5 -108.5q-158 0 -272 109q-113 106 -113 260zM1110 344q0 -96 67.5 -161.5t163.5 -65.5 q98 0 165 65.5t67 161.5q0 100 -66.5 167t-165 67t-165 -67t-66.5 -167z" />
<glyph unicode="&#x26;" horiz-adv-x="1427" d="M86 424q0 283 279 444q-88 131 -89 281q0 158 117 272q119 115 275 115q141 0 243.5 -90t102.5 -223q0 -150 -119 -242q-70 -49 -111 -72l-139 -69l-39 -19l123 -108l324 -283q84 106 145 215l125 -96q-73 -129 -149 -223l247 -217l-100 -121l-252 223 q-238 -231 -491 -231q-205 0 -349 129q-143 131 -143 315zM266 432q0 -127 94 -213q97 -84 238 -84q178 0 352 180l-364 322q-72 61 -119 111q-201 -121 -201 -316zM436 1153q0 -119 66 -215l63 29l66 30q100 53 110 62q57 39 78 74q29 43 29 92q0 76 -52 126t-130 50 q-98 0 -164 -69.5t-66 -178.5z" />
<glyph unicode="'" horiz-adv-x="526" d="M92 920l166 593h223l-221 -593h-168z" />
<glyph unicode="(" horiz-adv-x="792" d="M86 602q0 348 160 621q160 276 452 434l78 -135q-494 -328 -493 -920q-1 -589 493 -917l-78 -136q-295 158 -452 433q-160 276 -160 620z" />
<glyph unicode=")" horiz-adv-x="792" d="M16 -315q494 328 494 917q0 592 -494 920l76 135q295 -156 455 -434q160 -272 160 -621q0 -346 -160 -621.5t-455 -431.5z" />
<glyph unicode="*" horiz-adv-x="921" d="M80 1241l63 129l252 -127l-4 299h141l-4 -299l254 127l60 -129l-273 -123l195 -227l-113 -90l-188 241l-193 -241l-110 90l194 227z" />
<glyph unicode="+" horiz-adv-x="1085" d="M70 629v172h389v387h172v-387h385v-172h-385v-387l-172 -2v389h-389z" />
<glyph unicode="," horiz-adv-x="489" d="M72 -176q133 98 159 153h-8q-45 0 -76.5 33t-31.5 80q0 49 38 85t89 36q59 0 97 -41t38 -104q0 -168 -246 -326z" />
<glyph unicode="-" horiz-adv-x="1056" d="M137 481v172h783v-172h-783z" />
<glyph unicode="." horiz-adv-x="471" d="M109 94q0 51 36.5 87t90 36t89 -36t35.5 -87q0 -55 -35.5 -91t-89 -36t-90 36t-36.5 91z" />
<glyph unicode="/" horiz-adv-x="1222" d="M41 -252l965 1942h174l-965 -1942h-174z" />
<glyph unicode="0" horiz-adv-x="1388" d="M137 483q-66 274 0 549q74 315 281 436q121 72 276.5 72t276.5 -72q207 -121 280 -436q66 -274 0 -549q-73 -311 -280 -438q-119 -70 -276.5 -70t-276.5 70q-207 127 -281 438zM301 758q-4 -170 36 -303t132 -217t225 -86q201 0 297 170q98 170 99 436q0 266 -99 434 q-94 172 -297 172q-199 0 -297 -172q-96 -170 -96 -434z" />
<glyph unicode="1" horiz-adv-x="780" d="M10 1155l422 358h154v-1513h-191v1260l-278 -236z" />
<glyph unicode="2" horiz-adv-x="1138" d="M74 1329q217 211 477 211q207 0 334 -125q131 -123 131 -328q0 -202 -199 -419l-444 -492h663v-176h-938v158l488 524q92 98 127 141q121 150 121 279q0 117 -82 190q-84 74 -203 74q-193 0 -369 -172z" />
<glyph unicode="3" horiz-adv-x="1130" d="M45 125l88 154q199 -129 373 -129q145 0 231 74.5t86 193.5q0 123 -90 199.5t-233 76.5h-187v170h189q129 0 211 71t82 183.5t-79 180t-200 67.5q-166 0 -338 -135l-98 133q80 82 200.5 129t247.5 47q203 0 332 -117q129 -113 129 -282q0 -123 -72.5 -217.5 t-191.5 -130.5v-9q137 -31 216 -131t79 -239q0 -193 -143.5 -316t-370.5 -123q-242 0 -461 150z" />
<glyph unicode="4" horiz-adv-x="1210" d="M20 498l832 1015h102v-960h170v-168h-170v-385h-184v385h-711zM281 553h489v600z" />
<glyph unicode="5" horiz-adv-x="1167" d="M72 160l92 147q188 -158 383 -157q154 0 248 94q98 96 98 239q0 139 -96 236q-94 94 -240 94q-168 0 -283 -123l-129 68l88 755h750v-167h-602l-53 -420q113 63 250 63q219 0 362 -143q145 -141 145 -361q0 -221 -151 -366q-150 -143 -381 -144q-262 0 -481 185z" />
<glyph unicode="6" horiz-adv-x="1253" d="M109 711q0 219 64.5 402t208.5 305t349 122q225 0 381 -125l-78 -143q-137 104 -291 104q-113 0 -202.5 -59.5t-143.5 -159.5q-102 -195 -102 -405h6q51 102 154.5 163.5t236.5 61.5q205 0 338 -139q135 -137 135 -351q0 -217 -145 -362q-144 -143 -367 -143 q-260 0 -405.5 208.5t-138.5 520.5zM334 485q0 -139 92 -237q92 -96 229 -96q135 0 232 96q94 96 94 239q0 139 -92 231.5t-230 92.5q-139 0 -233 -92q-92 -92 -92 -234z" />
<glyph unicode="7" horiz-adv-x="1024" d="M43 1346v167h946v-108l-596 -1405h-205l588 1346h-733z" />
<glyph unicode="8" horiz-adv-x="1275" d="M100 406q0 129 82 237.5t217 157.5v4q-111 53 -173 143t-62 195q0 172 131 284.5t344 112.5q209 0 340 -113q133 -115 133 -284q0 -106 -63.5 -196.5t-174.5 -141.5v-6q137 -49 219.5 -158t82.5 -235q0 -186 -152 -310q-152 -121 -385 -121q-236 0 -387 121 q-152 124 -152 310zM285 432q0 -125 98 -209q100 -82 256 -82t252 82q98 84 98 209q0 123 -96 202t-254 79q-160 0 -257 -79t-97 -202zM344 1128.5q0 -110.5 81 -181t212 -70.5q133 0 213 70.5t80 181t-81 181t-210 70.5t-212 -70.5t-83 -181z" />
<glyph unicode="9" horiz-adv-x="1249" d="M88 1032q0 221 143.5 364.5t370.5 143.5q264 0 399 -203q137 -199 138 -536q0 -168 -35 -312.5t-105.5 -261t-190.5 -184.5t-276 -68q-240 0 -389 125l72 150q150 -109 313 -109q150 0 251.5 95.5t142.5 232.5t41 303h-7q-51 -102 -156.5 -165.5t-238.5 -63.5 q-205 0 -340 139q-133 139 -133 350zM272 1032q0 -139 93 -233q92 -92 229 -92q139 0 231 94q94 94 95 233q0 143 -95 240q-92 98 -227 98q-137 0 -233 -96q-92 -96 -93 -244z" />
<glyph unicode=":" horiz-adv-x="528" d="M137 94q0 51 37 87t90 36t89 -36t36 -87q0 -55 -36 -91t-89 -36t-90 36t-37 91zM137 854q0 51 37 87t90 36t89 -36t36 -87q0 -55 -36 -91t-89 -36t-90 36t-37 91z" />
<glyph unicode=";" horiz-adv-x="583" d="M125 -176q133 98 160 153h-9q-45 0 -76.5 33t-31.5 80q0 49 38 85t89 36q59 0 97 -41t38 -104q0 -168 -246 -326zM174 852q0 51 37 87t90 36t89 -36t36 -87q0 -55 -36 -91t-89 -36t-90 36t-37 91z" />
<glyph unicode="&#x3c;" horiz-adv-x="1175" d="M70 596v168l954 473v-193l-760 -364l760 -361v-194z" />
<glyph unicode="=" horiz-adv-x="1236" d="M145 412v166h947v-166h-947zM145 764v166h947v-166h-947z" />
<glyph unicode="&#x3e;" horiz-adv-x="1118" d="M127 96v195l694 362l-694 361v194l930 -501v-111z" />
<glyph unicode="?" horiz-adv-x="1034" d="M55 1348q82 94 199 149t238 55q186 0 319 -118q135 -119 135 -306q0 -176 -151 -313q-23 -20 -90.5 -77.5t-96 -86t-58.5 -76t-30 -90.5v-151h-170v151q0 80 43 150t103.5 122t122 104t104.5 120t43 143q0 115 -82 185q-84 72 -203 71q-162 0 -313 -159zM309 102 q0 51 38 87t91 36q51 0 87 -35.5t36 -87.5q0 -55 -36 -91t-87 -36q-55 0 -92 36t-37 91z" />
<glyph unicode="@" horiz-adv-x="1996" d="M96 580q0 387 270.5 661.5t649.5 274.5q375 0 641 -254q268 -252 268 -594q0 -227 -119 -377q-121 -152 -290 -152q-90 0 -150.5 46t-79.5 114q-119 -160 -330 -160q-174 0 -297 127q-121 131 -120 318q0 188 123 317q125 131 305 131q199 0 305 -131v100h149v-569 q0 -68 34 -110.5t85 -42.5q98 0 162 110q68 111 67 281q0 283 -219 489.5t-528 206.5q-317 0 -539 -229q-221 -227 -221 -553q0 -322 232 -553q233 -227 573 -228q326 0 571 203l82 -123q-115 -100 -295 -164q-180 -68 -374 -67q-193 0 -371 73.5t-309 200.5 q-127 127 -201 299t-74 355zM694 586q0 -131 82 -219t205 -88q125 0 207 86q84 90 84 217q0 133 -82 221q-84 90 -205 90q-125 0 -207 -88q-84 -90 -84 -219z" />
<glyph unicode="A" horiz-adv-x="1374" d="M27 0l616 1513h90l613 -1513h-209l-160 403h-582l-159 -403h-209zM461 584h450l-225 581z" />
<glyph unicode="B" horiz-adv-x="1370" d="M195 0v1513h587q195 0 303 -114q111 -113 111 -264q0 -104 -55.5 -188.5t-149.5 -119.5q133 -37 209 -145.5t76 -247.5q0 -176 -123 -305t-344 -129h-614zM383 180h397q137 0 217 80q82 80 82 186q0 117 -83 196t-226 79h-387v-541zM383 899h371q113 0 180 65.5t67 161.5 q0 88 -66 147.5t-175 59.5h-377v-434z" />
<glyph unicode="C" horiz-adv-x="1593" d="M96 752q0 344 230 565q229 223 555 223q205 0 381 -92q178 -94 272 -242l-143 -116q-92 125 -224.5 195.5t-283.5 70.5q-248 0 -420 -172t-172 -434q0 -258 168 -424t422 -166q317 0 518 262l139 -117q-109 -150 -284 -239t-380 -89q-328 0 -552 218q-225 219 -226 557z " />
<glyph unicode="D" horiz-adv-x="1548" d="M195 0v1513h557q319 0 505.5 -204.5t186.5 -554.5q0 -348 -190.5 -551t-522.5 -203h-536zM383 180h354q240 0 375 162t135 418q0 252 -135 411q-131 162 -373 162h-356v-1153z" />
<glyph unicode="E" horiz-adv-x="1239" d="M195 0v1513h927v-180h-739v-473h684v-180h-684v-500h741v-180h-929z" />
<glyph unicode="F" horiz-adv-x="1163" d="M195 0v1513h913v-184h-725v-467h631v-184h-631v-678h-188z" />
<glyph unicode="G" horiz-adv-x="1662" d="M96 756q0 340 230 561q229 223 555 223q188 0 360 -78q170 -78 272 -205l-137 -120q-195 219 -493 219q-252 0 -422 -170t-170 -432q0 -258 168 -426t418 -168q139 0 269 58t228 163v315h-520v176h700v-573q-278 -322 -686 -322q-336 0 -553 222q-219 223 -219 557z" />
<glyph unicode="H" horiz-adv-x="1548" d="M195 0v1513h190v-645h780v645h189v-1513h-189v686h-780v-686h-190z" />
<glyph unicode="I" horiz-adv-x="577" d="M195 0v1513h188v-1513h-188z" />
<glyph unicode="J" horiz-adv-x="1134" d="M29 172l123 135q120 -151 307 -151h2q137 0 220 88t83 245v1024h190v-1032q0 -242 -137 -372q-139 -134 -358 -134q-262 0 -430 197z" />
<glyph unicode="K" horiz-adv-x="1353" d="M195 0v1513h188v-839l713 839h225l-604 -714l661 -799h-235l-551 672l-209 -248v-424h-188z" />
<glyph unicode="L" horiz-adv-x="1230" d="M195 0v1513h188v-1329h819v-184h-1007z" />
<glyph unicode="M" horiz-adv-x="1875" d="M195 0v1513h81l664 -974l657 974h84v-1513h-190v1047l-530 -783h-48l-530 783v-1047h-188z" />
<glyph unicode="N" horiz-adv-x="1593" d="M195 0v1513h75l940 -1101v1101h189v-1513h-90l-926 1096v-1096h-188z" />
<glyph unicode="O" horiz-adv-x="1753" d="M94 748q0 332 230 561q231 231 552.5 231t553.5 -231q229 -229 229 -553q0 -322 -232 -553q-231 -227 -559 -228q-330 0 -553 224q-221 225 -221 549zM291 754q0 -254 168 -424q170 -170 418 -170q246 0 415.5 170t169.5 424t-170 428q-168 172 -415.5 172t-415.5 -174 q-170 -174 -170 -426z" />
<glyph unicode="P" horiz-adv-x="1234" d="M195 0v1513h497q236 0 359 -137q125 -137 125 -325q0 -190 -132 -328q-129 -135 -370 -135h-291v-588h-188zM383 766h293q147 0 228 82t81 207q0 121 -74.5 199.5t-205.5 78.5h-322v-567z" />
<glyph unicode="Q" horiz-adv-x="1753" d="M94 758q0 322 230 551q231 231 555 231q322 0 551 -229.5t229 -552.5q0 -244 -139 -445q-137 -199 -359 -284q139 -115 297 -115q88 0 174 33l23 -160q-86 -39 -209 -39q-274 0 -494 232q-66 -4 -73 -5q-326 0 -555.5 229.5t-229.5 553.5zM293 754q0 -254 170 -424 t416 -170q244 0 413.5 170t169.5 424t-170 428q-168 172 -413.5 172t-415.5 -172q-170 -174 -170 -428z" />
<glyph unicode="R" horiz-adv-x="1302" d="M195 0v1513h503q223 0 346 -133q123 -131 123 -313q0 -152 -94 -272q-96 -125 -266 -158l430 -637h-236l-405 625h-213v-625h-188zM383 805h274q154 0 235 73.5t81 192.5q0 115 -73 187.5t-200 72.5h-317v-526z" />
<glyph unicode="S" horiz-adv-x="1142" d="M57 291l148 112q119 -245 356 -245h2q131 0 209 68.5t78 168.5q0 129 -160 219q-29 16 -158 76q-96 45 -167 88q-225 145 -226 359q0 174 123 286q123 117 324 117q279 0 438 -225l-135 -119q-119 166 -301 166q-106 0 -176 -58.5t-70 -154.5q0 -123 129 -203 q41 -25 178 -92q152 -72 195 -100q213 -129 213 -348q0 -193 -142 -312q-137 -119 -350 -119q-164 0 -300 82t-208 234z" />
<glyph unicode="T" horiz-adv-x="1148" d="M29 1329v184h1091v-184h-450v-1329h-191v1329h-450z" />
<glyph unicode="U" horiz-adv-x="1439" d="M178 504v1009h189v-970q0 -186 92 -284.5t262 -98.5q166 0 258 101t92 282v970h191v-1009q0 -246 -148 -389q-147 -141 -393 -141q-1 0 -2 -1q-245 0 -393 142q-148 143 -148 389z" />
<glyph unicode="V" horiz-adv-x="1441" d="M18 1513h215l492 -1177l489 1177h205l-647 -1513h-98z" />
<glyph unicode="W" horiz-adv-x="2097" d="M25 1513h198l375 -1122l410 1122h77l420 -1122l367 1122h199l-519 -1513h-92l-411 1151l-408 -1151h-94z" />
<glyph unicode="X" horiz-adv-x="1271" d="M18 0l506 768l-483 745h221l375 -600l377 600h229l-498 -745l504 -768h-221l-391 610l-389 -610h-230z" />
<glyph unicode="Y" horiz-adv-x="1296" d="M41 1513h209l397 -782l404 782h209l-519 -964v-549h-188v549z" />
<glyph unicode="Z" horiz-adv-x="1255" d="M61 0v113l836 1220h-797v180h1063v-114l-825 -1219h848v-180h-1125z" />
<glyph unicode="[" horiz-adv-x="745" d="M182 -465v2126h531v-148h-342v-1830h342v-148h-531z" />
<glyph unicode="\" horiz-adv-x="1222" d="M43 1690h174l965 -1942h-174z" />
<glyph unicode="]" horiz-adv-x="745" d="M33 -317h342v1830h-342v148h530v-2126h-530v148z" />
<glyph unicode="^" horiz-adv-x="1058" d="M84 883l395 630h103l393 -630h-182l-263 442l-262 -442h-184z" />
<glyph unicode="_" horiz-adv-x="1189" d="M0 -176h1190v-166h-1190v166z" />
<glyph unicode="`" horiz-adv-x="872" d="M82 1610h227l121 -340h-158z" />
<glyph unicode="a" horiz-adv-x="1357" d="M86 555q0 248 156 406q155 161 390 161h3q239 0 391 -188v162h176v-1096h-176v158q-150 -184 -391 -185q-238 0 -393 166q-156 168 -156 416zM270 547q0 -170 105 -289q109 -117 278.5 -117t278.5 117q108 121 108 291q0 168 -108 287q-106 119 -277 119l-1 -1 q-172 0 -279 -118q-104 -117 -105 -289z" />
<glyph unicode="b" horiz-adv-x="1363" d="M156 0v1550h182v-622q151 194 393 194q233 0 389 -168q158 -170 158 -407.5t-158 -407.5q-158 -166 -391 -166q-244 0 -391 189v-162h-182zM330 549q0 -170 104.5 -287t276.5 -117q170 0 274 117q107 116 107 289q0 171 -107 283q-103 116 -271 116h-3 q-172 0 -276.5 -116.5t-104.5 -284.5z" />
<glyph unicode="c" horiz-adv-x="1224" d="M86 547q0 250 164 414q163 161 421 161h3q162 0 297 -77.5t198 -206.5l-151 -88q-57 94 -148.5 149t-195.5 55q-174 0 -289 -116q-115 -119 -115 -291t111 -289q115 -115 283 -115q106 0 202 58q100 59 146 143l151 -88q-68 -125 -204.5 -203t-294.5 -78q-252 0 -416 160 q-162 162 -162 412z" />
<glyph unicode="d" horiz-adv-x="1363" d="M86 549q0 238 158 405q156 168 391 168q241 0 391 -190v618h182v-1550h-182v154q-143 -180 -387 -181q-242 0 -397 166q-156 168 -156 410zM270 547q0 -171 107 -289q106 -117 278 -117t279 117q106 119 106 291t-106 287q-106 119 -277 119l-1 -1q-172 0 -279 -118 q-107 -116 -107 -289z" />
<glyph unicode="e" horiz-adv-x="1247" d="M88 551q0 248 153.5 409.5t397.5 161.5q231 0 379 -149q147 -150 147 -406q0 -23 -6 -96h-878q25 -150 123 -238t270 -88q96 0 201.5 35t185.5 90l78 -141q-84 -66 -211 -110t-258 -44q-197 0 -332 86t-192.5 212t-57.5 278zM281 635h692q-8 145 -101.5 233t-232.5 88 t-237.5 -89t-120.5 -232z" />
<glyph unicode="f" horiz-adv-x="796" d="M53 938v158h193v75q0 188 109.5 295t293.5 107q131 0 236 -55l-56 -154q-87 37 -159 37q-242 0 -242 -234v-71h350v-158h-350v-938h-182v938h-193z" />
<glyph unicode="g" horiz-adv-x="1363" d="M86 561.5q0 237.5 162 399t397.5 161.5t380.5 -170v144h182v-983q0 -264 -159 -422q-156 -156 -424 -156t-480 154l88 145q180 -133 392 -133q184 0 290 106q111 104 111 273v90q-147 -172 -389 -172q-238 0 -393 162q-158 164 -158 401.5zM270 561q0 -170 109 -285 q110 -112 273 -112h3q168 0 275 112q110 112 110 282q0 171 -110 286q-107 112 -275 112q-170 0 -276 -112q-109 -115 -109 -283z" />
<glyph unicode="h" horiz-adv-x="1253" d="M156 0v1550h176v-589q51 76 144 119.5t204 43.5q182 0 307 -118.5t125 -341.5v-664h-182v612q0 164 -77 253t-208 89q-137 0 -223 -96q-84 -96 -84 -246v-612h-182z" />
<glyph unicode="i" horiz-adv-x="493" d="M113 1390.5q0 57.5 38.5 95.5t98.5 38q55 0 94 -38t39 -95.5t-39 -96.5t-94 -39q-59 0 -98 39t-39 96.5zM156 0v1096h182v-1096h-182z" />
<glyph unicode="j" horiz-adv-x="542" d="M-152 -424l37 154q80 -29 129 -29q190 0 191 227v1168h182v-1151q0 -199 -93 -305.5t-259 -106.5q-121 0 -187 43zM160 1390.5q0 57.5 39 95.5t98 38q55 0 94 -38t39 -95.5t-39 -96.5t-94 -39q-59 0 -98 39t-39 96.5z" />
<glyph unicode="k" horiz-adv-x="1103" d="M156 0v1550h182v-907l504 453h252l-516 -461l532 -635h-244l-420 518l-108 -98v-420h-182z" />
<glyph unicode="l" horiz-adv-x="493" d="M156 0v1550h182v-1550h-182z" />
<glyph unicode="m" horiz-adv-x="1986" d="M156 0v1096h178v-162q49 88 136 139t194 51q113 0 207 -54t141 -150q55 92 163.5 148t235.5 56q201 0 317.5 -129t116.5 -346v-649h-182v623q0 158 -72.5 244.5t-197.5 86.5q-133 0 -216 -93t-83 -243v-618h-183v618q0 158 -72.5 247t-199.5 89q-135 0 -218 -93t-83 -247 v-614h-182z" />
<glyph unicode="n" horiz-adv-x="1257" d="M156 0v1096h178v-156q104 184 348 184q184 0 309 -118.5t125 -341.5v-664h-182v610q0 164 -78 254t-209 90q-137 0 -223 -96t-86 -248v-610h-182z" />
<glyph unicode="o" horiz-adv-x="1318" d="M86 549q0 242 162 405q162 168 411 168q248 0 410 -168q164 -168 164 -405q0 -246 -162 -410q-162 -166 -411.5 -166t-411.5 166q-162 164 -162 410zM270 549q0 -170 113 -289t276.5 -119t276.5 119t113 289q0 166 -113 285q-115 121 -275 121l-1 -1q-162 0 -277 -120 q-113 -119 -113 -285z" />
<glyph unicode="p" horiz-adv-x="1368" d="M156 -451v1547h182v-168q151 194 397 194q233 0 389 -168q158 -170 158 -407.5t-158 -407.5q-158 -166 -393 -166q-246 0 -393 189v-613h-182zM330 549q0 -170 104 -291q107 -117 281 -117q170 0 278 117q107 120 107 293q0 171 -107 285q-105 118 -275 118h-3 q-174 0 -281 -118q-104 -117 -104 -287z" />
<glyph unicode="q" horiz-adv-x="1368" d="M86 549q0 238 158 405q156 168 391 168h3q243 0 392 -192v166h182v-1547h-182v613q-147 -188 -395 -189q-238 0 -393 166q-156 168 -156 410zM270 547q0 -171 107 -289q106 -117 278 -117t279 117q106 119 106 291t-106 287q-106 119 -277 119q-1 0 -1 -1 q-173 0 -279 -118q-107 -116 -107 -289z" />
<glyph unicode="r" horiz-adv-x="786" d="M156 0v1096h172v-164q94 192 315 192h2q57 0 127 -16l-16 -178q-59 18 -113 18q-137 0 -221 -93t-84 -265v-590h-182z" />
<glyph unicode="s" horiz-adv-x="917" d="M53 217l140 96q47 -86 117.5 -131t148.5 -45q88 0 144 46t56 112q0 90 -104 147q-41 23 -133 62q-104 45 -137 63q-164 90 -164 262q0 131 94 217.5t254 86.5q109 0 202 -46.5t140 -130.5l-123 -108q-84 129 -231 129q-76 0 -119 -40t-43 -99q0 -90 90 -133l125 -58 q96 -41 143 -65q186 -98 187 -277q0 -137 -108.5 -233.5t-278.5 -96.5q-127 0 -233.5 61.5t-166.5 180.5z" />
<glyph unicode="t" horiz-adv-x="864" d="M31 938v158h196v387h181v-387h391v-158h-391v-576q0 -221 180 -221q92 0 198 66l72 -141q-117 -92 -287 -92q-1 0 -2 -1q-169 -1 -256 105q-88 106 -88 303v557h-194z" />
<glyph unicode="u" horiz-adv-x="1212" d="M141 438v658h183v-652q0 -141 74.5 -221t207.5 -80t208 80t75 221v652h182v-658q0 -215 -124 -340t-341 -125q-215 0 -340 125t-125 340z" />
<glyph unicode="v" horiz-adv-x="1142" d="M27 1096h202l344 -836l342 836h201l-483 -1094h-123z" />
<glyph unicode="w" horiz-adv-x="1708" d="M25 1096h190l266 -838l307 838h127l318 -838l256 838h190l-366 -1094h-150l-311 840l-303 -840h-150z" />
<glyph unicode="x" horiz-adv-x="1026" d="M16 0l390 569l-353 527h213l252 -394l254 394h217l-371 -541l379 -555h-211l-274 418l-274 -418h-222z" />
<glyph unicode="y" horiz-adv-x="1122" d="M29 1096h211l348 -840l301 840h203l-463 -1229q-66 -176 -155 -254t-214 -78q-104 0 -170 41l21 162q74 -33 133 -33q137 0 217 195l43 106z" />
<glyph unicode="z" horiz-adv-x="1032" d="M61 0v115l637 821h-600v158h846v-105l-637 -831h656v-158h-902z" />
<glyph unicode="{" horiz-adv-x="749" d="M45 535v118q96 25 156 58q80 47 80 157q0 66 -9 199q-6 154 -6 240q0 176 92.5 265t266.5 89h82v-148h-70q-199 0 -199 -194q0 -68 6 -221q8 -133 9 -213q0 -100 -64 -178t-160 -109v-8q96 -31 160 -107.5t64 -177.5q0 -80 -9 -217q-6 -152 -6 -217q0 -197 199 -197h70 v-147h-82q-174 0 -266.5 90t-92.5 266q0 86 6 238q8 133 9 198q0 113 -80 158q-55 33 -156 58z" />
<glyph unicode="|" horiz-adv-x="524" d="M182 -367v2102h160v-2102h-160z" />
<glyph unicode="}" horiz-adv-x="749" d="M43 -326h70q199 0 198 197q0 84 -8 217q-8 137 -8 217q0 100 64.5 177t160.5 108v8q-96 31 -160.5 108.5t-64.5 178.5q0 80 8 213q8 137 8 221q0 195 -198 194h-70v148h82q174 0 266 -90t92 -264q0 -102 -8 -240q-6 -152 -6 -199q0 -111 80 -157q59 -33 156 -58v-118 q-96 -23 -158 -58q-78 -47 -78 -158q0 -49 6 -198q8 -133 8 -238q0 -176 -92 -266t-266 -90h-82v147z" />
<glyph unicode="~" horiz-adv-x="1357" d="M135 621q117 197 338 196q96 0 233.5 -69.5t196.5 -69.5q66 0 112 26.5t97 94.5l117 -84q-119 -197 -338 -197q-98 0 -235.5 69.5t-194.5 69.5q-66 0 -112 -26.5t-97 -93.5z" />
<glyph unicode="&#xa2;" horiz-adv-x="1247" d="M92.5 547q-0.5 235 140.5 391q147 160 373 180v170h135v-170q143 -14 260 -89t175 -191l-152 -88q-103 169 -283 200v-798q86 16 161 68t116 124l151 -88q-59 -111 -173.5 -185.5t-254.5 -90.5v-166h-135v163q-225 20 -370 179q-143 156 -143.5 391zM276.5 546.5 q-0.5 -153.5 92.5 -265.5q92 -111 237 -134v801q-147 -25 -237 -137q-92 -111 -92.5 -264.5z" />
<glyph unicode="&#xa3;" horiz-adv-x="1163" d="M113 0v152q88 57 147 175.5t59 225.5q0 57 -24 137h-182v160h125q-57 154 -58 254q4 184 133 309q129 123 326 127q135 2 248.5 -62.5t181.5 -177.5l-143 -98q-43 76 -117 121t-158 45q-121 0 -199.5 -80t-78.5 -201q0 -88 55 -237h500v-160h-445q25 -92 23 -166 q-2 -98 -49 -193.5t-121 -156.5h743v-174h-966z" />
<glyph unicode="&#xa5;" horiz-adv-x="1296" d="M63 1513h203l383 -735l385 735h201l-414 -770h281v-143h-359l-2 -4v-115h361v-143h-361v-338h-188v338h-365v143h365v119h-365v143h287z" />
<glyph unicode="&#xa8;" horiz-adv-x="1011" d="M102 1432q0 55 40 93t98 38q55 0 94 -38t39 -93q0 -59 -39 -98.5t-94 -39.5q-59 0 -98.5 39t-39.5 99zM504 1432q0 55 40 93t97 38q55 0 94 -38t39 -93q0 -59 -39 -98.5t-94 -39.5q-59 0 -98 39t-39 99z" />
<glyph unicode="&#xa9;" horiz-adv-x="1765" d="M94 756q0 322 231.5 553t557 231t557 -231.5t231.5 -552.5q0 -319 -231 -551q-229 -229 -557 -229.5t-557 229.5q-232 232 -232 551zM229 756q0 -264 191 -459q195 -190 463 -191q270 0 460 191q193 193 193 459q0 268 -193 458q-190 193 -460.5 193t-462.5 -193 q-190 -190 -191 -458zM471 756q0 178 121 299t297 121q201 0 317 -144l-90 -78q-92 102 -227 103q-127 0 -207 -84t-80 -217q0 -131 80 -215t207 -84q145 0 231 96l84 -86q-116 -131 -315 -131q-176 0 -297 121q-121 125 -121 299z" />
<glyph unicode="&#xaa;" horiz-adv-x="845" d="M96 1014q0 94 76 150.5t205 56.5q109 0 219 -25q-8 193 -205 193q-113 0 -203 -60l-47 101q100 77 258 77q141 0 226.5 -86t85.5 -233v-387h-115v78q-84 -96 -236 -97q-119 0 -191.5 65.5t-72.5 166.5zM223 1016q0 -51 41 -81t107 -30q197 0 221 189q-94 23 -203 22 q-78 0 -122 -26.5t-44 -73.5z" />
<glyph unicode="&#xab;" horiz-adv-x="1036" d="M86 596l293 416h178l-293 -416l293 -416h-178zM455 596l288 416h181l-291 -416l291 -416h-181z" />
<glyph unicode="&#xad;" horiz-adv-x="1056" d="M137 481v172h783v-172h-783z" />
<glyph unicode="&#xae;" horiz-adv-x="1155" d="M90 1071q0 201 143.5 344.5t344 143.5t344 -143.5t143.5 -344.5t-143.5 -344t-344 -143t-344 143t-143.5 344zM186 1071q0 -162 115 -276.5t276.5 -114.5t276.5 114.5t115 276.5t-115 276.5t-276.5 114.5t-276.5 -114.5t-115 -276.5zM408 829v494h194q74 0 122 -46 t48 -118q0 -106 -94 -145l108 -185h-104l-98 168h-84v-168h-92zM500 1073h82q100 0 100 88q0 84 -100 84h-82v-172z" />
<glyph unicode="&#xb2;" horiz-adv-x="704" d="M70 1751q123 117 274 117q84 2 150.5 -40t96.5 -108.5t8.5 -155.5t-101.5 -173l-215 -226h333v-127h-534v113l268 272q117 121 117 195q0 53 -38 87t-93 34q-90 0 -193 -90z" />
<glyph unicode="&#xb3;" horiz-adv-x="677" d="M37 1106l59 108q115 -66 201 -65q72 0 114 34t42 89t-44 90t-114 35h-105v119h101q63 0 104 30.5t41 83.5t-38 83t-97 30q-84 0 -176 -68l-68 97q102 96 258 96q115 0 189 -61.5t74 -153.5q0 -66 -40 -116t-106 -71v-4q78 -16 121 -69.5t43 -128.5q0 -104 -82 -171 t-213 -67q-137 0 -264 80z" />
<glyph unicode="&#xb4;" horiz-adv-x="931" d="M82 1270l121 340h227l-190 -340h-158z" />
<glyph unicode="&#xb8;" horiz-adv-x="634" d="M82 -451l49 123q98 -41 166 -41q55 0 88 26t33 64q0 76 -107 76h-114l-19 43l80 201l143 -4l-55 -135h21q88 0 147 -50.5t59 -136.5q0 -94 -69.5 -158.5t-192.5 -64.5q-106 0 -229 57z" />
<glyph unicode="&#xb9;" horiz-adv-x="538" d="M39 1624l266 217h107v-803h-142v607l-155 -125z" />
<glyph unicode="&#xba;" horiz-adv-x="905" d="M88 1141q0 156 105 260q104 106 259.5 106t260.5 -106q104 -104 104 -260q0 -154 -104 -258q-106 -102 -260 -102.5t-260 102.5q-105 104 -105 258zM209 1143q0 -106 70 -177t172 -71q104 0 174.5 70.5t70.5 177t-70.5 179.5t-174.5 73q-102 0 -172 -74q-70 -70 -70 -178 z" />
<glyph unicode="&#xbb;" horiz-adv-x="1036" d="M113 180l290 416l-290 416h180l289 -416l-289 -416h-180zM479 180l293 416l-293 416h178l293 -416l-293 -416h-178z" />
<glyph unicode="&#xc2;" horiz-adv-x="1374" d="M27 0l616 1513h90l613 -1513h-209l-160 403h-582l-159 -403h-209zM338 1622l285 332h129l284 -332h-200l-150 184l-149 -184h-199zM461 584h450l-225 581z" />
<glyph unicode="&#xc7;" horiz-adv-x="1593" d="M96 752q0 344 230 565q229 223 555 223q205 0 381 -92q178 -94 272 -242l-143 -116q-92 125 -224.5 195.5t-283.5 70.5q-248 0 -420 -172t-172 -434q0 -258 168 -424t422 -166q317 0 518 262l139 -117q-100 -141 -262 -228t-352 -97l-31 -78h20q88 0 147.5 -50.5 t59.5 -136.5q0 -94 -69.5 -158.5t-192.5 -64.5q-106 0 -229 57l49 123q98 -41 166 -41q55 0 88 26t33 64q0 76 -107 76h-115l-18 43l57 142q-297 35 -491 243q-195 213 -195 527z" />
<glyph unicode="&#xce;" horiz-adv-x="577" d="M-53 1626l284 332h129l285 -332h-201l-149 184l-150 -184h-198zM201 0v1513h188v-1513h-188z" />
<glyph unicode="&#xd6;" horiz-adv-x="1753" d="M94 748q0 332 230 561q231 231 552.5 231t553.5 -231q229 -229 229 -553q0 -322 -232 -553q-231 -227 -559 -228q-330 0 -553 224q-221 225 -221 549zM291 754q0 -254 168 -424q170 -170 418 -170q246 0 415.5 170t169.5 424t-170 428q-168 172 -415.5 172t-415.5 -174 q-170 -174 -170 -426zM592 1775.5q0 51.5 35 84.5q35 35 86 34.5t86 -34.5q35 -33 35 -84.5t-35 -86t-86 -34.5t-86 34.5t-35 86zM950 1775.5q0 51.5 35 84.5q35 35 86 34.5t86 -34.5q35 -33 35 -84.5t-35 -86t-86 -34.5t-86 34.5t-35 86z" />
<glyph unicode="&#xdb;" horiz-adv-x="1439" d="M178 504v1009h189v-970q0 -186 92 -284.5t262 -98.5q166 0 258 101t92 282v970h191v-1009q0 -246 -148 -389q-147 -141 -393 -141.5t-395 141.5q-148 143 -148 389zM373 1622l284 332h129l285 -332h-201l-149 184l-150 -184h-198z" />
<glyph unicode="&#xdc;" horiz-adv-x="1439" d="M178 504v1009h189v-970q0 -186 92 -284.5t262 -98.5q166 0 258 101t92 282v970h191v-1009q0 -246 -148 -389q-147 -141 -393 -141.5t-395 141.5q-148 143 -148 389zM422 1775.5q0 51.5 35 84.5q35 35 86 34.5t86 -34.5q35 -33 35 -84.5t-35 -86t-86 -34.5t-86 34.5 t-35 86zM780 1775.5q0 51.5 35 84.5q35 35 86 34.5t86 -34.5q35 -33 35 -84.5t-35 -86t-86 -34.5t-86 34.5t-35 86z" />
<glyph unicode="&#xe2;" horiz-adv-x="1357" d="M86 555q0 248 156 406q156 162 393 161q239 0 391 -188v162h176v-1096h-176v158q-150 -184 -391 -185q-238 0 -393 166q-156 168 -156 416zM270 547q0 -170 105 -289q109 -117 278.5 -117t278.5 117q108 121 108 291q0 168 -108 287q-106 119 -278.5 118.5t-278.5 -118.5 q-104 -117 -105 -289zM322 1272l284 332h129l285 -332h-201l-149 184l-150 -184h-198z" />
<glyph unicode="&#xe7;" horiz-adv-x="1224" d="M86 547q0 250 164 414q164 162 424 161q162 0 297 -77.5t198 -206.5l-151 -88q-57 94 -148.5 149t-195.5 55q-174 0 -289 -116q-115 -119 -115 -291t111 -289q115 -115 283 -115q106 0 202 58q100 59 146 143l151 -88q-61 -117 -187 -193.5t-271 -85.5l-31 -75h20 q88 0 147.5 -50.5t59.5 -136.5q0 -94 -69.5 -158.5t-192.5 -64.5q-106 0 -229 57l49 123q98 -41 166 -41q55 0 87.5 26t32.5 64q0 76 -106 76h-115l-18 43l57 144q-215 33 -346 186q-131 156 -131 377z" />
<glyph unicode="&#xee;" horiz-adv-x="493" d="M-104 1268l284 331h129l285 -331h-201l-149 184l-150 -184h-198zM156 0v1096h182v-1096h-182z" />
<glyph unicode="&#xf6;" horiz-adv-x="1318" d="M86 549q0 242 162 405q162 168 411 168q248 0 410 -168q164 -168 164 -405q0 -246 -162 -410q-162 -166 -411.5 -166t-411.5 166q-162 164 -162 410zM270 549q0 -170 113 -289t276.5 -119t276.5 119t113 289q0 166 -113 285q-115 121 -276.5 120.5t-276.5 -120.5 q-113 -119 -113 -285zM328 1399q0 55 40 93t97 38q55 0 94 -38t39 -93q0 -59 -39 -98t-94 -39q-59 0 -98 38.5t-39 98.5zM729 1399q0 55 40 93t97 38q55 0 94 -38t39 -93q0 -59 -39 -98t-94 -39q-59 0 -98 38.5t-39 98.5z" />
<glyph unicode="&#xfb;" horiz-adv-x="1212" d="M141 438v658h183v-652q0 -141 74.5 -221t207.5 -80t208 80t75 221v652h182v-658q0 -215 -124 -340t-341 -125q-215 0 -340 125t-125 340zM258 1268l285 331h129l284 -331h-200l-150 184l-149 -184h-199z" />
<glyph unicode="&#xfc;" horiz-adv-x="1212" d="M141 438v658h183v-652q0 -141 74.5 -221t207.5 -80t208 80t75 221v652h182v-658q0 -215 -124 -340t-341 -125q-215 0 -340 125t-125 340zM270 1399q0 55 40 93t98 38q55 0 94 -38t39 -93q0 -59 -39 -98t-94 -39q-59 0 -98.5 38.5t-39.5 98.5zM672 1399q0 55 40 93t97 38 q55 0 94 -38t39 -93q0 -59 -39 -98t-94 -39q-59 0 -98 38.5t-39 98.5z" />
<glyph unicode="&#x11e;" horiz-adv-x="1662" d="M96 756q0 340 230 561q229 223 555 223q188 0 360 -78q170 -78 272 -205l-137 -120q-195 219 -493 219q-252 0 -422 -170t-170 -432q0 -258 168 -426t418 -168q139 0 269 58t228 163v315h-520v176h700v-573q-278 -322 -686 -322q-336 0 -553 222q-219 223 -219 557z M530 1962h160q2 -96 54.5 -151.5t138.5 -55.5t138 55.5t54 151.5h162q-2 -158 -100.5 -254t-254 -96t-253 95t-99.5 255z" />
<glyph unicode="&#x11f;" horiz-adv-x="1363" d="M86 561.5q0 237.5 162 399t397.5 161.5t380.5 -170v144h182v-983q0 -264 -159 -422q-156 -156 -424 -156t-480 154l88 145q180 -133 392 -133q184 0 290 106q111 104 111 273v90q-147 -172 -389 -172q-238 0 -393 162q-158 164 -158 401.5zM270 561q0 -170 109 -285 q111 -113 276 -112q168 0 275 112q111 113 110 285q0 168 -110 283q-107 112 -275 112q-170 0 -276 -112q-109 -115 -109 -283zM289 1616h160q2 -96 54 -151.5t138 -55.5t138 55.5t55 151.5h161q-2 -158 -100 -254t-254 -96t-253 95t-99 255z" />
<glyph unicode="&#x130;" horiz-adv-x="577" d="M170 1767.5q0 57.5 39 95.5t98 38q55 0 94 -38t39 -95.5t-39 -96.5t-94 -39q-59 0 -98 39t-39 96.5zM211 0v1513h188v-1513h-188z" />
<glyph unicode="&#x131;" horiz-adv-x="493" d="M156 0v1096h182v-1096h-182z" />
<glyph unicode="&#x15e;" horiz-adv-x="1142" d="M57 291l148 112q119 -246 358 -245q131 0 209 68.5t78 168.5q0 129 -160 219q-29 16 -158 76q-96 45 -167 88q-225 145 -226 359q0 174 123 286q123 117 324 117q279 0 438 -225l-135 -119q-119 166 -301 166q-106 0 -176 -58.5t-70 -154.5q0 -123 129 -203 q41 -25 178 -92q152 -72 195 -100q213 -129 213 -348q0 -176 -123 -295q-121 -119 -311 -134l-31 -75h20q88 0 147.5 -50.5t59.5 -136.5q0 -94 -69.5 -158.5t-192.5 -64.5q-106 0 -229 57l49 123q98 -41 166 -41q55 0 88 26t33 64q0 76 -107 76h-115l-18 43l55 142 q-139 18 -250.5 98t-171.5 211z" />
<glyph unicode="&#x15f;" horiz-adv-x="917" d="M53 217l140 96q47 -86 117.5 -131t148.5 -45q88 0 144 46t56 112q0 90 -104 147q-41 23 -133 62q-104 45 -137 63q-164 90 -164 262q0 131 94 217.5t254 86.5q109 0 202 -46.5t140 -130.5l-123 -108q-84 129 -231 129q-76 0 -119 -40t-43 -99q0 -90 90 -133l125 -58 q96 -41 143 -65q187 -99 187 -277q0 -127 -97 -223q-94 -92 -249 -105l-31 -75h20q88 0 147.5 -50.5t59.5 -136.5q0 -94 -69.5 -158.5t-192.5 -64.5q-106 0 -229 57l49 123q98 -41 166 -41q55 0 88 26t33 64q0 76 -107 76h-115l-18 43l57 146q-205 45 -299 231z" />
<glyph unicode="&#x218;" horiz-adv-x="1142" d="M57 291l148 112q119 -246 358 -245q131 0 209 68.5t78 168.5q0 129 -160 219q-29 16 -158 76q-96 45 -167 88q-225 145 -226 359q0 174 123 286q123 117 324 117q279 0 438 -225l-135 -119q-119 166 -301 166q-106 0 -176 -58.5t-70 -154.5q0 -123 129 -203 q41 -25 178 -92q152 -71 195 -100q213 -129 213 -348q0 -193 -142 -312q-137 -119 -350 -119q-164 0 -300 82t-208 234zM397 -481q133 102 162 155h-8q-45 0 -78 34t-33 81q0 51 38 88t93 37q57 0 96.5 -43t39.5 -104q0 -176 -248 -332z" />
<glyph unicode="&#x219;" horiz-adv-x="917" d="M53 217l140 96q47 -86 117.5 -131t148.5 -45q88 0 144 46t56 112q0 90 -104 147q-41 23 -133 62q-104 45 -137 63q-164 90 -164 262q0 131 94 217.5t254 86.5q109 0 202 -46.5t140 -130.5l-123 -108q-84 129 -231 129q-76 0 -119 -40t-43 -99q0 -90 90 -133l125 -58 q96 -40 143 -65q186 -98 187 -277q0 -137 -108.5 -233.5t-278.5 -96.5q-127 0 -233.5 61.5t-166.5 180.5zM293 -494q133 102 162 156h-9q-45 0 -77.5 34t-32.5 81q0 51 38 88t93 37q57 0 96 -43t39 -105q0 -176 -248 -332z" />
<glyph unicode="&#x2c6;" horiz-adv-x="1177" d="M78 1276l284 332h130l284 -332h-201l-149 184l-150 -184h-198z" />
<glyph unicode="&#x2da;" horiz-adv-x="774" d="M82 1454q0 96 67.5 161.5t166 65.5t166 -65.5t67.5 -161.5q0 -94 -67.5 -158.5t-166 -64.5t-166 64.5t-67.5 158.5zM203 1458q0 -49 32.5 -80.5t79.5 -31.5q45 0 78 31.5t33 80.5q0 45 -33 77t-78 32q-47 0 -79.5 -32t-32.5 -77z" />
<glyph unicode="&#x2dc;" horiz-adv-x="1103" d="M82 1386q25 90 87 140.5t148 50.5q66 0 154 -45q90 -45 131 -45q78 0 119 90l115 -53q-25 -90 -87.5 -140.5t-146.5 -50.5q-63 0 -151 45q-90 47 -129 47q-78 0 -121 -94z" />
<glyph unicode="&#x2000;" horiz-adv-x="1023" />
<glyph unicode="&#x2001;" horiz-adv-x="2046" />
<glyph unicode="&#x2002;" horiz-adv-x="1023" />
<glyph unicode="&#x2003;" horiz-adv-x="2046" />
<glyph unicode="&#x2004;" horiz-adv-x="682" />
<glyph unicode="&#x2005;" horiz-adv-x="511" />
<glyph unicode="&#x2006;" horiz-adv-x="341" />
<glyph unicode="&#x2007;" horiz-adv-x="341" />
<glyph unicode="&#x2008;" horiz-adv-x="255" />
<glyph unicode="&#x2009;" horiz-adv-x="159" />
<glyph unicode="&#x200a;" horiz-adv-x="113" />
<glyph unicode="&#x2010;" horiz-adv-x="1056" d="M137 481v172h783v-172h-783z" />
<glyph unicode="&#x2011;" horiz-adv-x="1056" d="M137 481v172h783v-172h-783z" />
<glyph unicode="&#x2012;" horiz-adv-x="1056" d="M137 481v172h783v-172h-783z" />
<glyph unicode="&#x2013;" horiz-adv-x="1464" d="M137 481v172h1190v-172h-1190z" />
<glyph unicode="&#x2014;" horiz-adv-x="2117" d="M137 481v172h1843v-172h-1843z" />
<glyph unicode="&#x2018;" horiz-adv-x="479" d="M92 1219q0 170 246 325l59 -84q-130 -100 -159 -151h8q45 0 76.5 -34t31.5 -81q0 -49 -37.5 -85t-89.5 -36q-59 0 -97 41t-38 105z" />
<glyph unicode="&#x2019;" horiz-adv-x="475" d="M94 1153q131 100 160 152h-8q-45 0 -77 33.5t-32 80.5q0 49 38 85t89 36q59 0 97 -41t38 -104q0 -170 -245 -326z" />
<glyph unicode="&#x201a;" horiz-adv-x="489" d="M72 -176q131 100 159 151h-8q-45 0 -76.5 34t-31.5 81q0 49 38 85t89 36q59 0 97 -41t38 -104q0 -168 -246 -326z" />
<glyph unicode="&#x201c;" horiz-adv-x="966" d="M100 1219q0 169 246 325l60 -84q-131 -100 -160 -151h8q45 0 76.5 -34t31.5 -81q0 -49 -37.5 -85t-88.5 -36q-59 0 -97.5 41t-38.5 105zM580 1219q0 170 245 325l60 -84q-131 -100 -160 -151h8q45 0 77 -34t32 -81q0 -49 -38 -85t-89 -36q-59 0 -97 41t-38 105z" />
<glyph unicode="&#x201d;" horiz-adv-x="944" d="M88 1159q131 100 160 152h-8q-45 0 -77 33.5t-32 80.5q0 49 38 85t89 36q59 0 97 -41t38 -104q0 -168 -246 -326zM563 1159q131 100 160 152h-8q-45 0 -77 33.5t-32 80.5q0 49 38 85t89 36q59 0 97 -41t38 -104q0 -168 -245 -326z" />
<glyph unicode="&#x201e;" horiz-adv-x="954" d="M61 -180q131 100 160 151h-8q-45 0 -77 34t-32 81q0 49 38 85t89 36q59 0 97.5 -41t38.5 -105q0 -168 -246 -325zM537 -180q131 100 159 151h-8q-45 0 -76.5 34t-31.5 81q0 49 38 85t89 36q59 0 97 -41t38 -105q0 -168 -246 -325z" />
<glyph unicode="&#x2026;" horiz-adv-x="1415" d="M106 94q0 51 37 87t90.5 36t89 -36t35.5 -87q0 -55 -35.5 -91t-89 -36t-90.5 36t-37 91zM580 94q0 51 36.5 87t90 36t89 -36t35.5 -87q0 -55 -35.5 -91t-89 -36t-90 36t-36.5 91zM1053 94q0 51 36.5 87t90 36t89.5 -36t36 -87q0 -55 -36 -91t-89.5 -36t-90 36t-36.5 91z " />
<glyph unicode="&#x202f;" horiz-adv-x="409" />
<glyph unicode="&#x2039;" horiz-adv-x="667" d="M86 596l293 416h178l-293 -416l293 -416h-178z" />
<glyph unicode="&#x203a;" horiz-adv-x="667" d="M111 180l292 416l-292 416h178l293 -416l-293 -416h-178z" />
<glyph unicode="&#x2044;" horiz-adv-x="385" d="M-477 0l1184 1513h161l-1179 -1513h-166z" />
<glyph unicode="&#x205f;" horiz-adv-x="511" />
<glyph unicode="&#x2070;" horiz-adv-x="757" d="M49 1446q0 178 82 299q82 123 248 123t248 -123q82 -121 82 -299q0 -176 -82 -297q-82 -123 -248 -123t-248 123q-82 121 -82 297zM195 1446q0 -129 47 -208t137 -79q92 0 138 78t46 209q0 129 -47 208t-137 79t-137 -79t-47 -208z" />
<glyph unicode="&#x2074;" horiz-adv-x="747" d="M45 1321l440 528h93v-495h90v-113h-90v-203h-121v203h-383zM215 1354h242v286z" />
<glyph unicode="&#x2075;" horiz-adv-x="712" d="M63 1120l60 105q102 -78 205 -78q76 0 125 43t49 108q0 63 -45 106.5t-117 43.5q-86 0 -147 -62l-80 56l49 407h422v-116h-324l-24 -197q54 27 124 27q121 0 199 -75t78 -190q0 -119 -85 -196.5t-216 -77.5q-152 0 -273 96z" />
<glyph unicode="&#x2076;" horiz-adv-x="710" d="M47 1417q0 188 92 320q94 131 271 131q129 0 223 -70l-55 -100q-78 53 -160 53q-111 0 -176 -92q-63 -94 -66 -203q64 107 211 107q117 0 193.5 -75t76.5 -190q0 -119 -82.5 -196.5t-212.5 -77.5q-154 0 -235 111q-80 115 -80 282zM203 1296q0 -66 45.5 -110.5 t113.5 -44.5q70 0 116 46t46 111.5t-46 108.5t-113 43q-70 0 -116 -43t-46 -111z" />
<glyph unicode="&#x2077;" horiz-adv-x="585" d="M29 1722v119h532v-90l-321 -713h-144l312 684h-379z" />
<glyph unicode="&#x2078;" horiz-adv-x="786" d="M86 1260q0 68 45 125t121 85v3q-59 27 -95 73.5t-36 104.5q0 94 75.5 155.5t196.5 61.5t197 -61.5t76 -155.5q0 -119 -134 -178v-5q78 -27 123 -84t45 -124q0 -100 -86 -167t-221 -67t-221 67t-86 167zM223 1276q0 -59 47 -97t123 -38q74 0 121 38t47 97q0 57 -47 95 t-121 38t-122 -38t-48 -95zM252 1638q0 -49 39 -84q39 -33 102.5 -32.5t100.5 32.5q39 35 38.5 84.5t-38.5 81.5q-39 35 -100.5 35t-102.5 -35q-39 -33 -39 -82z" />
<glyph unicode="&#x2079;" horiz-adv-x="772" d="M78 1591q0 121 82 199t213 78q150 0 229.5 -106.5t79.5 -291.5q0 -195 -88 -319.5t-264 -124.5q-139 0 -226 68l52 102q78 -53 168 -53q106 0 167.5 82t65.5 215q-70 -111 -211 -111q-117 0 -192.5 75t-75.5 187zM211 1593q0 -66 44 -108.5t114 -42.5q68 0 113.5 44 t45.5 107q0 68 -45 114t-112 46q-70 0 -115 -45t-45 -115z" />
<glyph unicode="&#x2080;" horiz-adv-x="757" d="M49 90q0 178 82 299q82 123 248 123t248 -123q82 -121 82 -299q0 -176 -82 -297q-84 -123 -248 -123q-166 0 -248 123q-82 121 -82 297zM195 90q0 -129 47 -208t137 -79q92 0 138 78t46 209q0 129 -47 208t-137 79t-137 -79t-47 -208z" />
<glyph unicode="&#x2081;" horiz-adv-x="538" d="M39 268l266 217h107v-802h-142v606l-155 -125z" />
<glyph unicode="&#x2082;" horiz-adv-x="704" d="M70 395q123 117 274 117q84 2 150.5 -40t96.5 -108.5t8.5 -155.5t-101.5 -173l-215 -225h333v-127h-534v112l268 273q117 121 117 194q0 53 -38 87t-93 34q-90 0 -193 -90z" />
<glyph unicode="&#x2083;" horiz-adv-x="677" d="M37 -250l59 109q115 -66 201 -66q72 0 114 34t42 89t-44 90t-114 35h-105v119h101q63 0 104 30.5t41 84t-38 83t-97 29.5q-84 0 -176 -68l-68 97q102 96 258 96q115 0 189 -61.5t74 -153.5q0 -66 -40 -116t-106 -70v-5q78 -16 121 -69t43 -129q0 -104 -82 -171t-213 -67 q-137 0 -264 80z" />
<glyph unicode="&#x2084;" horiz-adv-x="747" d="M45 -35l440 529h93v-496h90v-113h-90v-202h-121v202h-383zM215 -2h242v287z" />
<glyph unicode="&#x2085;" horiz-adv-x="712" d="M63 -236l60 105q102 -78 205 -78q76 0 125 43t49 109q0 63 -45 106t-117 43q-86 0 -147 -61l-80 55l49 408h422v-117h-324l-24 -197q54 27 124 27q121 0 199 -75t78 -189q0 -119 -85 -197t-216 -78q-152 0 -273 96z" />
<glyph unicode="&#x2086;" horiz-adv-x="710" d="M47 61q0 188 92 320q94 131 271 131q129 0 223 -70l-55 -100q-78 53 -160 53q-111 0 -176 -92q-63 -94 -66 -203q64 107 211 107q117 0 193.5 -75t76.5 -189q0 -119 -82.5 -197t-212.5 -78q-154 0 -235 113q-80 111 -80 280zM203 -59q0 -66 45.5 -111t113.5 -45 q70 0 116 46t46 111.5t-46 108.5t-113 43q-70 0 -116 -43t-46 -110z" />
<glyph unicode="&#x2087;" horiz-adv-x="585" d="M29 367v118h532v-90l-321 -712h-144l312 684h-379z" />
<glyph unicode="&#x2088;" horiz-adv-x="786" d="M86 -96q0 68 45 125t121 86v2q-59 27 -95 74t-36 104q0 94 75.5 155.5t196.5 61.5t197 -61.5t76 -155.5q0 -119 -134 -178v-4q78 -27 123 -84.5t45 -124.5q0 -100 -86 -167t-221 -67t-221 67t-86 167zM223 -80q0 -59 47 -97t123 -38q74 0 121 38t47 97q0 57 -47 95 t-121 38t-122 -38t-48 -95zM252 283q0 -49 39 -84q39 -33 102.5 -33t100.5 33q39 35 38.5 84t-38.5 82q-39 35 -100.5 34.5t-102.5 -34.5q-39 -33 -39 -82z" />
<glyph unicode="&#x2089;" horiz-adv-x="772" d="M78 236q0 121 82 198.5t213 77.5q150 0 229.5 -106.5t79.5 -290.5q0 -193 -88 -318q-90 -127 -264 -127q-139 0 -226 68l52 102q78 -53 168 -53q106 0 167.5 82t65.5 215q-70 -111 -211 -111q-117 0 -192.5 75t-75.5 188zM211 238q0 -66 44 -109t114 -43q68 0 113.5 44 t45.5 108q0 68 -45 113.5t-112 45.5q-70 0 -115 -45t-45 -114z" />
<glyph unicode="&#x20ac;" horiz-adv-x="1525" d="M68 524l67 160h113q-4 72 0 143h-170l67 160h131q68 250 263 402q199 152 448 151q266 0 465 -141l-86 -150q-170 121 -369 121q-174 0 -317 -106q-139 -102 -205 -277h799l-72 -160h-764q-6 -76 0 -143h717l-61 -160h-621q61 -170 201 -274q143 -102 319 -103 q193 0 393 113v-182q-180 -100 -399 -101q-246 0 -444 152q-195 152 -267 395h-208z" />
<glyph unicode="&#x2122;" horiz-adv-x="1671" d="M72 1403v110h542v-110h-202v-606h-136v606h-204zM692 797v716h49l355 -442l358 442h49v-716h-127v436l-260 -324h-39l-258 324v-436h-127z" />
<glyph unicode="&#x25fc;" horiz-adv-x="1095" d="M0 0v1096h1096v-1096h-1096z" />
<glyph horiz-adv-x="1153" d="M6 406l57 129h95q-4 55 0 110h-142l56 127h108q57 195 221 315q162 119 373 119q219 0 387 -112l-74 -121q-137 94 -305 94q-143 0 -259.5 -81t-170.5 -214h662l-62 -127h-630q-4 -49 -5 -57q0 -41 2 -53h596l-53 -129h-514q49 -135 162 -212t266 -77q168 0 330 88v-150 q-152 -78 -336 -78q-221 0 -377 117q-160 121 -213 312h-174z" />
<glyph horiz-adv-x="1703" d="M195 0v1513h188v-1513h-188zM598 172l123 135q121 -152 309 -151q137 0 220 88t83 245v1024h191v-1032q0 -242 -138 -372q-139 -134 -358 -134q-262 0 -430 197z" />
<glyph horiz-adv-x="1134" d="M29 172l123 135q121 -152 309 -151q137 0 220 88t83 245v1024h190v-1032q0 -242 -137 -372q-139 -134 -358 -134q-262 0 -430 197zM774 1624l121 340h227l-190 -340h-158z" />
<glyph horiz-adv-x="1171" d="M63 328q0 154 122 247t347 93q252 0 322 20q-20 266 -313 266q-178 0 -334 -100l-88 135q72 57 187.5 95t236.5 38q211 0 350 -116q137 -117 137 -342v-664h-172v154q-125 -186 -385 -187q-186 0 -299 101q-111 100 -111 260zM254 326q0 -88 64.5 -138.5t168.5 -50.5 q158 0 256 109q100 113 109 278q-70 -16 -219 -16q-209 0 -294 -37t-85 -145z" />
<glyph horiz-adv-x="1171" d="M63 328q0 154 122 247t347 93q252 0 322 20q-20 266 -313 266q-178 0 -334 -100l-88 135q72 57 187.5 95t236.5 38q211 0 350 -116q137 -117 137 -342v-664h-172v154q-125 -186 -385 -187q-186 0 -299 101q-111 100 -111 260zM223 1272l285 332h129l285 -332h-201 l-150 184l-149 -184h-199zM254 326q0 -88 64.5 -138.5t168.5 -50.5q158 0 256 109q100 113 109 278q-70 -16 -219 -16q-209 0 -294 -37t-85 -145z" />
<glyph horiz-adv-x="634" d="M82 1626l121 340h227l-190 -340h-158z" />
<glyph horiz-adv-x="1996" d="M96 735q0 387 270.5 661.5t649.5 274.5q375 0 641 -254q268 -252 268 -594q0 -227 -119 -377q-121 -152 -290 -151q-90 0 -150.5 46t-79.5 114q-119 -160 -330 -160q-174 0 -297 127q-121 131 -120 317q0 188 123 318q125 131 305 131q199 0 305 -131v100h149v-569 q0 -68 34 -111t85 -43q98 0 162 111q68 111 67 280q0 283 -219 490t-528 207q-317 0 -539 -230q-221 -227 -221 -553q0 -322 232 -553q233 -227 573 -227q326 0 571 203l82 -123q-115 -100 -295 -164q-180 -68 -374 -68q-193 0 -371 74t-309 201q-127 127 -201 299t-74 354z M694 741q0 -131 82 -219t205 -88q125 0 207 86q84 90 84 217q0 133 -82 221q-84 90 -205 91q-125 0 -207 -88q-84 -90 -84 -220z" />
<glyph horiz-adv-x="1097" d="M43 1513h174l834 -1513h-174z" />
<glyph horiz-adv-x="761" d="M51 678v119q96 25 156 57q80 47 80 158q0 66 -8 198q-6 154 -7 240q0 176 92.5 265t266.5 89h82v-147h-70q-199 0 -199 -195q0 -68 7 -221q8 -133 8 -213q0 -100 -63.5 -178t-159.5 -109v-8q96 -31 159.5 -107.5t63.5 -176.5q0 -80 -8 -218q-6 -150 -7 -217 q0 -197 199 -196h70v-148h-82q-174 0 -266.5 90t-92.5 267q0 86 7 237q8 133 8 199q0 113 -80 158q-55 33 -156 57z" />
<glyph horiz-adv-x="763" d="M51 -182h70q199 0 198 196q0 84 -8 217q-8 137 -8 218q0 100 64.5 176.5t160.5 107.5v8q-96 31 -160.5 109t-64.5 178q0 80 8 213q8 137 8 221q0 195 -198 195h-70v147h82q174 0 266.5 -90t92.5 -264q0 -102 -9 -240q-6 -150 -6 -198q0 -111 80 -158q59 -33 156 -57v-119 q-96 -23 -158 -57q-78 -47 -78 -158q0 -47 6 -199q8 -133 9 -237q0 -176 -92.5 -266.5t-266.5 -90.5h-82v148z" />
<glyph horiz-adv-x="763" d="M195 -322v2126h530v-147h-342v-1831h342v-148h-530z" />
<glyph horiz-adv-x="763" d="M39 -174h342v1831h-342v147h530v-2126h-530v148z" />
<glyph horiz-adv-x="634" d="M82 -451l49 123q98 -41 166 -41q55 0 88 26t33 64q0 76 -107 76h-114l-19 43l80 201l143 -4l-55 -135h21q88 0 147 -50.5t59 -136.5q0 -94 -69.5 -158.5t-192.5 -64.5q-106 0 -229 57z" />
<glyph horiz-adv-x="978" d="M78 1628l284 332h130l284 -332h-201l-149 184l-150 -184h-198z" />
<glyph horiz-adv-x="542" d="M145 371q0 51 37 87t90.5 36t89 -36t35.5 -87q0 -55 -35.5 -91t-89 -36t-90.5 36t-37 91zM145 1069q0 51 37 87t90.5 36t89 -36t35.5 -87q0 -55 -35.5 -91t-89 -36t-90.5 36t-37 91z" />
<glyph horiz-adv-x="407" d="M31 -358l143 596h182l-198 -596h-127z" />
<glyph horiz-adv-x="802" d="M92 1794q0 51 35 84q35 35 86 35t86 -35q35 -33 35 -84t-35 -86t-86 -35t-86 35t-35 86zM451 1794q0 51 34 84q35 35 86.5 35t85.5 -35q35 -33 35 -84t-34.5 -86t-86 -35t-86 35t-34.5 86z" />
<glyph horiz-adv-x="997" d="M51 236l131 104q109 -201 326 -201q111 0 176.5 48.5t65.5 125.5q0 51 -34 85t-110 73q-31 16 -137 57q-78 31 -150 70q-199 111 -198 285q0 127 91 215t245 104v213h159v-219q176 -31 291 -172l-121 -111q-109 133 -270 134q-94 0 -155.5 -41t-61.5 -111q0 -92 127 -158 q29 -16 158 -71q111 -45 164 -74q190 -105 190 -273q0 -129 -96.5 -221t-249.5 -116v-230h-160v228q-272 37 -381 256z" />
<glyph horiz-adv-x="786" d="M86 221q0 68 45 125t121 86v2q-59 27 -95 74t-36 104q0 94 75.5 155.5t196.5 61.5t197 -61t76 -156q0 -119 -134 -178v-4q78 -27 123 -84t45 -125q0 -100 -86 -166.5t-221 -66.5t-221 66.5t-86 166.5zM223 238q0 -59 47 -97.5t123 -38.5q74 0 121 38t47 98q0 57 -47 95 t-121 38t-122 -38t-48 -95zM252 600q0 -49 39 -84q39 -33 102.5 -33t100.5 33q39 35 38.5 84t-38.5 82q-39 35 -100.5 35t-102.5 -35q-39 -33 -39 -82z" />
<glyph horiz-adv-x="786" d="M86 932q0 68 45 125t121 86v2q-59 27 -95 74t-36 104q0 94 75.5 155.5t196.5 61.5t197 -61.5t76 -155.5q0 -119 -134 -178v-4q78 -27 123 -84.5t45 -124.5q0 -100 -86 -167t-221 -67t-221 67t-86 167zM223 948q0 -59 47 -97t123 -38q74 0 121 38t47 97q0 57 -47 95 t-121 38t-122 -37.5t-48 -95.5zM252 1311q0 -49 39 -84q39 -33 102.5 -33t100.5 33q39 35 38.5 84t-38.5 82q-39 35 -100.5 34.5t-102.5 -34.5q-39 -33 -39 -82z" />
<glyph horiz-adv-x="1263" d="M94 389q0 123 82 226.5t217 150.5v4q-111 51 -173 137t-62 187q0 164 131 270q133 109 344 109q207 0 340 -109t133 -270q0 -102 -63.5 -188.5t-174.5 -135.5v-6q137 -45 219 -150q82 -102 82 -225q0 -178 -151.5 -295t-384.5 -117q-236 0 -387 117q-152 117 -152 295z M279 414q0 -123 98 -199q102 -78 256 -78q152 0 252 78q98 76 98 199q0 119 -96 193.5t-254 74.5q-160 0 -257 -75t-97 -193zM338 1079.5q0 -104.5 81 -172t212 -67.5q133 0 213 67.5t80 172t-81 172t-210 67.5q-131 0 -213 -67.5t-82 -172z" />
<glyph d="M66 406q0 129 81.5 237.5t217.5 157.5v4q-111 53 -173.5 143t-62.5 195q0 172 131 284.5t344 112.5q209 0 340 -113q133 -115 133 -284q0 -106 -63.5 -196.5t-173.5 -141.5v-6q137 -49 219 -158t82 -235q0 -186 -152 -310q-152 -121 -385 -121q-236 0 -387 121 q-151 124 -151 310zM250 432q0 -125 98 -209q101 -82 256.5 -82t251.5 82q98 84 98 209q0 123 -96 202t-254 79q-160 0 -257 -79t-97 -202zM309 1128.5q0 -110.5 81 -181t212 -70.5q133 0 213 70.5t80 181t-81 181t-210 70.5t-212 -70.5t-83 -181z" />
<glyph horiz-adv-x="2134" d="M145 688v182h1844v-182h-1844z" />
<glyph horiz-adv-x="1480" d="M145 688v182h1190v-182h-1190z" />
<glyph horiz-adv-x="712" d="M63 82l60 104q102 -78 205 -77q76 0 125 43t49 108q0 63 -45 106.5t-117 43.5q-86 0 -147 -62l-80 55l49 408h422v-117h-324l-24 -196q54 26 124 26q121 0 199 -74.5t78 -189.5q0 -119 -85 -196.5t-216 -77.5q-152 0 -273 96z" />
<glyph horiz-adv-x="712" d="M63 793l60 104q102 -78 205 -78q76 0 125 43t49 109q0 63 -45 106t-117 43q-86 0 -147 -61l-80 55l49 408h422v-117h-324l-24 -197q54 27 124 27q121 0 199 -75t78 -189q0 -119 -85 -197t-216 -78q-152 0 -273 97z" />
<glyph horiz-adv-x="1128" d="M55 -61l92 137q180 -143 379 -144q150 0 246 86q98 88 98 218q0 127 -94 213q-96 86 -239 86q-168 0 -281 -111l-127 61l86 693h743v-156h-596l-53 -383q115 59 248 59q217 0 361 -131q143 -129 143 -329q0 -205 -150 -336q-145 -131 -379 -131q-266 0 -477 168z" />
<glyph d="M92 160l92 147q188 -158 383 -157q154 0 248 94q98 96 98 239q0 139 -96 236q-94 94 -239 94q-168 0 -283 -123l-129 68l88 755h750v-167h-603l-53 -420q113 63 250 63q219 0 363 -143q145 -141 145 -361q0 -221 -152 -366q-150 -143 -381 -144q-262 0 -481 185z" />
<glyph horiz-adv-x="747" d="M45 283l440 528h93v-496h90v-112h-90v-203h-121v203h-383zM215 315h242v287z" />
<glyph horiz-adv-x="747" d="M45 993l440 529h93v-496h90v-113h-90v-202h-121v202h-383zM215 1026h242v287z" />
<glyph horiz-adv-x="1200" d="M37 233l809 953h102v-912h170v-147h-170v-328h-184v328h-688zM285 274h479v568z" />
<glyph d="M43 498l831 1015h103v-960h170v-168h-170v-385h-184v385h-711zM303 553h490v600z" />
<glyph horiz-adv-x="602" d="M82 1966h227l121 -340h-158z" />
<glyph horiz-adv-x="1060" d="M98 780l293 416h178l-293 -416l293 -415h-178zM467 780l289 416h180l-291 -416l291 -415h-180z" />
<glyph horiz-adv-x="1060" d="M125 365l291 415l-291 416h180l289 -416l-289 -415h-180zM492 365l292 415l-292 416h178l293 -416l-293 -415h-178z" />
<glyph horiz-adv-x="694" d="M98 780l293 416h178l-293 -416l293 -415h-178z" />
<glyph horiz-adv-x="694" d="M125 365l293 415l-293 416h178l293 -416l-293 -415h-178z" />
<glyph horiz-adv-x="1073" d="M145 688v182h783v-182h-783z" />
<glyph horiz-adv-x="493" d="M113 1390.5q0 57.5 38.5 95.5t98.5 38q55 0 94 -38t39 -95.5t-39 -96.5t-94 -39q-59 0 -98 39t-39 96.5zM156 0v1096h182v-1096h-182z" />
<glyph horiz-adv-x="1079" d="M113 1390.5q0 57.5 38.5 95.5t98.5 38q55 0 94 -38t39 -95.5t-39 -96.5t-94 -39q-59 0 -98 39t-39 96.5zM156 0v1096h182v-1096h-182zM342 -424l37 154q80 -29 129 -29q190 0 190 227v1168h183v-1151q0 -199 -93.5 -305.5t-259.5 -106.5q-123 0 -186 43zM651 1390.5 q0 57.5 39 95.5t98 38q55 0 94.5 -38t39.5 -95.5t-39.5 -96.5t-94.5 -39q-59 0 -98 39t-39 96.5z" />
<glyph horiz-adv-x="542" d="M-152 -424l37 154q80 -29 129 -29q190 0 191 227v1168h182v-1151q0 -199 -93 -305.5t-259 -106.5q-121 0 -187 43zM158 1390.5q0 57.5 39 95.5t98 38q55 0 94 -38t39 -95.5t-39 -96.5t-94 -39q-59 0 -98 39t-39 96.5z" />
<glyph horiz-adv-x="772" d="M78 553q0 121 82 198.5t213 77.5q150 0 229.5 -106.5t79.5 -290.5q0 -195 -88 -319.5t-264 -124.5q-139 0 -226 67l52 103q78 -53 168 -54q106 0 167.5 82t65.5 215q-70 -111 -211 -110q-117 0 -192.5 74.5t-75.5 187.5zM211 555q0 -66 44 -109t114 -43q68 0 113.5 44.5 t45.5 107.5q0 68 -45 114t-112 46q-70 0 -115 -45t-45 -115z" />
<glyph horiz-adv-x="772" d="M78 1264q0 121 82 198.5t213 77.5q150 0 229.5 -106.5t79.5 -290.5q0 -195 -88 -320t-264 -125q-139 0 -226 68l52 102q78 -53 168 -53q106 0 167.5 82t65.5 215q-70 -111 -211 -111q-117 0 -192.5 75t-75.5 188zM211 1266q0 -66 44 -109t114 -43q68 0 113.5 44t45.5 108 q0 68 -45 113.5t-112 45.5q-70 0 -115 -45t-45 -114z" />
<glyph horiz-adv-x="1218" d="M72 772q0 209 143 344q145 135 371 135q262 0 399 -190q137 -188 137 -508q0 -160 -34.5 -297t-105.5 -247.5t-190.5 -174t-275.5 -63.5q-242 0 -389 116l72 144q145 -102 313 -103q115 0 201 50.5t135 137.5t73.5 190.5t24.5 219.5h-6q-49 -98 -155.5 -157.5 t-239.5 -59.5q-207 0 -340 131q-133 133 -133 332zM256 772q0 -129 90 -219q90 -88 231.5 -88t231.5 88q94 88 94 221t-94 225q-92 92 -227 93q-139 0 -234 -93q-92 -90 -92 -227z" />
<glyph d="M68 1032q0 221 143 364.5t371 143.5q264 0 399 -203q137 -199 137 -536q0 -168 -34.5 -312.5t-105.5 -261t-190.5 -184.5t-275.5 -68q-240 0 -389 125l72 150q150 -109 313 -109q150 0 251 95.5t142 232.5t41 303h-6q-51 -102 -156.5 -165.5t-238.5 -63.5 q-205 0 -340 139q-133 139 -133 350zM252 1032q0 -139 92 -233q92 -92 229 -92q139 0 232 94q94 94 94 233q0 143 -94 240q-92 98 -227 98q-137 0 -234 -96q-92 -96 -92 -244z" />
<glyph horiz-adv-x="538" d="M39 586l266 217h107v-805h-142v608l-155 -125z" />
<glyph horiz-adv-x="538" d="M39 1296l266 217h107v-802h-142v606l-155 -125z" />
<glyph horiz-adv-x="952" d="M-8 864l477 326h158v-1034h299v-156h-854v156h374v813l-362 -242z" />
<glyph d="M166 1155l422 358h153v-1337h326v-176h-854v176h338v1084l-279 -236z" />
<glyph horiz-adv-x="800" d="M90 739q0 346 160 621q160 276 452 434l78 -135q-494 -328 -493 -920q-1 -589 493 -917l-78 -135q-295 158 -452 432q-160 276 -160 620z" />
<glyph horiz-adv-x="800" d="M20 -178q494 328 494 917q0 592 -494 920l76 135q295 -156 455 -434q160 -274 160 -621q0 -346 -160 -621t-455 -431z" />
<glyph horiz-adv-x="954" d="M92 -299l144 596h182l-199 -596h-127zM543 -299l143 596h182l-198 -596h-127z" />
<glyph horiz-adv-x="905" d="M90 1100l199 596h127l-144 -596h-182zM545 1100l198 596h127l-143 -596h-182z" />
<glyph horiz-adv-x="944" d="M92 1102l144 596h182l-199 -596h-127zM543 1102l143 596h182l-198 -596h-127z" />
<glyph horiz-adv-x="479" d="M86 1100l199 596h127l-144 -596h-182z" />
<glyph horiz-adv-x="475" d="M111 1102l143 596h182l-198 -596h-127z" />
<glyph horiz-adv-x="489" d="M31 -299l143 596h182l-198 -596h-127z" />
<glyph horiz-adv-x="655" d="M82 1819q0 96 67.5 161.5t166 65.5t166 -65.5t67.5 -161.5q0 -94 -67.5 -159t-166 -65t-166 65t-67.5 159zM203 1823q0 -49 32.5 -81t79.5 -32q45 0 78 32t33 81q0 45 -33 76.5t-78 31.5q-47 0 -79.5 -31.5t-32.5 -76.5z" />
<glyph horiz-adv-x="583" d="M131 135q131 98 160 154h-8q-45 0 -77 32.5t-32 79.5q0 49 38 85t89 36q59 0 97 -41t38 -104q0 -168 -246 -326zM182 1075q0 51 37 87t90 36t89 -36t36 -87q0 -55 -36 -91t-89 -36t-90 36t-37 91z" />
<glyph horiz-adv-x="542" d="M63 -358l144 596h182l-199 -596h-127zM174 852q0 51 37 87t90 36t89 -36t36 -87q0 -55 -36 -91t-89 -36t-90 36t-37 91z" />
<glyph horiz-adv-x="585" d="M29 684v119h532v-90l-321 -713h-144l312 684h-379z" />
<glyph horiz-adv-x="585" d="M29 1395v118h532v-90l-321 -712h-144l312 684h-379z" />
<glyph horiz-adv-x="1011" d="M33 1018v160h946v-105l-596 -1274h-205l586 1219h-731z" />
<glyph d="M141 1346v167h981v-108l-698 -1405h-205l684 1346h-762z" />
<glyph horiz-adv-x="710" d="M47 379q0 186 92 319q94 131 271 131q129 0 223 -69l-55 -101q-78 53 -160 54q-111 0 -176 -92q-63 -94 -66 -203q64 106 211 106q117 0 193.5 -74.5t76.5 -189.5q0 -119 -82.5 -196.5t-212.5 -77.5q-154 0 -235 110q-80 113 -80 283zM203 258q0 -66 45.5 -111t113.5 -45 q70 0 116 46.5t46 112t-46 108.5t-113 43q-70 0 -116 -43t-46 -111z" />
<glyph horiz-adv-x="710" d="M47 1090q0 188 92 319q94 131 271 131q129 0 223 -70l-55 -100q-78 53 -160 53q-111 0 -176 -92q-63 -94 -66 -203q64 107 211 107q117 0 193.5 -75t76.5 -189q0 -119 -82.5 -197t-212.5 -78q-154 0 -235 111q-80 115 -80 283zM203 969q0 -66 45.5 -111t113.5 -45 q70 0 116 46t46 111.5t-46 108.5t-113 43q-70 0 -116 -43t-46 -110z" />
<glyph horiz-adv-x="1232" d="M88 678q0 211 64 383q66 176 208 293q143 117 351 116q229 0 381 -118l-78 -138q-137 98 -291 99q-113 0 -203 -57.5t-143 -151.5q-102 -182 -103 -385l7 -2q49 98 152.5 157.5t238.5 59.5q205 0 338 -133q135 -133 135 -336q0 -207 -146 -346q-143 -137 -366 -137 q-262 0 -403.5 196.5t-141.5 499.5zM313 463q0 -133 92.5 -225.5t229.5 -92.5q135 0 231 93q95 92 95 227q0 133 -93 221q-90 88 -229 88t-233 -88q-92 -88 -93 -223z" />
<glyph d="M86 711q0 219 64.5 402t209 305t349.5 122q225 0 381 -125l-78 -143q-139 104 -291 104q-113 0 -203 -59.5t-143 -159.5q-102 -195 -103 -405h7q51 102 154.5 163.5t236.5 61.5q205 0 338 -139q135 -137 135 -351q0 -217 -146 -362q-143 -143 -366 -143 q-260 0 -405.5 208.5t-139.5 520.5zM311 485q0 -139 92 -237q92 -96 230 -96q135 0 231 96q94 96 94 239q0 139 -92 231.5t-229 92.5t-234 -92q-92 -92 -92 -234z" />
<glyph horiz-adv-x="1097" d="M47 0l834 1513h174l-834 -1513h-174z" />
<glyph horiz-adv-x="960" d="M59 0v123q84 51 135.5 131t51.5 160q0 49 -29 123h-158v131h99q-33 80 -33 151q0 168 115 277q117 109 295 110q268 2 393 -239l-133 -74q-86 172 -256 172q-104 0 -171 -68.5t-67 -175.5q0 -72 37 -153h463v-131h-408q23 -57 23 -115q0 -160 -131 -266h653v-156h-879z " />
<glyph horiz-adv-x="677" d="M37 68l59 108q115 -66 201 -65q72 0 114 33.5t42 89t-44 90t-114 34.5h-105v119h101q63 0 104 31t41 84t-38 83t-97 30q-84 0 -176 -68l-68 96q102 96 258 96q115 0 189 -61t74 -154q0 -66 -40 -115.5t-106 -70.5v-4q78 -16 121 -69.5t43 -129.5q0 -104 -82 -170.5 t-213 -66.5q-137 0 -264 80z" />
<glyph horiz-adv-x="677" d="M37 778l59 109q115 -66 201 -66q72 0 114 34t42 89t-44 90t-114 35h-105v119h101q63 0 104 30.5t41 84t-38 83t-97 29.5q-84 0 -176 -67l-68 96q102 96 258 96q115 0 189 -61.5t74 -153.5q0 -66 -40 -116t-106 -70v-4q78 -16 121 -69.5t43 -129.5q0 -104 -82 -171 t-213 -67q-137 0 -264 80z" />
<glyph horiz-adv-x="1089" d="M29 -90l88 141q199 -117 368 -117q143 0 229.5 68t86.5 176q0 113 -90 182.5t-232 69.5h-184v158h186q127 0 209 64.5t82 164.5q0 102 -79 164.5t-197 62.5q-162 0 -334 -122l-99 122q80 76 199 119t246 43q203 0 328 -106q129 -106 129 -260q0 -111 -73 -198t-190 -120 v-8q135 -27 214 -119t79 -221q0 -178 -141 -289q-140 -112 -369 -112q-246 0 -456 137z" />
<glyph d="M74 125l88 154q199 -129 373 -129q145 0 231 74.5t86 193.5q0 123 -90 199.5t-234 76.5h-186v170h188q129 0 211 71t82 183.5t-78.5 180t-199.5 67.5q-166 0 -338 -135l-98 133q80 82 200.5 129t247.5 47q203 0 332 -117q129 -113 129 -282q0 -123 -73 -217.5 t-191 -130.5v-9q137 -31 216 -131t79 -239q0 -193 -143.5 -316t-370.5 -123q-242 0 -461 150z" />
<glyph horiz-adv-x="1097" d="M82 1743q25 90 87 140t148 50q66 0 154 -45q90 -45 131 -45q78 0 119 90l115 -53q-25 -90 -87.5 -140t-146.5 -50q-63 0 -151 45q-90 47 -129 47q-78 0 -121 -94z" />
<glyph horiz-adv-x="704" d="M70 713q123 117 274 116q84 2 150.5 -39.5t96.5 -108.5t8.5 -156t-101.5 -173l-215 -225h333v-127h-534v113l268 272q117 119 117 195q0 53 -38 86.5t-93 33.5q-90 0 -193 -90z" />
<glyph horiz-adv-x="704" d="M70 1423q123 117 274 117q84 2 150.5 -40t96.5 -108.5t8.5 -155.5t-101.5 -173l-215 -225h333v-127h-534v112l268 273q117 121 117 194q0 53 -38 87t-93 34q-90 0 -193 -90z" />
<glyph horiz-adv-x="1083" d="M74 991q119 109 228.5 161t240.5 52q186 0 305 -102q117 -102 117 -256q0 -90 -54.5 -180t-183.5 -203l-348 -307h602v-156h-872v143l430 371q135 117 188 184q57 70 57 150q0 82 -64.5 134t-172.5 52q-96 0 -181 -44t-190 -138z" />
<glyph d="M109 1329q217 211 477 211q207 0 334 -125q131 -123 131 -328q0 -202 -199 -419l-444 -492h663v-176h-938v158l488 524q92 98 127 141q121 150 120 279q0 117 -82 190q-82 74 -202 74q-195 0 -369 -172z" />
<glyph horiz-adv-x="958" d="M2 1190h188l295 -557l299 557h187l-336 -602h242v-131h-306v-78h306v-131h-306v-248h-174v248h-307v131h307v78h-307v131h248z" />
<glyph horiz-adv-x="757" d="M49 410q0 178 82 299q82 123 248 122.5t248 -122.5q82 -121 82 -299q0 -176 -82 -297q-82 -123 -248 -123t-248 123q-82 121 -82 297zM195 410q0 -129 47 -208t137 -79q92 0 138 78t46 209q0 129 -47 207.5t-137 78.5t-137 -78.5t-47 -207.5z" />
<glyph horiz-adv-x="757" d="M49 1118q0 178 82 299q82 123 248 123t248 -123q82 -121 82 -299q0 -176 -82 -297q-82 -123 -248 -123t-248 123q-82 121 -82 297zM195 1118q0 -129 47 -208t137 -79q92 0 138 78t46 209q0 129 -47 208t-137 79t-137 -79t-47 -208z" />
<glyph horiz-adv-x="1220" d="M106 590q0 92 17.5 179t56.5 168t96.5 140.5t143.5 95t190 35.5q172 0 291 -96q213 -168 213 -522q0 -92 -16.5 -177t-55 -166t-96 -140.5t-144 -95.5t-192.5 -36q-131 0 -231 53.5t-157.5 143.5t-86.5 195.5t-29 222.5zM299 590q0 -207 80.5 -329t230.5 -122 q152 0 234 122t82 329q0 209 -81 330.5t-232.5 121.5t-232.5 -121.5t-81 -330.5z" />
<glyph d="M53 757.5q0 143.5 30 275.5t90 249t172 187.5t259 70.5q145 0 257 -69.5t175 -190.5q121 -229 121 -522q0 -291 -121 -525q-63 -119 -176 -188.5t-256 -69.5q-147 0 -259 71t-172 187.5t-90 248.5t-30 275.5zM236 758q0 -266 90 -436q92 -170 278 -170q125 2 212 86 t125 218t34 302q4 168 -34 302t-125 218t-212 86q-186 0 -278 -172q-90 -170 -90 -434z" />
</font>
</defs>
</svg>
